G04 EAGLE Gerber RS-274X export*
G75*
%MOMM*%
%FSLAX34Y34*%
%LPD*%
%INSolderpaste Top*%
%IPPOS*%
%AMOC8*
5,1,8,0,0,1.08239X$1,22.5*%
G01*
%ADD10R,1.079500X1.079500*%
%ADD11R,2.000000X1.200000*%
%ADD12R,1.350000X0.600000*%
%ADD13R,1.000000X1.100000*%
%ADD14R,1.100000X1.000000*%
%ADD15R,0.600000X1.200000*%
%ADD16C,0.300000*%


D10*
X197803Y195898D03*
X456883Y195898D03*
X715963Y195898D03*
X975043Y195898D03*
X1234123Y195898D03*
X1493203Y195898D03*
X1752283Y195898D03*
X197803Y454978D03*
X456883Y454978D03*
X715963Y454978D03*
X975043Y454978D03*
X1234123Y454978D03*
X1493203Y454978D03*
X1752283Y454978D03*
X197803Y714058D03*
X456883Y714058D03*
X715963Y714058D03*
X975043Y714058D03*
X1234123Y714058D03*
X1493203Y714058D03*
X1752283Y714058D03*
X197803Y973138D03*
X456883Y973138D03*
X715963Y973138D03*
X975043Y973138D03*
X1234123Y973138D03*
X1493203Y973138D03*
X1752283Y973138D03*
X197803Y1232218D03*
X456883Y1232218D03*
X715963Y1232218D03*
X975043Y1232218D03*
X1234123Y1232218D03*
X1493203Y1232218D03*
X1752283Y1232218D03*
D11*
X239950Y99000D03*
X239950Y155000D03*
D12*
X203200Y112000D03*
X203200Y122000D03*
X203200Y132000D03*
X203200Y142000D03*
D11*
X14050Y155000D03*
X14050Y99000D03*
D12*
X50800Y142000D03*
X50800Y132000D03*
X50800Y122000D03*
X50800Y112000D03*
D13*
X184785Y84700D03*
X184785Y67700D03*
D14*
X207400Y44450D03*
X224400Y44450D03*
X207400Y63500D03*
X224400Y63500D03*
D13*
X70485Y84700D03*
X70485Y67700D03*
D15*
X165100Y104200D03*
X152400Y104200D03*
X139700Y104200D03*
X127000Y104200D03*
X114300Y104200D03*
X101600Y104200D03*
X88900Y104200D03*
X88900Y48200D03*
X101600Y48200D03*
X114300Y48200D03*
X127000Y48200D03*
X139700Y48200D03*
X152400Y48200D03*
X165100Y48200D03*
D14*
X29600Y38100D03*
X46600Y38100D03*
D16*
X43370Y53650D02*
X43370Y60650D01*
X50370Y60650D01*
X50370Y53650D01*
X43370Y53650D01*
X43370Y56500D02*
X50370Y56500D01*
X50370Y59350D02*
X43370Y59350D01*
X25830Y60650D02*
X25830Y53650D01*
X25830Y60650D02*
X32830Y60650D01*
X32830Y53650D01*
X25830Y53650D01*
X25830Y56500D02*
X32830Y56500D01*
X32830Y59350D02*
X25830Y59350D01*
D14*
X207400Y25400D03*
X224400Y25400D03*
D13*
X190500Y237100D03*
X190500Y220100D03*
D14*
X42300Y171450D03*
X59300Y171450D03*
D11*
X499030Y99000D03*
X499030Y155000D03*
D12*
X462280Y112000D03*
X462280Y122000D03*
X462280Y132000D03*
X462280Y142000D03*
D11*
X273130Y155000D03*
X273130Y99000D03*
D12*
X309880Y142000D03*
X309880Y132000D03*
X309880Y122000D03*
X309880Y112000D03*
D13*
X443865Y84700D03*
X443865Y67700D03*
D14*
X466480Y44450D03*
X483480Y44450D03*
X466480Y63500D03*
X483480Y63500D03*
D13*
X329565Y84700D03*
X329565Y67700D03*
D15*
X424180Y104200D03*
X411480Y104200D03*
X398780Y104200D03*
X386080Y104200D03*
X373380Y104200D03*
X360680Y104200D03*
X347980Y104200D03*
X347980Y48200D03*
X360680Y48200D03*
X373380Y48200D03*
X386080Y48200D03*
X398780Y48200D03*
X411480Y48200D03*
X424180Y48200D03*
D14*
X288680Y38100D03*
X305680Y38100D03*
D16*
X302450Y53650D02*
X302450Y60650D01*
X309450Y60650D01*
X309450Y53650D01*
X302450Y53650D01*
X302450Y56500D02*
X309450Y56500D01*
X309450Y59350D02*
X302450Y59350D01*
X284910Y60650D02*
X284910Y53650D01*
X284910Y60650D02*
X291910Y60650D01*
X291910Y53650D01*
X284910Y53650D01*
X284910Y56500D02*
X291910Y56500D01*
X291910Y59350D02*
X284910Y59350D01*
D14*
X466480Y25400D03*
X483480Y25400D03*
D13*
X449580Y237100D03*
X449580Y220100D03*
D14*
X301380Y171450D03*
X318380Y171450D03*
D11*
X758110Y99000D03*
X758110Y155000D03*
D12*
X721360Y112000D03*
X721360Y122000D03*
X721360Y132000D03*
X721360Y142000D03*
D11*
X532210Y155000D03*
X532210Y99000D03*
D12*
X568960Y142000D03*
X568960Y132000D03*
X568960Y122000D03*
X568960Y112000D03*
D13*
X702945Y84700D03*
X702945Y67700D03*
D14*
X725560Y44450D03*
X742560Y44450D03*
X725560Y63500D03*
X742560Y63500D03*
D13*
X588645Y84700D03*
X588645Y67700D03*
D15*
X683260Y104200D03*
X670560Y104200D03*
X657860Y104200D03*
X645160Y104200D03*
X632460Y104200D03*
X619760Y104200D03*
X607060Y104200D03*
X607060Y48200D03*
X619760Y48200D03*
X632460Y48200D03*
X645160Y48200D03*
X657860Y48200D03*
X670560Y48200D03*
X683260Y48200D03*
D14*
X547760Y38100D03*
X564760Y38100D03*
D16*
X561530Y53650D02*
X561530Y60650D01*
X568530Y60650D01*
X568530Y53650D01*
X561530Y53650D01*
X561530Y56500D02*
X568530Y56500D01*
X568530Y59350D02*
X561530Y59350D01*
X543990Y60650D02*
X543990Y53650D01*
X543990Y60650D02*
X550990Y60650D01*
X550990Y53650D01*
X543990Y53650D01*
X543990Y56500D02*
X550990Y56500D01*
X550990Y59350D02*
X543990Y59350D01*
D14*
X725560Y25400D03*
X742560Y25400D03*
D13*
X708660Y237100D03*
X708660Y220100D03*
D14*
X560460Y171450D03*
X577460Y171450D03*
D11*
X1017190Y99000D03*
X1017190Y155000D03*
D12*
X980440Y112000D03*
X980440Y122000D03*
X980440Y132000D03*
X980440Y142000D03*
D11*
X791290Y155000D03*
X791290Y99000D03*
D12*
X828040Y142000D03*
X828040Y132000D03*
X828040Y122000D03*
X828040Y112000D03*
D13*
X962025Y84700D03*
X962025Y67700D03*
D14*
X984640Y44450D03*
X1001640Y44450D03*
X984640Y63500D03*
X1001640Y63500D03*
D13*
X847725Y84700D03*
X847725Y67700D03*
D15*
X942340Y104200D03*
X929640Y104200D03*
X916940Y104200D03*
X904240Y104200D03*
X891540Y104200D03*
X878840Y104200D03*
X866140Y104200D03*
X866140Y48200D03*
X878840Y48200D03*
X891540Y48200D03*
X904240Y48200D03*
X916940Y48200D03*
X929640Y48200D03*
X942340Y48200D03*
D14*
X806840Y38100D03*
X823840Y38100D03*
D16*
X820610Y53650D02*
X820610Y60650D01*
X827610Y60650D01*
X827610Y53650D01*
X820610Y53650D01*
X820610Y56500D02*
X827610Y56500D01*
X827610Y59350D02*
X820610Y59350D01*
X803070Y60650D02*
X803070Y53650D01*
X803070Y60650D02*
X810070Y60650D01*
X810070Y53650D01*
X803070Y53650D01*
X803070Y56500D02*
X810070Y56500D01*
X810070Y59350D02*
X803070Y59350D01*
D14*
X984640Y25400D03*
X1001640Y25400D03*
D13*
X967740Y237100D03*
X967740Y220100D03*
D14*
X819540Y171450D03*
X836540Y171450D03*
D11*
X1276270Y99000D03*
X1276270Y155000D03*
D12*
X1239520Y112000D03*
X1239520Y122000D03*
X1239520Y132000D03*
X1239520Y142000D03*
D11*
X1050370Y155000D03*
X1050370Y99000D03*
D12*
X1087120Y142000D03*
X1087120Y132000D03*
X1087120Y122000D03*
X1087120Y112000D03*
D13*
X1221105Y84700D03*
X1221105Y67700D03*
D14*
X1243720Y44450D03*
X1260720Y44450D03*
X1243720Y63500D03*
X1260720Y63500D03*
D13*
X1106805Y84700D03*
X1106805Y67700D03*
D15*
X1201420Y104200D03*
X1188720Y104200D03*
X1176020Y104200D03*
X1163320Y104200D03*
X1150620Y104200D03*
X1137920Y104200D03*
X1125220Y104200D03*
X1125220Y48200D03*
X1137920Y48200D03*
X1150620Y48200D03*
X1163320Y48200D03*
X1176020Y48200D03*
X1188720Y48200D03*
X1201420Y48200D03*
D14*
X1065920Y38100D03*
X1082920Y38100D03*
D16*
X1079690Y53650D02*
X1079690Y60650D01*
X1086690Y60650D01*
X1086690Y53650D01*
X1079690Y53650D01*
X1079690Y56500D02*
X1086690Y56500D01*
X1086690Y59350D02*
X1079690Y59350D01*
X1062150Y60650D02*
X1062150Y53650D01*
X1062150Y60650D02*
X1069150Y60650D01*
X1069150Y53650D01*
X1062150Y53650D01*
X1062150Y56500D02*
X1069150Y56500D01*
X1069150Y59350D02*
X1062150Y59350D01*
D14*
X1243720Y25400D03*
X1260720Y25400D03*
D13*
X1226820Y237100D03*
X1226820Y220100D03*
D14*
X1078620Y171450D03*
X1095620Y171450D03*
D11*
X1535350Y99000D03*
X1535350Y155000D03*
D12*
X1498600Y112000D03*
X1498600Y122000D03*
X1498600Y132000D03*
X1498600Y142000D03*
D11*
X1309450Y155000D03*
X1309450Y99000D03*
D12*
X1346200Y142000D03*
X1346200Y132000D03*
X1346200Y122000D03*
X1346200Y112000D03*
D13*
X1480185Y84700D03*
X1480185Y67700D03*
D14*
X1502800Y44450D03*
X1519800Y44450D03*
X1502800Y63500D03*
X1519800Y63500D03*
D13*
X1365885Y84700D03*
X1365885Y67700D03*
D15*
X1460500Y104200D03*
X1447800Y104200D03*
X1435100Y104200D03*
X1422400Y104200D03*
X1409700Y104200D03*
X1397000Y104200D03*
X1384300Y104200D03*
X1384300Y48200D03*
X1397000Y48200D03*
X1409700Y48200D03*
X1422400Y48200D03*
X1435100Y48200D03*
X1447800Y48200D03*
X1460500Y48200D03*
D14*
X1325000Y38100D03*
X1342000Y38100D03*
D16*
X1338770Y53650D02*
X1338770Y60650D01*
X1345770Y60650D01*
X1345770Y53650D01*
X1338770Y53650D01*
X1338770Y56500D02*
X1345770Y56500D01*
X1345770Y59350D02*
X1338770Y59350D01*
X1321230Y60650D02*
X1321230Y53650D01*
X1321230Y60650D02*
X1328230Y60650D01*
X1328230Y53650D01*
X1321230Y53650D01*
X1321230Y56500D02*
X1328230Y56500D01*
X1328230Y59350D02*
X1321230Y59350D01*
D14*
X1502800Y25400D03*
X1519800Y25400D03*
D13*
X1485900Y237100D03*
X1485900Y220100D03*
D14*
X1337700Y171450D03*
X1354700Y171450D03*
D11*
X1794430Y99000D03*
X1794430Y155000D03*
D12*
X1757680Y112000D03*
X1757680Y122000D03*
X1757680Y132000D03*
X1757680Y142000D03*
D11*
X1568530Y155000D03*
X1568530Y99000D03*
D12*
X1605280Y142000D03*
X1605280Y132000D03*
X1605280Y122000D03*
X1605280Y112000D03*
D13*
X1739265Y84700D03*
X1739265Y67700D03*
D14*
X1761880Y44450D03*
X1778880Y44450D03*
X1761880Y63500D03*
X1778880Y63500D03*
D13*
X1624965Y84700D03*
X1624965Y67700D03*
D15*
X1719580Y104200D03*
X1706880Y104200D03*
X1694180Y104200D03*
X1681480Y104200D03*
X1668780Y104200D03*
X1656080Y104200D03*
X1643380Y104200D03*
X1643380Y48200D03*
X1656080Y48200D03*
X1668780Y48200D03*
X1681480Y48200D03*
X1694180Y48200D03*
X1706880Y48200D03*
X1719580Y48200D03*
D14*
X1584080Y38100D03*
X1601080Y38100D03*
D16*
X1597850Y53650D02*
X1597850Y60650D01*
X1604850Y60650D01*
X1604850Y53650D01*
X1597850Y53650D01*
X1597850Y56500D02*
X1604850Y56500D01*
X1604850Y59350D02*
X1597850Y59350D01*
X1580310Y60650D02*
X1580310Y53650D01*
X1580310Y60650D02*
X1587310Y60650D01*
X1587310Y53650D01*
X1580310Y53650D01*
X1580310Y56500D02*
X1587310Y56500D01*
X1587310Y59350D02*
X1580310Y59350D01*
D14*
X1761880Y25400D03*
X1778880Y25400D03*
D13*
X1744980Y237100D03*
X1744980Y220100D03*
D14*
X1596780Y171450D03*
X1613780Y171450D03*
D11*
X239950Y358080D03*
X239950Y414080D03*
D12*
X203200Y371080D03*
X203200Y381080D03*
X203200Y391080D03*
X203200Y401080D03*
D11*
X14050Y414080D03*
X14050Y358080D03*
D12*
X50800Y401080D03*
X50800Y391080D03*
X50800Y381080D03*
X50800Y371080D03*
D13*
X184785Y343780D03*
X184785Y326780D03*
D14*
X207400Y303530D03*
X224400Y303530D03*
X207400Y322580D03*
X224400Y322580D03*
D13*
X70485Y343780D03*
X70485Y326780D03*
D15*
X165100Y363280D03*
X152400Y363280D03*
X139700Y363280D03*
X127000Y363280D03*
X114300Y363280D03*
X101600Y363280D03*
X88900Y363280D03*
X88900Y307280D03*
X101600Y307280D03*
X114300Y307280D03*
X127000Y307280D03*
X139700Y307280D03*
X152400Y307280D03*
X165100Y307280D03*
D14*
X29600Y297180D03*
X46600Y297180D03*
D16*
X43370Y312730D02*
X43370Y319730D01*
X50370Y319730D01*
X50370Y312730D01*
X43370Y312730D01*
X43370Y315580D02*
X50370Y315580D01*
X50370Y318430D02*
X43370Y318430D01*
X25830Y319730D02*
X25830Y312730D01*
X25830Y319730D02*
X32830Y319730D01*
X32830Y312730D01*
X25830Y312730D01*
X25830Y315580D02*
X32830Y315580D01*
X32830Y318430D02*
X25830Y318430D01*
D14*
X207400Y284480D03*
X224400Y284480D03*
D13*
X190500Y496180D03*
X190500Y479180D03*
D14*
X42300Y430530D03*
X59300Y430530D03*
D11*
X499030Y358080D03*
X499030Y414080D03*
D12*
X462280Y371080D03*
X462280Y381080D03*
X462280Y391080D03*
X462280Y401080D03*
D11*
X273130Y414080D03*
X273130Y358080D03*
D12*
X309880Y401080D03*
X309880Y391080D03*
X309880Y381080D03*
X309880Y371080D03*
D13*
X443865Y343780D03*
X443865Y326780D03*
D14*
X466480Y303530D03*
X483480Y303530D03*
X466480Y322580D03*
X483480Y322580D03*
D13*
X329565Y343780D03*
X329565Y326780D03*
D15*
X424180Y363280D03*
X411480Y363280D03*
X398780Y363280D03*
X386080Y363280D03*
X373380Y363280D03*
X360680Y363280D03*
X347980Y363280D03*
X347980Y307280D03*
X360680Y307280D03*
X373380Y307280D03*
X386080Y307280D03*
X398780Y307280D03*
X411480Y307280D03*
X424180Y307280D03*
D14*
X288680Y297180D03*
X305680Y297180D03*
D16*
X302450Y312730D02*
X302450Y319730D01*
X309450Y319730D01*
X309450Y312730D01*
X302450Y312730D01*
X302450Y315580D02*
X309450Y315580D01*
X309450Y318430D02*
X302450Y318430D01*
X284910Y319730D02*
X284910Y312730D01*
X284910Y319730D02*
X291910Y319730D01*
X291910Y312730D01*
X284910Y312730D01*
X284910Y315580D02*
X291910Y315580D01*
X291910Y318430D02*
X284910Y318430D01*
D14*
X466480Y284480D03*
X483480Y284480D03*
D13*
X449580Y496180D03*
X449580Y479180D03*
D14*
X301380Y430530D03*
X318380Y430530D03*
D11*
X758110Y358080D03*
X758110Y414080D03*
D12*
X721360Y371080D03*
X721360Y381080D03*
X721360Y391080D03*
X721360Y401080D03*
D11*
X532210Y414080D03*
X532210Y358080D03*
D12*
X568960Y401080D03*
X568960Y391080D03*
X568960Y381080D03*
X568960Y371080D03*
D13*
X702945Y343780D03*
X702945Y326780D03*
D14*
X725560Y303530D03*
X742560Y303530D03*
X725560Y322580D03*
X742560Y322580D03*
D13*
X588645Y343780D03*
X588645Y326780D03*
D15*
X683260Y363280D03*
X670560Y363280D03*
X657860Y363280D03*
X645160Y363280D03*
X632460Y363280D03*
X619760Y363280D03*
X607060Y363280D03*
X607060Y307280D03*
X619760Y307280D03*
X632460Y307280D03*
X645160Y307280D03*
X657860Y307280D03*
X670560Y307280D03*
X683260Y307280D03*
D14*
X547760Y297180D03*
X564760Y297180D03*
D16*
X561530Y312730D02*
X561530Y319730D01*
X568530Y319730D01*
X568530Y312730D01*
X561530Y312730D01*
X561530Y315580D02*
X568530Y315580D01*
X568530Y318430D02*
X561530Y318430D01*
X543990Y319730D02*
X543990Y312730D01*
X543990Y319730D02*
X550990Y319730D01*
X550990Y312730D01*
X543990Y312730D01*
X543990Y315580D02*
X550990Y315580D01*
X550990Y318430D02*
X543990Y318430D01*
D14*
X725560Y284480D03*
X742560Y284480D03*
D13*
X708660Y496180D03*
X708660Y479180D03*
D14*
X560460Y430530D03*
X577460Y430530D03*
D11*
X1017190Y358080D03*
X1017190Y414080D03*
D12*
X980440Y371080D03*
X980440Y381080D03*
X980440Y391080D03*
X980440Y401080D03*
D11*
X791290Y414080D03*
X791290Y358080D03*
D12*
X828040Y401080D03*
X828040Y391080D03*
X828040Y381080D03*
X828040Y371080D03*
D13*
X962025Y343780D03*
X962025Y326780D03*
D14*
X984640Y303530D03*
X1001640Y303530D03*
X984640Y322580D03*
X1001640Y322580D03*
D13*
X847725Y343780D03*
X847725Y326780D03*
D15*
X942340Y363280D03*
X929640Y363280D03*
X916940Y363280D03*
X904240Y363280D03*
X891540Y363280D03*
X878840Y363280D03*
X866140Y363280D03*
X866140Y307280D03*
X878840Y307280D03*
X891540Y307280D03*
X904240Y307280D03*
X916940Y307280D03*
X929640Y307280D03*
X942340Y307280D03*
D14*
X806840Y297180D03*
X823840Y297180D03*
D16*
X820610Y312730D02*
X820610Y319730D01*
X827610Y319730D01*
X827610Y312730D01*
X820610Y312730D01*
X820610Y315580D02*
X827610Y315580D01*
X827610Y318430D02*
X820610Y318430D01*
X803070Y319730D02*
X803070Y312730D01*
X803070Y319730D02*
X810070Y319730D01*
X810070Y312730D01*
X803070Y312730D01*
X803070Y315580D02*
X810070Y315580D01*
X810070Y318430D02*
X803070Y318430D01*
D14*
X984640Y284480D03*
X1001640Y284480D03*
D13*
X967740Y496180D03*
X967740Y479180D03*
D14*
X819540Y430530D03*
X836540Y430530D03*
D11*
X1276270Y358080D03*
X1276270Y414080D03*
D12*
X1239520Y371080D03*
X1239520Y381080D03*
X1239520Y391080D03*
X1239520Y401080D03*
D11*
X1050370Y414080D03*
X1050370Y358080D03*
D12*
X1087120Y401080D03*
X1087120Y391080D03*
X1087120Y381080D03*
X1087120Y371080D03*
D13*
X1221105Y343780D03*
X1221105Y326780D03*
D14*
X1243720Y303530D03*
X1260720Y303530D03*
X1243720Y322580D03*
X1260720Y322580D03*
D13*
X1106805Y343780D03*
X1106805Y326780D03*
D15*
X1201420Y363280D03*
X1188720Y363280D03*
X1176020Y363280D03*
X1163320Y363280D03*
X1150620Y363280D03*
X1137920Y363280D03*
X1125220Y363280D03*
X1125220Y307280D03*
X1137920Y307280D03*
X1150620Y307280D03*
X1163320Y307280D03*
X1176020Y307280D03*
X1188720Y307280D03*
X1201420Y307280D03*
D14*
X1065920Y297180D03*
X1082920Y297180D03*
D16*
X1079690Y312730D02*
X1079690Y319730D01*
X1086690Y319730D01*
X1086690Y312730D01*
X1079690Y312730D01*
X1079690Y315580D02*
X1086690Y315580D01*
X1086690Y318430D02*
X1079690Y318430D01*
X1062150Y319730D02*
X1062150Y312730D01*
X1062150Y319730D02*
X1069150Y319730D01*
X1069150Y312730D01*
X1062150Y312730D01*
X1062150Y315580D02*
X1069150Y315580D01*
X1069150Y318430D02*
X1062150Y318430D01*
D14*
X1243720Y284480D03*
X1260720Y284480D03*
D13*
X1226820Y496180D03*
X1226820Y479180D03*
D14*
X1078620Y430530D03*
X1095620Y430530D03*
D11*
X1535350Y358080D03*
X1535350Y414080D03*
D12*
X1498600Y371080D03*
X1498600Y381080D03*
X1498600Y391080D03*
X1498600Y401080D03*
D11*
X1309450Y414080D03*
X1309450Y358080D03*
D12*
X1346200Y401080D03*
X1346200Y391080D03*
X1346200Y381080D03*
X1346200Y371080D03*
D13*
X1480185Y343780D03*
X1480185Y326780D03*
D14*
X1502800Y303530D03*
X1519800Y303530D03*
X1502800Y322580D03*
X1519800Y322580D03*
D13*
X1365885Y343780D03*
X1365885Y326780D03*
D15*
X1460500Y363280D03*
X1447800Y363280D03*
X1435100Y363280D03*
X1422400Y363280D03*
X1409700Y363280D03*
X1397000Y363280D03*
X1384300Y363280D03*
X1384300Y307280D03*
X1397000Y307280D03*
X1409700Y307280D03*
X1422400Y307280D03*
X1435100Y307280D03*
X1447800Y307280D03*
X1460500Y307280D03*
D14*
X1325000Y297180D03*
X1342000Y297180D03*
D16*
X1338770Y312730D02*
X1338770Y319730D01*
X1345770Y319730D01*
X1345770Y312730D01*
X1338770Y312730D01*
X1338770Y315580D02*
X1345770Y315580D01*
X1345770Y318430D02*
X1338770Y318430D01*
X1321230Y319730D02*
X1321230Y312730D01*
X1321230Y319730D02*
X1328230Y319730D01*
X1328230Y312730D01*
X1321230Y312730D01*
X1321230Y315580D02*
X1328230Y315580D01*
X1328230Y318430D02*
X1321230Y318430D01*
D14*
X1502800Y284480D03*
X1519800Y284480D03*
D13*
X1485900Y496180D03*
X1485900Y479180D03*
D14*
X1337700Y430530D03*
X1354700Y430530D03*
D11*
X1794430Y358080D03*
X1794430Y414080D03*
D12*
X1757680Y371080D03*
X1757680Y381080D03*
X1757680Y391080D03*
X1757680Y401080D03*
D11*
X1568530Y414080D03*
X1568530Y358080D03*
D12*
X1605280Y401080D03*
X1605280Y391080D03*
X1605280Y381080D03*
X1605280Y371080D03*
D13*
X1739265Y343780D03*
X1739265Y326780D03*
D14*
X1761880Y303530D03*
X1778880Y303530D03*
X1761880Y322580D03*
X1778880Y322580D03*
D13*
X1624965Y343780D03*
X1624965Y326780D03*
D15*
X1719580Y363280D03*
X1706880Y363280D03*
X1694180Y363280D03*
X1681480Y363280D03*
X1668780Y363280D03*
X1656080Y363280D03*
X1643380Y363280D03*
X1643380Y307280D03*
X1656080Y307280D03*
X1668780Y307280D03*
X1681480Y307280D03*
X1694180Y307280D03*
X1706880Y307280D03*
X1719580Y307280D03*
D14*
X1584080Y297180D03*
X1601080Y297180D03*
D16*
X1597850Y312730D02*
X1597850Y319730D01*
X1604850Y319730D01*
X1604850Y312730D01*
X1597850Y312730D01*
X1597850Y315580D02*
X1604850Y315580D01*
X1604850Y318430D02*
X1597850Y318430D01*
X1580310Y319730D02*
X1580310Y312730D01*
X1580310Y319730D02*
X1587310Y319730D01*
X1587310Y312730D01*
X1580310Y312730D01*
X1580310Y315580D02*
X1587310Y315580D01*
X1587310Y318430D02*
X1580310Y318430D01*
D14*
X1761880Y284480D03*
X1778880Y284480D03*
D13*
X1744980Y496180D03*
X1744980Y479180D03*
D14*
X1596780Y430530D03*
X1613780Y430530D03*
D11*
X239950Y617160D03*
X239950Y673160D03*
D12*
X203200Y630160D03*
X203200Y640160D03*
X203200Y650160D03*
X203200Y660160D03*
D11*
X14050Y673160D03*
X14050Y617160D03*
D12*
X50800Y660160D03*
X50800Y650160D03*
X50800Y640160D03*
X50800Y630160D03*
D13*
X184785Y602860D03*
X184785Y585860D03*
D14*
X207400Y562610D03*
X224400Y562610D03*
X207400Y581660D03*
X224400Y581660D03*
D13*
X70485Y602860D03*
X70485Y585860D03*
D15*
X165100Y622360D03*
X152400Y622360D03*
X139700Y622360D03*
X127000Y622360D03*
X114300Y622360D03*
X101600Y622360D03*
X88900Y622360D03*
X88900Y566360D03*
X101600Y566360D03*
X114300Y566360D03*
X127000Y566360D03*
X139700Y566360D03*
X152400Y566360D03*
X165100Y566360D03*
D14*
X29600Y556260D03*
X46600Y556260D03*
D16*
X43370Y571810D02*
X43370Y578810D01*
X50370Y578810D01*
X50370Y571810D01*
X43370Y571810D01*
X43370Y574660D02*
X50370Y574660D01*
X50370Y577510D02*
X43370Y577510D01*
X25830Y578810D02*
X25830Y571810D01*
X25830Y578810D02*
X32830Y578810D01*
X32830Y571810D01*
X25830Y571810D01*
X25830Y574660D02*
X32830Y574660D01*
X32830Y577510D02*
X25830Y577510D01*
D14*
X207400Y543560D03*
X224400Y543560D03*
D13*
X190500Y755260D03*
X190500Y738260D03*
D14*
X42300Y689610D03*
X59300Y689610D03*
D11*
X499030Y617160D03*
X499030Y673160D03*
D12*
X462280Y630160D03*
X462280Y640160D03*
X462280Y650160D03*
X462280Y660160D03*
D11*
X273130Y673160D03*
X273130Y617160D03*
D12*
X309880Y660160D03*
X309880Y650160D03*
X309880Y640160D03*
X309880Y630160D03*
D13*
X443865Y602860D03*
X443865Y585860D03*
D14*
X466480Y562610D03*
X483480Y562610D03*
X466480Y581660D03*
X483480Y581660D03*
D13*
X329565Y602860D03*
X329565Y585860D03*
D15*
X424180Y622360D03*
X411480Y622360D03*
X398780Y622360D03*
X386080Y622360D03*
X373380Y622360D03*
X360680Y622360D03*
X347980Y622360D03*
X347980Y566360D03*
X360680Y566360D03*
X373380Y566360D03*
X386080Y566360D03*
X398780Y566360D03*
X411480Y566360D03*
X424180Y566360D03*
D14*
X288680Y556260D03*
X305680Y556260D03*
D16*
X302450Y571810D02*
X302450Y578810D01*
X309450Y578810D01*
X309450Y571810D01*
X302450Y571810D01*
X302450Y574660D02*
X309450Y574660D01*
X309450Y577510D02*
X302450Y577510D01*
X284910Y578810D02*
X284910Y571810D01*
X284910Y578810D02*
X291910Y578810D01*
X291910Y571810D01*
X284910Y571810D01*
X284910Y574660D02*
X291910Y574660D01*
X291910Y577510D02*
X284910Y577510D01*
D14*
X466480Y543560D03*
X483480Y543560D03*
D13*
X449580Y755260D03*
X449580Y738260D03*
D14*
X301380Y689610D03*
X318380Y689610D03*
D11*
X758110Y617160D03*
X758110Y673160D03*
D12*
X721360Y630160D03*
X721360Y640160D03*
X721360Y650160D03*
X721360Y660160D03*
D11*
X532210Y673160D03*
X532210Y617160D03*
D12*
X568960Y660160D03*
X568960Y650160D03*
X568960Y640160D03*
X568960Y630160D03*
D13*
X702945Y602860D03*
X702945Y585860D03*
D14*
X725560Y562610D03*
X742560Y562610D03*
X725560Y581660D03*
X742560Y581660D03*
D13*
X588645Y602860D03*
X588645Y585860D03*
D15*
X683260Y622360D03*
X670560Y622360D03*
X657860Y622360D03*
X645160Y622360D03*
X632460Y622360D03*
X619760Y622360D03*
X607060Y622360D03*
X607060Y566360D03*
X619760Y566360D03*
X632460Y566360D03*
X645160Y566360D03*
X657860Y566360D03*
X670560Y566360D03*
X683260Y566360D03*
D14*
X547760Y556260D03*
X564760Y556260D03*
D16*
X561530Y571810D02*
X561530Y578810D01*
X568530Y578810D01*
X568530Y571810D01*
X561530Y571810D01*
X561530Y574660D02*
X568530Y574660D01*
X568530Y577510D02*
X561530Y577510D01*
X543990Y578810D02*
X543990Y571810D01*
X543990Y578810D02*
X550990Y578810D01*
X550990Y571810D01*
X543990Y571810D01*
X543990Y574660D02*
X550990Y574660D01*
X550990Y577510D02*
X543990Y577510D01*
D14*
X725560Y543560D03*
X742560Y543560D03*
D13*
X708660Y755260D03*
X708660Y738260D03*
D14*
X560460Y689610D03*
X577460Y689610D03*
D11*
X1017190Y617160D03*
X1017190Y673160D03*
D12*
X980440Y630160D03*
X980440Y640160D03*
X980440Y650160D03*
X980440Y660160D03*
D11*
X791290Y673160D03*
X791290Y617160D03*
D12*
X828040Y660160D03*
X828040Y650160D03*
X828040Y640160D03*
X828040Y630160D03*
D13*
X962025Y602860D03*
X962025Y585860D03*
D14*
X984640Y562610D03*
X1001640Y562610D03*
X984640Y581660D03*
X1001640Y581660D03*
D13*
X847725Y602860D03*
X847725Y585860D03*
D15*
X942340Y622360D03*
X929640Y622360D03*
X916940Y622360D03*
X904240Y622360D03*
X891540Y622360D03*
X878840Y622360D03*
X866140Y622360D03*
X866140Y566360D03*
X878840Y566360D03*
X891540Y566360D03*
X904240Y566360D03*
X916940Y566360D03*
X929640Y566360D03*
X942340Y566360D03*
D14*
X806840Y556260D03*
X823840Y556260D03*
D16*
X820610Y571810D02*
X820610Y578810D01*
X827610Y578810D01*
X827610Y571810D01*
X820610Y571810D01*
X820610Y574660D02*
X827610Y574660D01*
X827610Y577510D02*
X820610Y577510D01*
X803070Y578810D02*
X803070Y571810D01*
X803070Y578810D02*
X810070Y578810D01*
X810070Y571810D01*
X803070Y571810D01*
X803070Y574660D02*
X810070Y574660D01*
X810070Y577510D02*
X803070Y577510D01*
D14*
X984640Y543560D03*
X1001640Y543560D03*
D13*
X967740Y755260D03*
X967740Y738260D03*
D14*
X819540Y689610D03*
X836540Y689610D03*
D11*
X1276270Y617160D03*
X1276270Y673160D03*
D12*
X1239520Y630160D03*
X1239520Y640160D03*
X1239520Y650160D03*
X1239520Y660160D03*
D11*
X1050370Y673160D03*
X1050370Y617160D03*
D12*
X1087120Y660160D03*
X1087120Y650160D03*
X1087120Y640160D03*
X1087120Y630160D03*
D13*
X1221105Y602860D03*
X1221105Y585860D03*
D14*
X1243720Y562610D03*
X1260720Y562610D03*
X1243720Y581660D03*
X1260720Y581660D03*
D13*
X1106805Y602860D03*
X1106805Y585860D03*
D15*
X1201420Y622360D03*
X1188720Y622360D03*
X1176020Y622360D03*
X1163320Y622360D03*
X1150620Y622360D03*
X1137920Y622360D03*
X1125220Y622360D03*
X1125220Y566360D03*
X1137920Y566360D03*
X1150620Y566360D03*
X1163320Y566360D03*
X1176020Y566360D03*
X1188720Y566360D03*
X1201420Y566360D03*
D14*
X1065920Y556260D03*
X1082920Y556260D03*
D16*
X1079690Y571810D02*
X1079690Y578810D01*
X1086690Y578810D01*
X1086690Y571810D01*
X1079690Y571810D01*
X1079690Y574660D02*
X1086690Y574660D01*
X1086690Y577510D02*
X1079690Y577510D01*
X1062150Y578810D02*
X1062150Y571810D01*
X1062150Y578810D02*
X1069150Y578810D01*
X1069150Y571810D01*
X1062150Y571810D01*
X1062150Y574660D02*
X1069150Y574660D01*
X1069150Y577510D02*
X1062150Y577510D01*
D14*
X1243720Y543560D03*
X1260720Y543560D03*
D13*
X1226820Y755260D03*
X1226820Y738260D03*
D14*
X1078620Y689610D03*
X1095620Y689610D03*
D11*
X1535350Y617160D03*
X1535350Y673160D03*
D12*
X1498600Y630160D03*
X1498600Y640160D03*
X1498600Y650160D03*
X1498600Y660160D03*
D11*
X1309450Y673160D03*
X1309450Y617160D03*
D12*
X1346200Y660160D03*
X1346200Y650160D03*
X1346200Y640160D03*
X1346200Y630160D03*
D13*
X1480185Y602860D03*
X1480185Y585860D03*
D14*
X1502800Y562610D03*
X1519800Y562610D03*
X1502800Y581660D03*
X1519800Y581660D03*
D13*
X1365885Y602860D03*
X1365885Y585860D03*
D15*
X1460500Y622360D03*
X1447800Y622360D03*
X1435100Y622360D03*
X1422400Y622360D03*
X1409700Y622360D03*
X1397000Y622360D03*
X1384300Y622360D03*
X1384300Y566360D03*
X1397000Y566360D03*
X1409700Y566360D03*
X1422400Y566360D03*
X1435100Y566360D03*
X1447800Y566360D03*
X1460500Y566360D03*
D14*
X1325000Y556260D03*
X1342000Y556260D03*
D16*
X1338770Y571810D02*
X1338770Y578810D01*
X1345770Y578810D01*
X1345770Y571810D01*
X1338770Y571810D01*
X1338770Y574660D02*
X1345770Y574660D01*
X1345770Y577510D02*
X1338770Y577510D01*
X1321230Y578810D02*
X1321230Y571810D01*
X1321230Y578810D02*
X1328230Y578810D01*
X1328230Y571810D01*
X1321230Y571810D01*
X1321230Y574660D02*
X1328230Y574660D01*
X1328230Y577510D02*
X1321230Y577510D01*
D14*
X1502800Y543560D03*
X1519800Y543560D03*
D13*
X1485900Y755260D03*
X1485900Y738260D03*
D14*
X1337700Y689610D03*
X1354700Y689610D03*
D11*
X1794430Y617160D03*
X1794430Y673160D03*
D12*
X1757680Y630160D03*
X1757680Y640160D03*
X1757680Y650160D03*
X1757680Y660160D03*
D11*
X1568530Y673160D03*
X1568530Y617160D03*
D12*
X1605280Y660160D03*
X1605280Y650160D03*
X1605280Y640160D03*
X1605280Y630160D03*
D13*
X1739265Y602860D03*
X1739265Y585860D03*
D14*
X1761880Y562610D03*
X1778880Y562610D03*
X1761880Y581660D03*
X1778880Y581660D03*
D13*
X1624965Y602860D03*
X1624965Y585860D03*
D15*
X1719580Y622360D03*
X1706880Y622360D03*
X1694180Y622360D03*
X1681480Y622360D03*
X1668780Y622360D03*
X1656080Y622360D03*
X1643380Y622360D03*
X1643380Y566360D03*
X1656080Y566360D03*
X1668780Y566360D03*
X1681480Y566360D03*
X1694180Y566360D03*
X1706880Y566360D03*
X1719580Y566360D03*
D14*
X1584080Y556260D03*
X1601080Y556260D03*
D16*
X1597850Y571810D02*
X1597850Y578810D01*
X1604850Y578810D01*
X1604850Y571810D01*
X1597850Y571810D01*
X1597850Y574660D02*
X1604850Y574660D01*
X1604850Y577510D02*
X1597850Y577510D01*
X1580310Y578810D02*
X1580310Y571810D01*
X1580310Y578810D02*
X1587310Y578810D01*
X1587310Y571810D01*
X1580310Y571810D01*
X1580310Y574660D02*
X1587310Y574660D01*
X1587310Y577510D02*
X1580310Y577510D01*
D14*
X1761880Y543560D03*
X1778880Y543560D03*
D13*
X1744980Y755260D03*
X1744980Y738260D03*
D14*
X1596780Y689610D03*
X1613780Y689610D03*
D11*
X239950Y876240D03*
X239950Y932240D03*
D12*
X203200Y889240D03*
X203200Y899240D03*
X203200Y909240D03*
X203200Y919240D03*
D11*
X14050Y932240D03*
X14050Y876240D03*
D12*
X50800Y919240D03*
X50800Y909240D03*
X50800Y899240D03*
X50800Y889240D03*
D13*
X184785Y861940D03*
X184785Y844940D03*
D14*
X207400Y821690D03*
X224400Y821690D03*
X207400Y840740D03*
X224400Y840740D03*
D13*
X70485Y861940D03*
X70485Y844940D03*
D15*
X165100Y881440D03*
X152400Y881440D03*
X139700Y881440D03*
X127000Y881440D03*
X114300Y881440D03*
X101600Y881440D03*
X88900Y881440D03*
X88900Y825440D03*
X101600Y825440D03*
X114300Y825440D03*
X127000Y825440D03*
X139700Y825440D03*
X152400Y825440D03*
X165100Y825440D03*
D14*
X29600Y815340D03*
X46600Y815340D03*
D16*
X43370Y830890D02*
X43370Y837890D01*
X50370Y837890D01*
X50370Y830890D01*
X43370Y830890D01*
X43370Y833740D02*
X50370Y833740D01*
X50370Y836590D02*
X43370Y836590D01*
X25830Y837890D02*
X25830Y830890D01*
X25830Y837890D02*
X32830Y837890D01*
X32830Y830890D01*
X25830Y830890D01*
X25830Y833740D02*
X32830Y833740D01*
X32830Y836590D02*
X25830Y836590D01*
D14*
X207400Y802640D03*
X224400Y802640D03*
D13*
X190500Y1014340D03*
X190500Y997340D03*
D14*
X42300Y948690D03*
X59300Y948690D03*
D11*
X499030Y876240D03*
X499030Y932240D03*
D12*
X462280Y889240D03*
X462280Y899240D03*
X462280Y909240D03*
X462280Y919240D03*
D11*
X273130Y932240D03*
X273130Y876240D03*
D12*
X309880Y919240D03*
X309880Y909240D03*
X309880Y899240D03*
X309880Y889240D03*
D13*
X443865Y861940D03*
X443865Y844940D03*
D14*
X466480Y821690D03*
X483480Y821690D03*
X466480Y840740D03*
X483480Y840740D03*
D13*
X329565Y861940D03*
X329565Y844940D03*
D15*
X424180Y881440D03*
X411480Y881440D03*
X398780Y881440D03*
X386080Y881440D03*
X373380Y881440D03*
X360680Y881440D03*
X347980Y881440D03*
X347980Y825440D03*
X360680Y825440D03*
X373380Y825440D03*
X386080Y825440D03*
X398780Y825440D03*
X411480Y825440D03*
X424180Y825440D03*
D14*
X288680Y815340D03*
X305680Y815340D03*
D16*
X302450Y830890D02*
X302450Y837890D01*
X309450Y837890D01*
X309450Y830890D01*
X302450Y830890D01*
X302450Y833740D02*
X309450Y833740D01*
X309450Y836590D02*
X302450Y836590D01*
X284910Y837890D02*
X284910Y830890D01*
X284910Y837890D02*
X291910Y837890D01*
X291910Y830890D01*
X284910Y830890D01*
X284910Y833740D02*
X291910Y833740D01*
X291910Y836590D02*
X284910Y836590D01*
D14*
X466480Y802640D03*
X483480Y802640D03*
D13*
X449580Y1014340D03*
X449580Y997340D03*
D14*
X301380Y948690D03*
X318380Y948690D03*
D11*
X758110Y876240D03*
X758110Y932240D03*
D12*
X721360Y889240D03*
X721360Y899240D03*
X721360Y909240D03*
X721360Y919240D03*
D11*
X532210Y932240D03*
X532210Y876240D03*
D12*
X568960Y919240D03*
X568960Y909240D03*
X568960Y899240D03*
X568960Y889240D03*
D13*
X702945Y861940D03*
X702945Y844940D03*
D14*
X725560Y821690D03*
X742560Y821690D03*
X725560Y840740D03*
X742560Y840740D03*
D13*
X588645Y861940D03*
X588645Y844940D03*
D15*
X683260Y881440D03*
X670560Y881440D03*
X657860Y881440D03*
X645160Y881440D03*
X632460Y881440D03*
X619760Y881440D03*
X607060Y881440D03*
X607060Y825440D03*
X619760Y825440D03*
X632460Y825440D03*
X645160Y825440D03*
X657860Y825440D03*
X670560Y825440D03*
X683260Y825440D03*
D14*
X547760Y815340D03*
X564760Y815340D03*
D16*
X561530Y830890D02*
X561530Y837890D01*
X568530Y837890D01*
X568530Y830890D01*
X561530Y830890D01*
X561530Y833740D02*
X568530Y833740D01*
X568530Y836590D02*
X561530Y836590D01*
X543990Y837890D02*
X543990Y830890D01*
X543990Y837890D02*
X550990Y837890D01*
X550990Y830890D01*
X543990Y830890D01*
X543990Y833740D02*
X550990Y833740D01*
X550990Y836590D02*
X543990Y836590D01*
D14*
X725560Y802640D03*
X742560Y802640D03*
D13*
X708660Y1014340D03*
X708660Y997340D03*
D14*
X560460Y948690D03*
X577460Y948690D03*
D11*
X1017190Y876240D03*
X1017190Y932240D03*
D12*
X980440Y889240D03*
X980440Y899240D03*
X980440Y909240D03*
X980440Y919240D03*
D11*
X791290Y932240D03*
X791290Y876240D03*
D12*
X828040Y919240D03*
X828040Y909240D03*
X828040Y899240D03*
X828040Y889240D03*
D13*
X962025Y861940D03*
X962025Y844940D03*
D14*
X984640Y821690D03*
X1001640Y821690D03*
X984640Y840740D03*
X1001640Y840740D03*
D13*
X847725Y861940D03*
X847725Y844940D03*
D15*
X942340Y881440D03*
X929640Y881440D03*
X916940Y881440D03*
X904240Y881440D03*
X891540Y881440D03*
X878840Y881440D03*
X866140Y881440D03*
X866140Y825440D03*
X878840Y825440D03*
X891540Y825440D03*
X904240Y825440D03*
X916940Y825440D03*
X929640Y825440D03*
X942340Y825440D03*
D14*
X806840Y815340D03*
X823840Y815340D03*
D16*
X820610Y830890D02*
X820610Y837890D01*
X827610Y837890D01*
X827610Y830890D01*
X820610Y830890D01*
X820610Y833740D02*
X827610Y833740D01*
X827610Y836590D02*
X820610Y836590D01*
X803070Y837890D02*
X803070Y830890D01*
X803070Y837890D02*
X810070Y837890D01*
X810070Y830890D01*
X803070Y830890D01*
X803070Y833740D02*
X810070Y833740D01*
X810070Y836590D02*
X803070Y836590D01*
D14*
X984640Y802640D03*
X1001640Y802640D03*
D13*
X967740Y1014340D03*
X967740Y997340D03*
D14*
X819540Y948690D03*
X836540Y948690D03*
D11*
X1276270Y876240D03*
X1276270Y932240D03*
D12*
X1239520Y889240D03*
X1239520Y899240D03*
X1239520Y909240D03*
X1239520Y919240D03*
D11*
X1050370Y932240D03*
X1050370Y876240D03*
D12*
X1087120Y919240D03*
X1087120Y909240D03*
X1087120Y899240D03*
X1087120Y889240D03*
D13*
X1221105Y861940D03*
X1221105Y844940D03*
D14*
X1243720Y821690D03*
X1260720Y821690D03*
X1243720Y840740D03*
X1260720Y840740D03*
D13*
X1106805Y861940D03*
X1106805Y844940D03*
D15*
X1201420Y881440D03*
X1188720Y881440D03*
X1176020Y881440D03*
X1163320Y881440D03*
X1150620Y881440D03*
X1137920Y881440D03*
X1125220Y881440D03*
X1125220Y825440D03*
X1137920Y825440D03*
X1150620Y825440D03*
X1163320Y825440D03*
X1176020Y825440D03*
X1188720Y825440D03*
X1201420Y825440D03*
D14*
X1065920Y815340D03*
X1082920Y815340D03*
D16*
X1079690Y830890D02*
X1079690Y837890D01*
X1086690Y837890D01*
X1086690Y830890D01*
X1079690Y830890D01*
X1079690Y833740D02*
X1086690Y833740D01*
X1086690Y836590D02*
X1079690Y836590D01*
X1062150Y837890D02*
X1062150Y830890D01*
X1062150Y837890D02*
X1069150Y837890D01*
X1069150Y830890D01*
X1062150Y830890D01*
X1062150Y833740D02*
X1069150Y833740D01*
X1069150Y836590D02*
X1062150Y836590D01*
D14*
X1243720Y802640D03*
X1260720Y802640D03*
D13*
X1226820Y1014340D03*
X1226820Y997340D03*
D14*
X1078620Y948690D03*
X1095620Y948690D03*
D11*
X1535350Y876240D03*
X1535350Y932240D03*
D12*
X1498600Y889240D03*
X1498600Y899240D03*
X1498600Y909240D03*
X1498600Y919240D03*
D11*
X1309450Y932240D03*
X1309450Y876240D03*
D12*
X1346200Y919240D03*
X1346200Y909240D03*
X1346200Y899240D03*
X1346200Y889240D03*
D13*
X1480185Y861940D03*
X1480185Y844940D03*
D14*
X1502800Y821690D03*
X1519800Y821690D03*
X1502800Y840740D03*
X1519800Y840740D03*
D13*
X1365885Y861940D03*
X1365885Y844940D03*
D15*
X1460500Y881440D03*
X1447800Y881440D03*
X1435100Y881440D03*
X1422400Y881440D03*
X1409700Y881440D03*
X1397000Y881440D03*
X1384300Y881440D03*
X1384300Y825440D03*
X1397000Y825440D03*
X1409700Y825440D03*
X1422400Y825440D03*
X1435100Y825440D03*
X1447800Y825440D03*
X1460500Y825440D03*
D14*
X1325000Y815340D03*
X1342000Y815340D03*
D16*
X1338770Y830890D02*
X1338770Y837890D01*
X1345770Y837890D01*
X1345770Y830890D01*
X1338770Y830890D01*
X1338770Y833740D02*
X1345770Y833740D01*
X1345770Y836590D02*
X1338770Y836590D01*
X1321230Y837890D02*
X1321230Y830890D01*
X1321230Y837890D02*
X1328230Y837890D01*
X1328230Y830890D01*
X1321230Y830890D01*
X1321230Y833740D02*
X1328230Y833740D01*
X1328230Y836590D02*
X1321230Y836590D01*
D14*
X1502800Y802640D03*
X1519800Y802640D03*
D13*
X1485900Y1014340D03*
X1485900Y997340D03*
D14*
X1337700Y948690D03*
X1354700Y948690D03*
D11*
X1794430Y876240D03*
X1794430Y932240D03*
D12*
X1757680Y889240D03*
X1757680Y899240D03*
X1757680Y909240D03*
X1757680Y919240D03*
D11*
X1568530Y932240D03*
X1568530Y876240D03*
D12*
X1605280Y919240D03*
X1605280Y909240D03*
X1605280Y899240D03*
X1605280Y889240D03*
D13*
X1739265Y861940D03*
X1739265Y844940D03*
D14*
X1761880Y821690D03*
X1778880Y821690D03*
X1761880Y840740D03*
X1778880Y840740D03*
D13*
X1624965Y861940D03*
X1624965Y844940D03*
D15*
X1719580Y881440D03*
X1706880Y881440D03*
X1694180Y881440D03*
X1681480Y881440D03*
X1668780Y881440D03*
X1656080Y881440D03*
X1643380Y881440D03*
X1643380Y825440D03*
X1656080Y825440D03*
X1668780Y825440D03*
X1681480Y825440D03*
X1694180Y825440D03*
X1706880Y825440D03*
X1719580Y825440D03*
D14*
X1584080Y815340D03*
X1601080Y815340D03*
D16*
X1597850Y830890D02*
X1597850Y837890D01*
X1604850Y837890D01*
X1604850Y830890D01*
X1597850Y830890D01*
X1597850Y833740D02*
X1604850Y833740D01*
X1604850Y836590D02*
X1597850Y836590D01*
X1580310Y837890D02*
X1580310Y830890D01*
X1580310Y837890D02*
X1587310Y837890D01*
X1587310Y830890D01*
X1580310Y830890D01*
X1580310Y833740D02*
X1587310Y833740D01*
X1587310Y836590D02*
X1580310Y836590D01*
D14*
X1761880Y802640D03*
X1778880Y802640D03*
D13*
X1744980Y1014340D03*
X1744980Y997340D03*
D14*
X1596780Y948690D03*
X1613780Y948690D03*
D11*
X239950Y1135320D03*
X239950Y1191320D03*
D12*
X203200Y1148320D03*
X203200Y1158320D03*
X203200Y1168320D03*
X203200Y1178320D03*
D11*
X14050Y1191320D03*
X14050Y1135320D03*
D12*
X50800Y1178320D03*
X50800Y1168320D03*
X50800Y1158320D03*
X50800Y1148320D03*
D13*
X184785Y1121020D03*
X184785Y1104020D03*
D14*
X207400Y1080770D03*
X224400Y1080770D03*
X207400Y1099820D03*
X224400Y1099820D03*
D13*
X70485Y1121020D03*
X70485Y1104020D03*
D15*
X165100Y1140520D03*
X152400Y1140520D03*
X139700Y1140520D03*
X127000Y1140520D03*
X114300Y1140520D03*
X101600Y1140520D03*
X88900Y1140520D03*
X88900Y1084520D03*
X101600Y1084520D03*
X114300Y1084520D03*
X127000Y1084520D03*
X139700Y1084520D03*
X152400Y1084520D03*
X165100Y1084520D03*
D14*
X29600Y1074420D03*
X46600Y1074420D03*
D16*
X43370Y1089970D02*
X43370Y1096970D01*
X50370Y1096970D01*
X50370Y1089970D01*
X43370Y1089970D01*
X43370Y1092820D02*
X50370Y1092820D01*
X50370Y1095670D02*
X43370Y1095670D01*
X25830Y1096970D02*
X25830Y1089970D01*
X25830Y1096970D02*
X32830Y1096970D01*
X32830Y1089970D01*
X25830Y1089970D01*
X25830Y1092820D02*
X32830Y1092820D01*
X32830Y1095670D02*
X25830Y1095670D01*
D14*
X207400Y1061720D03*
X224400Y1061720D03*
D13*
X190500Y1273420D03*
X190500Y1256420D03*
D14*
X42300Y1207770D03*
X59300Y1207770D03*
D11*
X499030Y1135320D03*
X499030Y1191320D03*
D12*
X462280Y1148320D03*
X462280Y1158320D03*
X462280Y1168320D03*
X462280Y1178320D03*
D11*
X273130Y1191320D03*
X273130Y1135320D03*
D12*
X309880Y1178320D03*
X309880Y1168320D03*
X309880Y1158320D03*
X309880Y1148320D03*
D13*
X443865Y1121020D03*
X443865Y1104020D03*
D14*
X466480Y1080770D03*
X483480Y1080770D03*
X466480Y1099820D03*
X483480Y1099820D03*
D13*
X329565Y1121020D03*
X329565Y1104020D03*
D15*
X424180Y1140520D03*
X411480Y1140520D03*
X398780Y1140520D03*
X386080Y1140520D03*
X373380Y1140520D03*
X360680Y1140520D03*
X347980Y1140520D03*
X347980Y1084520D03*
X360680Y1084520D03*
X373380Y1084520D03*
X386080Y1084520D03*
X398780Y1084520D03*
X411480Y1084520D03*
X424180Y1084520D03*
D14*
X288680Y1074420D03*
X305680Y1074420D03*
D16*
X302450Y1089970D02*
X302450Y1096970D01*
X309450Y1096970D01*
X309450Y1089970D01*
X302450Y1089970D01*
X302450Y1092820D02*
X309450Y1092820D01*
X309450Y1095670D02*
X302450Y1095670D01*
X284910Y1096970D02*
X284910Y1089970D01*
X284910Y1096970D02*
X291910Y1096970D01*
X291910Y1089970D01*
X284910Y1089970D01*
X284910Y1092820D02*
X291910Y1092820D01*
X291910Y1095670D02*
X284910Y1095670D01*
D14*
X466480Y1061720D03*
X483480Y1061720D03*
D13*
X449580Y1273420D03*
X449580Y1256420D03*
D14*
X301380Y1207770D03*
X318380Y1207770D03*
D11*
X758110Y1135320D03*
X758110Y1191320D03*
D12*
X721360Y1148320D03*
X721360Y1158320D03*
X721360Y1168320D03*
X721360Y1178320D03*
D11*
X532210Y1191320D03*
X532210Y1135320D03*
D12*
X568960Y1178320D03*
X568960Y1168320D03*
X568960Y1158320D03*
X568960Y1148320D03*
D13*
X702945Y1121020D03*
X702945Y1104020D03*
D14*
X725560Y1080770D03*
X742560Y1080770D03*
X725560Y1099820D03*
X742560Y1099820D03*
D13*
X588645Y1121020D03*
X588645Y1104020D03*
D15*
X683260Y1140520D03*
X670560Y1140520D03*
X657860Y1140520D03*
X645160Y1140520D03*
X632460Y1140520D03*
X619760Y1140520D03*
X607060Y1140520D03*
X607060Y1084520D03*
X619760Y1084520D03*
X632460Y1084520D03*
X645160Y1084520D03*
X657860Y1084520D03*
X670560Y1084520D03*
X683260Y1084520D03*
D14*
X547760Y1074420D03*
X564760Y1074420D03*
D16*
X561530Y1089970D02*
X561530Y1096970D01*
X568530Y1096970D01*
X568530Y1089970D01*
X561530Y1089970D01*
X561530Y1092820D02*
X568530Y1092820D01*
X568530Y1095670D02*
X561530Y1095670D01*
X543990Y1096970D02*
X543990Y1089970D01*
X543990Y1096970D02*
X550990Y1096970D01*
X550990Y1089970D01*
X543990Y1089970D01*
X543990Y1092820D02*
X550990Y1092820D01*
X550990Y1095670D02*
X543990Y1095670D01*
D14*
X725560Y1061720D03*
X742560Y1061720D03*
D13*
X708660Y1273420D03*
X708660Y1256420D03*
D14*
X560460Y1207770D03*
X577460Y1207770D03*
D11*
X1017190Y1135320D03*
X1017190Y1191320D03*
D12*
X980440Y1148320D03*
X980440Y1158320D03*
X980440Y1168320D03*
X980440Y1178320D03*
D11*
X791290Y1191320D03*
X791290Y1135320D03*
D12*
X828040Y1178320D03*
X828040Y1168320D03*
X828040Y1158320D03*
X828040Y1148320D03*
D13*
X962025Y1121020D03*
X962025Y1104020D03*
D14*
X984640Y1080770D03*
X1001640Y1080770D03*
X984640Y1099820D03*
X1001640Y1099820D03*
D13*
X847725Y1121020D03*
X847725Y1104020D03*
D15*
X942340Y1140520D03*
X929640Y1140520D03*
X916940Y1140520D03*
X904240Y1140520D03*
X891540Y1140520D03*
X878840Y1140520D03*
X866140Y1140520D03*
X866140Y1084520D03*
X878840Y1084520D03*
X891540Y1084520D03*
X904240Y1084520D03*
X916940Y1084520D03*
X929640Y1084520D03*
X942340Y1084520D03*
D14*
X806840Y1074420D03*
X823840Y1074420D03*
D16*
X820610Y1089970D02*
X820610Y1096970D01*
X827610Y1096970D01*
X827610Y1089970D01*
X820610Y1089970D01*
X820610Y1092820D02*
X827610Y1092820D01*
X827610Y1095670D02*
X820610Y1095670D01*
X803070Y1096970D02*
X803070Y1089970D01*
X803070Y1096970D02*
X810070Y1096970D01*
X810070Y1089970D01*
X803070Y1089970D01*
X803070Y1092820D02*
X810070Y1092820D01*
X810070Y1095670D02*
X803070Y1095670D01*
D14*
X984640Y1061720D03*
X1001640Y1061720D03*
D13*
X967740Y1273420D03*
X967740Y1256420D03*
D14*
X819540Y1207770D03*
X836540Y1207770D03*
D11*
X1276270Y1135320D03*
X1276270Y1191320D03*
D12*
X1239520Y1148320D03*
X1239520Y1158320D03*
X1239520Y1168320D03*
X1239520Y1178320D03*
D11*
X1050370Y1191320D03*
X1050370Y1135320D03*
D12*
X1087120Y1178320D03*
X1087120Y1168320D03*
X1087120Y1158320D03*
X1087120Y1148320D03*
D13*
X1221105Y1121020D03*
X1221105Y1104020D03*
D14*
X1243720Y1080770D03*
X1260720Y1080770D03*
X1243720Y1099820D03*
X1260720Y1099820D03*
D13*
X1106805Y1121020D03*
X1106805Y1104020D03*
D15*
X1201420Y1140520D03*
X1188720Y1140520D03*
X1176020Y1140520D03*
X1163320Y1140520D03*
X1150620Y1140520D03*
X1137920Y1140520D03*
X1125220Y1140520D03*
X1125220Y1084520D03*
X1137920Y1084520D03*
X1150620Y1084520D03*
X1163320Y1084520D03*
X1176020Y1084520D03*
X1188720Y1084520D03*
X1201420Y1084520D03*
D14*
X1065920Y1074420D03*
X1082920Y1074420D03*
D16*
X1079690Y1089970D02*
X1079690Y1096970D01*
X1086690Y1096970D01*
X1086690Y1089970D01*
X1079690Y1089970D01*
X1079690Y1092820D02*
X1086690Y1092820D01*
X1086690Y1095670D02*
X1079690Y1095670D01*
X1062150Y1096970D02*
X1062150Y1089970D01*
X1062150Y1096970D02*
X1069150Y1096970D01*
X1069150Y1089970D01*
X1062150Y1089970D01*
X1062150Y1092820D02*
X1069150Y1092820D01*
X1069150Y1095670D02*
X1062150Y1095670D01*
D14*
X1243720Y1061720D03*
X1260720Y1061720D03*
D13*
X1226820Y1273420D03*
X1226820Y1256420D03*
D14*
X1078620Y1207770D03*
X1095620Y1207770D03*
D11*
X1535350Y1135320D03*
X1535350Y1191320D03*
D12*
X1498600Y1148320D03*
X1498600Y1158320D03*
X1498600Y1168320D03*
X1498600Y1178320D03*
D11*
X1309450Y1191320D03*
X1309450Y1135320D03*
D12*
X1346200Y1178320D03*
X1346200Y1168320D03*
X1346200Y1158320D03*
X1346200Y1148320D03*
D13*
X1480185Y1121020D03*
X1480185Y1104020D03*
D14*
X1502800Y1080770D03*
X1519800Y1080770D03*
X1502800Y1099820D03*
X1519800Y1099820D03*
D13*
X1365885Y1121020D03*
X1365885Y1104020D03*
D15*
X1460500Y1140520D03*
X1447800Y1140520D03*
X1435100Y1140520D03*
X1422400Y1140520D03*
X1409700Y1140520D03*
X1397000Y1140520D03*
X1384300Y1140520D03*
X1384300Y1084520D03*
X1397000Y1084520D03*
X1409700Y1084520D03*
X1422400Y1084520D03*
X1435100Y1084520D03*
X1447800Y1084520D03*
X1460500Y1084520D03*
D14*
X1325000Y1074420D03*
X1342000Y1074420D03*
D16*
X1338770Y1089970D02*
X1338770Y1096970D01*
X1345770Y1096970D01*
X1345770Y1089970D01*
X1338770Y1089970D01*
X1338770Y1092820D02*
X1345770Y1092820D01*
X1345770Y1095670D02*
X1338770Y1095670D01*
X1321230Y1096970D02*
X1321230Y1089970D01*
X1321230Y1096970D02*
X1328230Y1096970D01*
X1328230Y1089970D01*
X1321230Y1089970D01*
X1321230Y1092820D02*
X1328230Y1092820D01*
X1328230Y1095670D02*
X1321230Y1095670D01*
D14*
X1502800Y1061720D03*
X1519800Y1061720D03*
D13*
X1485900Y1273420D03*
X1485900Y1256420D03*
D14*
X1337700Y1207770D03*
X1354700Y1207770D03*
D11*
X1794430Y1135320D03*
X1794430Y1191320D03*
D12*
X1757680Y1148320D03*
X1757680Y1158320D03*
X1757680Y1168320D03*
X1757680Y1178320D03*
D11*
X1568530Y1191320D03*
X1568530Y1135320D03*
D12*
X1605280Y1178320D03*
X1605280Y1168320D03*
X1605280Y1158320D03*
X1605280Y1148320D03*
D13*
X1739265Y1121020D03*
X1739265Y1104020D03*
D14*
X1761880Y1080770D03*
X1778880Y1080770D03*
X1761880Y1099820D03*
X1778880Y1099820D03*
D13*
X1624965Y1121020D03*
X1624965Y1104020D03*
D15*
X1719580Y1140520D03*
X1706880Y1140520D03*
X1694180Y1140520D03*
X1681480Y1140520D03*
X1668780Y1140520D03*
X1656080Y1140520D03*
X1643380Y1140520D03*
X1643380Y1084520D03*
X1656080Y1084520D03*
X1668780Y1084520D03*
X1681480Y1084520D03*
X1694180Y1084520D03*
X1706880Y1084520D03*
X1719580Y1084520D03*
D14*
X1584080Y1074420D03*
X1601080Y1074420D03*
D16*
X1597850Y1089970D02*
X1597850Y1096970D01*
X1604850Y1096970D01*
X1604850Y1089970D01*
X1597850Y1089970D01*
X1597850Y1092820D02*
X1604850Y1092820D01*
X1604850Y1095670D02*
X1597850Y1095670D01*
X1580310Y1096970D02*
X1580310Y1089970D01*
X1580310Y1096970D02*
X1587310Y1096970D01*
X1587310Y1089970D01*
X1580310Y1089970D01*
X1580310Y1092820D02*
X1587310Y1092820D01*
X1587310Y1095670D02*
X1580310Y1095670D01*
D14*
X1761880Y1061720D03*
X1778880Y1061720D03*
D13*
X1744980Y1273420D03*
X1744980Y1256420D03*
D14*
X1596780Y1207770D03*
X1613780Y1207770D03*
M02*
