M48
;GenerationSoftware,Autodesk,EAGLE,9.6.0*%
;CreationDate,2020-10-12T18:51:01Z*%
FMAT,2
ICI,OFF
METRIC,TZ,000.000
T5C0.381
T4C0.508
T3C0.800
T2C1.016
T1C3.302
%
G90
M71
T1
X106172Y178308
X80264Y126492
X22860Y22860
X2540Y22860
X48768Y22860
X28448Y22860
X74676Y22860
X54356Y22860
X100584Y22860
X80264Y22860
X126492Y22860
X106172Y22860
X22860Y48768
X2540Y48768
X48768Y48768
X28448Y48768
X74676Y48768
X54356Y48768
X100584Y48768
X80264Y48768
X126492Y48768
X106172Y48768
X22860Y74676
X2540Y74676
X48768Y74676
X28448Y74676
X74676Y74676
X54356Y74676
X100584Y74676
X80264Y74676
X126492Y74676
X106172Y74676
X22860Y100584
X2540Y100584
X48768Y100584
X28448Y100584
X74676Y100584
X54356Y100584
X100584Y100584
X80264Y100584
X126492Y100584
X106172Y100584
X22860Y126492
X2540Y126492
X48768Y126492
X28448Y126492
X74676Y126492
X54356Y126492
X100584Y126492
X126492Y126492
X106172Y126492
X22860Y152400
X2540Y152400
X48768Y152400
X28448Y152400
X74676Y152400
X54356Y152400
X100584Y152400
X80264Y152400
X126492Y152400
X106172Y152400
X22860Y178308
X2540Y178308
X48768Y178308
X28448Y178308
X74676Y178308
X54356Y178308
X100584Y178308
X80264Y178308
X126492Y178308
T2
X85344Y78994
X15240Y1270
X12700Y1270
X10160Y1270
X7620Y1270
X59436Y156718
X61976Y156718
X64516Y156718
X67056Y156718
X43688Y156718
X33528Y156718
X17780Y1270
X43688Y53086
X113792Y53086
X111252Y53086
X41148Y1270
X38608Y1270
X36068Y1270
X33528Y1270
X36068Y156718
X38608Y156718
X41148Y156718
X17780Y156718
X7620Y156718
X10160Y156718
X43688Y1270
X41148Y78994
X67056Y53086
X64516Y53086
X67056Y1270
X64516Y1270
X61976Y1270
X59436Y1270
X12700Y156718
X15240Y156718
X121412Y130810
X111252Y130810
X113792Y130810
X116332Y130810
X69596Y1270
X61976Y53086
X59436Y53086
X87884Y78994
X92964Y1270
X90424Y1270
X87884Y1270
X85344Y1270
X118872Y130810
X95504Y130810
X85344Y130810
X87884Y130810
X90424Y130810
X92964Y130810
X95504Y1270
X90424Y78994
X92964Y78994
X69596Y78994
X118872Y1270
X116332Y1270
X113792Y1270
X111252Y1270
X69596Y130810
X59436Y130810
X61976Y130810
X64516Y130810
X67056Y130810
X43688Y130810
X121412Y1270
X59436Y78994
X61976Y78994
X69596Y53086
X15240Y27178
X12700Y27178
X10160Y27178
X7620Y27178
X33528Y130810
X36068Y130810
X38608Y130810
X41148Y130810
X17780Y130810
X7620Y130810
X17780Y27178
X17780Y78994
X7620Y78994
X10160Y78994
X41148Y27178
X38608Y27178
X36068Y27178
X33528Y27178
X10160Y130810
X12700Y130810
X15240Y130810
X121412Y104902
X111252Y104902
X113792Y104902
X43688Y27178
X92964Y53086
X90424Y53086
X87884Y53086
X67056Y27178
X64516Y27178
X61976Y27178
X59436Y27178
X116332Y104902
X118872Y104902
X95504Y104902
X85344Y104902
X87884Y104902
X90424Y104902
X69596Y27178
X85344Y53086
X64516Y78994
X67056Y78994
X92964Y27178
X90424Y27178
X87884Y27178
X85344Y27178
X92964Y104902
X69596Y104902
X59436Y104902
X61976Y104902
X64516Y104902
X67056Y104902
X95504Y27178
X43688Y78994
X33528Y78994
X36068Y78994
X118872Y27178
X116332Y27178
X113792Y27178
X111252Y27178
X43688Y104902
X33528Y104902
X36068Y104902
X38608Y104902
X41148Y104902
X17780Y104902
X121412Y27178
X38608Y78994
X95504Y53086
X12700Y78994
X15240Y53086
X12700Y53086
X10160Y53086
X7620Y53086
X7620Y104902
X10160Y104902
X12700Y104902
X15240Y104902
X121412Y78994
X15240Y78994
X17780Y53086
X121412Y53086
X118872Y53086
X116332Y53086
X41148Y53086
X38608Y53086
X36068Y53086
X33528Y53086
X111252Y78994
X113792Y78994
X116332Y78994
X118872Y78994
X95504Y78994
X69596Y156718
X92964Y156718
X90424Y156718
X87884Y156718
X85344Y156718
X95504Y156718
X118872Y156718
X116332Y156718
X113792Y156718
X111252Y156718
X121412Y156718
T3
X92220Y20846
X88628Y20846
X118128Y17254
X118128Y20846
X114536Y20846
X14496Y43162
X14496Y46754
X10904Y46754
X40404Y43162
X40404Y46754
X36812Y46754
X66312Y43162
X66312Y46754
X62720Y46754
X92220Y43162
X92220Y46754
X88628Y46754
X118128Y43162
X118128Y46754
X114536Y46754
X66312Y120886
X14496Y69070
X14496Y72662
X10904Y72662
X40404Y69070
X40404Y72662
X36812Y72662
X66312Y69070
X66312Y72662
X62720Y72662
X92220Y69070
X92220Y72662
X88628Y72662
X118128Y69070
X118128Y72662
X114536Y72662
X14496Y94978
X14496Y98570
X10904Y98570
X40404Y94978
X40404Y98570
X36812Y98570
X66312Y94978
X66312Y98570
X62720Y98570
X92220Y94978
X92220Y98570
X88628Y98570
X118128Y94978
X118128Y98570
X114536Y98570
X14496Y120886
X14496Y124478
X10904Y124478
X40404Y120886
X40404Y124478
X36812Y124478
X66312Y124478
X62720Y124478
X92220Y120886
X92220Y124478
X88628Y124478
X118128Y120886
X118128Y124478
X114536Y124478
X14496Y146794
X14496Y150386
X10904Y150386
X40404Y146794
X40404Y150386
X36812Y150386
X66312Y146794
X66312Y150386
X62720Y150386
X92220Y146794
X92220Y150386
X88628Y150386
X118128Y146794
X118128Y150386
X114536Y150386
X14496Y172702
X14496Y176294
X10904Y176294
X40404Y172702
X40404Y176294
X36812Y176294
X114536Y176294
X66312Y172702
X66312Y176294
X62720Y176294
X14496Y17254
X14496Y20846
X10904Y20846
X40404Y17254
X40404Y20846
X92220Y172702
X92220Y176294
X88628Y176294
X36812Y20846
X66312Y17254
X66312Y20846
X62720Y20846
X92220Y17254
X118128Y172702
X118128Y176294
T4
X118872Y58166
X12700Y60706
X12700Y58166
X15240Y60706
X15240Y58166
X15240Y109982
X15240Y112522
X12700Y109982
X12700Y112522
X10160Y109982
X10160Y112522
X113792Y34798
X87884Y60706
X87884Y58166
X90424Y60706
X113792Y32258
X116332Y34798
X116332Y32258
X118872Y34798
X41148Y109982
X41148Y112522
X38608Y109982
X38608Y112522
X36068Y109982
X36068Y112522
X118872Y32258
X41148Y84074
X41148Y86614
X38608Y84074
X87884Y34798
X87884Y32258
X90424Y34798
X90424Y32258
X67056Y109982
X67056Y112522
X64516Y109982
X64516Y112522
X61976Y109982
X61976Y112522
X92964Y34798
X38608Y86614
X36068Y84074
X92964Y32258
X61976Y34798
X61976Y32258
X64516Y34798
X92964Y109982
X92964Y112522
X90424Y109982
X90424Y112522
X87884Y109982
X87884Y112522
X64516Y32258
X36068Y86614
X90424Y58166
X116332Y58166
X67056Y34798
X67056Y32258
X36068Y34798
X36068Y32258
X118872Y109982
X118872Y112522
X116332Y109982
X116332Y112522
X113792Y109982
X113792Y112522
X38608Y34798
X15240Y84074
X15240Y86614
X92964Y60706
X38608Y32258
X41148Y34798
X41148Y32258
X10160Y34798
X15240Y135890
X15240Y138430
X12700Y135890
X12700Y138430
X10160Y135890
X10160Y138430
X10160Y32258
X92964Y58166
X61976Y60706
X61976Y58166
X12700Y34798
X12700Y32258
X15240Y34798
X15240Y32258
X41148Y135890
X41148Y138430
X38608Y135890
X38608Y138430
X36068Y135890
X36068Y138430
X113792Y8890
X67056Y84074
X67056Y86614
X64516Y84074
X113792Y6350
X116332Y8890
X116332Y6350
X118872Y8890
X67056Y135890
X67056Y138430
X64516Y135890
X64516Y138430
X61976Y135890
X61976Y138430
X118872Y6350
X64516Y86614
X61976Y84074
X61976Y86614
X87884Y8890
X87884Y6350
X90424Y8890
X90424Y6350
X92964Y135890
X92964Y138430
X90424Y135890
X90424Y138430
X87884Y135890
X87884Y138430
X92964Y8890
X64516Y60706
X12700Y84074
X12700Y86614
X92964Y6350
X61976Y8890
X61976Y6350
X64516Y8890
X118872Y135890
X118872Y138430
X116332Y135890
X116332Y138430
X113792Y135890
X113792Y138430
X64516Y6350
X10160Y84074
X64516Y58166
X67056Y60706
X67056Y8890
X67056Y6350
X36068Y8890
X36068Y6350
X15240Y161798
X15240Y164338
X12700Y161798
X12700Y164338
X10160Y161798
X10160Y164338
X38608Y8890
X67056Y58166
X36068Y60706
X92964Y84074
X38608Y6350
X41148Y8890
X41148Y6350
X10160Y8890
X41148Y161798
X41148Y164338
X38608Y161798
X38608Y164338
X36068Y161798
X36068Y164338
X10160Y6350
X92964Y86614
X90424Y84074
X90424Y86614
X12700Y8890
X12700Y6350
X15240Y8890
X15240Y6350
X67056Y161798
X67056Y164338
X64516Y161798
X64516Y164338
X61976Y161798
X61976Y164338
X87884Y84074
X87884Y86614
X36068Y58166
X10160Y86614
X118872Y60706
X113792Y60706
X38608Y60706
X38608Y58166
X92964Y161798
X92964Y164338
X90424Y161798
X90424Y164338
X87884Y161798
X87884Y164338
X41148Y60706
X41148Y58166
X118872Y84074
X118872Y86614
X116332Y84074
X116332Y86614
X113792Y84074
X113792Y86614
X118872Y161798
X118872Y164338
X116332Y161798
X116332Y164338
X113792Y161798
X113792Y164338
X10160Y58166
X113792Y58166
X116332Y60706
X10160Y60706
T5
X122047Y114935
X122174Y116776
X122174Y117832
X111633Y114808
X122276Y107390
X120650Y112077
X127444Y108013
X127381Y110045
X118237Y115125
X109601Y113157
X115062Y112712
X127698Y106108
X117578Y110096
X117856Y112522
X116719Y115667
X21146Y139764
X17717Y135128
X5778Y151829
X5778Y145352
X19558Y132969
X6096Y133858
X24130Y147320
X8001Y138938
X18415Y140843
X18542Y142685
X18542Y143740
X8001Y140716
X18644Y133298
X17018Y137986
X23812Y133922
X23749Y135954
X14605Y141034
X5969Y139065
X11430Y138621
X24066Y132017
X13946Y136004
X14224Y138430
X13087Y141575
X47053Y139764
X43625Y135128
X31686Y151829
X31686Y145352
X45466Y132969
X32004Y133858
X50038Y147320
X33909Y138938
X44323Y140843
X44450Y142685
X44450Y143740
X33909Y140716
X44552Y133298
X42926Y137986
X49720Y133922
X49657Y135954
X40513Y141034
X31877Y139065
X37338Y138621
X49974Y132017
X39854Y136004
X40132Y138430
X38995Y141575
X72962Y139764
X69533Y135128
X57594Y151829
X57594Y145352
X71374Y132969
X57912Y133858
X75946Y147320
X59817Y138938
X70231Y140843
X70358Y142685
X70358Y143740
X59817Y140716
X70460Y133298
X68834Y137986
X75629Y133922
X75565Y135954
X66421Y141034
X57785Y139065
X63246Y138621
X75883Y132017
X65762Y136004
X66040Y138430
X64903Y141575
X98869Y139764
X95440Y135128
X83503Y151829
X83503Y145352
X97282Y132969
X83820Y133858
X101854Y147320
X85725Y138938
X96139Y140843
X96266Y142685
X96266Y143740
X85725Y140716
X96368Y133298
X94742Y137986
X101536Y133922
X101473Y135954
X92329Y141034
X83693Y139065
X89154Y138621
X101790Y132017
X91670Y136004
X91948Y138430
X90811Y141575
X124777Y139764
X121348Y135128
X109410Y151829
X109410Y145352
X123190Y132969
X109728Y133858
X127762Y147320
X111633Y138938
X122047Y140843
X122174Y142685
X122174Y143740
X111633Y140716
X122276Y133298
X120650Y137986
X127444Y133922
X70358Y39053
X118237Y141034
X109601Y139065
X115062Y138621
X127698Y132017
X117578Y136004
X117856Y138430
X116719Y141575
X21146Y165672
X17717Y161036
X5778Y177736
X5778Y171260
X19558Y158877
X6096Y159766
X24130Y173228
X8001Y164846
X18415Y166751
X18542Y168593
X18542Y169648
X8001Y166624
X18644Y159206
X17018Y163894
X23812Y159830
X23749Y161862
X14605Y166942
X5969Y164973
X11430Y164529
X24066Y157925
X13946Y161912
X14224Y164338
X13087Y167483
X47053Y165672
X43625Y161036
X31686Y177736
X31686Y171260
X45466Y158877
X32004Y159766
X50038Y173228
X33909Y164846
X44323Y166751
X44450Y168593
X44450Y169648
X33909Y166624
X44552Y159206
X42926Y163894
X49720Y159830
X49657Y161862
X40513Y166942
X31877Y164973
X37338Y164529
X49974Y157925
X39854Y161912
X40132Y164338
X38995Y167483
X72962Y165672
X69533Y161036
X57594Y177736
X57594Y171260
X71374Y158877
X57912Y159766
X75946Y173228
X59817Y164846
X70231Y166751
X70358Y168593
X70358Y169648
X59817Y166624
X70460Y159206
X68834Y163894
X75629Y159830
X75565Y161862
X66421Y166942
X57785Y164973
X63246Y164529
X75883Y157925
X65762Y161912
X66040Y164338
X64903Y167483
X98869Y165672
X95440Y161036
X83503Y177736
X83503Y171260
X97282Y158877
X83820Y159766
X101854Y173228
X85725Y164846
X96139Y166751
X96266Y168593
X96266Y169648
X85725Y166624
X96368Y159206
X94742Y163894
X101536Y159830
X101473Y161862
X92329Y166942
X83693Y164973
X89154Y164529
X101790Y157925
X91670Y161912
X91948Y164338
X90811Y167483
X124777Y165672
X121348Y161036
X109410Y177736
X109410Y171260
X123190Y158877
X109728Y159766
X127762Y173228
X111633Y164846
X122047Y166751
X122174Y168593
X122174Y169648
X111633Y166624
X122276Y159206
X120650Y163894
X127444Y159830
X127381Y161862
X118237Y166942
X109601Y164973
X115062Y164529
X127698Y157925
X117578Y161912
X117856Y164338
X116719Y167483
X21146Y10224
X17717Y5588
X5778Y22288
X5778Y15811
X19558Y3429
X6096Y4318
X24130Y17780
X8001Y9398
X18415Y11303
X18542Y13144
X18542Y14200
X8001Y11176
X18644Y3758
X17018Y8446
X23812Y4382
X23749Y6413
X14605Y11493
X5969Y9525
X11430Y9081
X24066Y2477
X13946Y6464
X14224Y8890
X13087Y12035
X47053Y10224
X43625Y5588
X31686Y22288
X31686Y15811
X45466Y3429
X32004Y4318
X50038Y17780
X33909Y9398
X44323Y11303
X44450Y13144
X44450Y14200
X33909Y11176
X44552Y3758
X42926Y8446
X49720Y4382
X49657Y6413
X40513Y11493
X31877Y9525
X37338Y9081
X49974Y2477
X39854Y6464
X40132Y8890
X38995Y12035
X72962Y10224
X127381Y135954
X69533Y5588
X57594Y22288
X57594Y15811
X71374Y3429
X57912Y4318
X75946Y17780
X59817Y9398
X70231Y11303
X70358Y13144
X70358Y14200
X59817Y11176
X70460Y3758
X68834Y8446
X75629Y4382
X75565Y6413
X66421Y11493
X57785Y9525
X63246Y9081
X75883Y2477
X65762Y6464
X66040Y8890
X64903Y12035
X98869Y10224
X95440Y5588
X83503Y22288
X83503Y15811
X97282Y3429
X83820Y4318
X101854Y17780
X85725Y9398
X96139Y11303
X96266Y13144
X96266Y14200
X85725Y11176
X96368Y3758
X94742Y8446
X101536Y4382
X101473Y6413
X92329Y11493
X83693Y9525
X89154Y9081
X101790Y2477
X91670Y6464
X91948Y8890
X90811Y12035
X124777Y10224
X121348Y5588
X109410Y22288
X109410Y15811
X123190Y3429
X109728Y4318
X127762Y17780
X111633Y9398
X122047Y11303
X122174Y13144
X122174Y14200
X111633Y11176
X122276Y3758
X120650Y8446
X127444Y4382
X127381Y6413
X118237Y11493
X109601Y9525
X115062Y9081
X127698Y2477
X117578Y6464
X117856Y8890
X116719Y12035
X21146Y36132
X17717Y31496
X5778Y48196
X5778Y41720
X19558Y29337
X6096Y30226
X24130Y43688
X8001Y35306
X18415Y37211
X18542Y39053
X18542Y40108
X8001Y37084
X18644Y29666
X17018Y34354
X23812Y30289
X23749Y32321
X14605Y37402
X5969Y35433
X11430Y34989
X24066Y28384
X13946Y32372
X14224Y34798
X13087Y37943
X47053Y36132
X43625Y31496
X31686Y48196
X31686Y41720
X45466Y29337
X32004Y30226
X50038Y43688
X33909Y35306
X44323Y37211
X44450Y39053
X44450Y40108
X33909Y37084
X44552Y29666
X42926Y34354
X49720Y30289
X49657Y32321
X40513Y37402
X31877Y35433
X37338Y34989
X49974Y28384
X39854Y32372
X40132Y34798
X38995Y37943
X72962Y36132
X69533Y31496
X57594Y48196
X57594Y41720
X71374Y29337
X57912Y30226
X75946Y43688
X59817Y35306
X70231Y37211
X70358Y40108
X59817Y37084
X70460Y29666
X68834Y34354
X75629Y30289
X75565Y32321
X66421Y37402
X57785Y35433
X63246Y34989
X75883Y28384
X65762Y32372
X66040Y34798
X64903Y37943
X98869Y36132
X95440Y31496
X83503Y48196
X83503Y41720
X97282Y29337
X83820Y30226
X101854Y43688
X85725Y35306
X96139Y37211
X96266Y39053
X96266Y40108
X85725Y37084
X96368Y29666
X94742Y34354
X101536Y30289
X101473Y32321
X92329Y37402
X83693Y35433
X89154Y34989
X101790Y28384
X91670Y32372
X91948Y34798
X90811Y37943
X124777Y36132
X121348Y31496
X109410Y48196
X109410Y41720
X123190Y29337
X109728Y30226
X127762Y43688
X111633Y35306
X122047Y37211
X122174Y39053
X122174Y40108
X111633Y37084
X122276Y29666
X120650Y34354
X127444Y30289
X127381Y32321
X118237Y37402
X109601Y35433
X115062Y34989
X127698Y28384
X117578Y32372
X117856Y34798
X116719Y37943
X21146Y62039
X17717Y57404
X5778Y74105
X5778Y67628
X19558Y55245
X6096Y56134
X24130Y69596
X8001Y61214
X18415Y63119
X18542Y64960
X18542Y66016
X8001Y62992
X18644Y55574
X17018Y60261
X23812Y56197
X23749Y58229
X14605Y63309
X5969Y61341
X11430Y60896
X24066Y54292
X13946Y58280
X14224Y60706
X13087Y63851
X47053Y62039
X43625Y57404
X31686Y74105
X31686Y67628
X45466Y55245
X32004Y56134
X50038Y69596
X33909Y61214
X44323Y63119
X44450Y64960
X44450Y66016
X33909Y62992
X44552Y55574
X42926Y60261
X49720Y56197
X49657Y58229
X40513Y63309
X31877Y61341
X37338Y60896
X49974Y54292
X39854Y58280
X40132Y60706
X38995Y63851
X72962Y62039
X69533Y57404
X57594Y74105
X57594Y67628
X71374Y55245
X57912Y56134
X75946Y69596
X59817Y61214
X70231Y63119
X70358Y64960
X70358Y66016
X59817Y62992
X70460Y55574
X68834Y60261
X75629Y56197
X75565Y58229
X66421Y63309
X57785Y61341
X63246Y60896
X75883Y54292
X65762Y58280
X66040Y60706
X64903Y63851
X98869Y62039
X95440Y57404
X83503Y74105
X83503Y67628
X97282Y55245
X83820Y56134
X101854Y69596
X85725Y61214
X96139Y63119
X96266Y64960
X96266Y66016
X85725Y62992
X96368Y55574
X94742Y60261
X101536Y56197
X101473Y58229
X92329Y63309
X83693Y61341
X89154Y60896
X101790Y54292
X91670Y58280
X91948Y60706
X90811Y63851
X124777Y62039
X121348Y57404
X109410Y74105
X109410Y67628
X123190Y55245
X109728Y56134
X127762Y69596
X111633Y61214
X122047Y63119
X122174Y64960
X122174Y66016
X111633Y62992
X122276Y55574
X120650Y60261
X127444Y56197
X127381Y58229
X118237Y63309
X109601Y61341
X115062Y60896
X127698Y54292
X117578Y58280
X117856Y60706
X116719Y63851
X21146Y87947
X17717Y83312
X5778Y100012
X5778Y93535
X19558Y81153
X6096Y82042
X24130Y95504
X8001Y87122
X18415Y89027
X18542Y90868
X18542Y91924
X8001Y88900
X18644Y81482
X17018Y86170
X23812Y82106
X23749Y84138
X14605Y89217
X5969Y87249
X11430Y86805
X24066Y80201
X13946Y84188
X14224Y86614
X13087Y89759
X47053Y87947
X43625Y83312
X31686Y100012
X31686Y93535
X45466Y81153
X32004Y82042
X50038Y95504
X33909Y87122
X44323Y89027
X44450Y90868
X44450Y91924
X33909Y88900
X44552Y81482
X42926Y86170
X49720Y82106
X49657Y84138
X40513Y89217
X31877Y87249
X37338Y86805
X49974Y80201
X39854Y84188
X75946Y121412
X40132Y86614
X38995Y89759
X72962Y87947
X69533Y83312
X57594Y100012
X57594Y93535
X71374Y81153
X57912Y82042
X75946Y95504
X59817Y87122
X70231Y89027
X70358Y90868
X70358Y91924
X59817Y88900
X70460Y81482
X68834Y86170
X75629Y82106
X75565Y84138
X66421Y89217
X57785Y87249
X63246Y86805
X75883Y80201
X65762Y84188
X66040Y86614
X64903Y89759
X98869Y87947
X95440Y83312
X83503Y100012
X83503Y93535
X97282Y81153
X83820Y82042
X101854Y95504
X85725Y87122
X96139Y89027
X96266Y90868
X96266Y91924
X85725Y88900
X96368Y81482
X94742Y86170
X101536Y82106
X101473Y84138
X92329Y89217
X83693Y87249
X89154Y86805
X101790Y80201
X91670Y84188
X91948Y86614
X90811Y89759
X124777Y87947
X121348Y83312
X109410Y100012
X109410Y93535
X123190Y81153
X109728Y82042
X127762Y95504
X111633Y87122
X122047Y89027
X122174Y90868
X122174Y91924
X111633Y88900
X122276Y81482
X120650Y86170
X127444Y82106
X127381Y84138
X118237Y89217
X109601Y87249
X115062Y86805
X127698Y80201
X117578Y84188
X117856Y86614
X116719Y89759
X21146Y113855
X17717Y109220
X5778Y125920
X5778Y119443
X19558Y107061
X6096Y107950
X24130Y121412
X8001Y113030
X18415Y114935
X18542Y116776
X18542Y117832
X8001Y114808
X18644Y107390
X17018Y112077
X23812Y108013
X23749Y110045
X14605Y115125
X5969Y113157
X11430Y112712
X24066Y106108
X13946Y110096
X14224Y112522
X13087Y115667
X47053Y113855
X43625Y109220
X31686Y125920
X31686Y119443
X45466Y107061
X32004Y107950
X50038Y121412
X33909Y113030
X44323Y114935
X44450Y116776
X44450Y117832
X33909Y114808
X44552Y107390
X42926Y112077
X49720Y108013
X49657Y110045
X40513Y115125
X31877Y113157
X37338Y112712
X49974Y106108
X39854Y110096
X40132Y112522
X38995Y115667
X72962Y113855
X69533Y109220
X57594Y125920
X57594Y119443
X71374Y107061
X57912Y107950
X59817Y113030
X70231Y114935
X70358Y116776
X70358Y117832
X59817Y114808
X70460Y107390
X68834Y112077
X75629Y108013
X75565Y110045
X66421Y115125
X57785Y113157
X63246Y112712
X75883Y106108
X65762Y110096
X66040Y112522
X64903Y115667
X98869Y113855
X95440Y109220
X83503Y125920
X83503Y119443
X97282Y107061
X83820Y107950
X101854Y121412
X85725Y113030
X96139Y114935
X96266Y116776
X96266Y117832
X85725Y114808
X96368Y107390
X94742Y112077
X101536Y108013
X101473Y110045
X92329Y115125
X83693Y113157
X89154Y112712
X101790Y106108
X91670Y110096
X91948Y112522
X90811Y115667
X124777Y113855
X121348Y109220
X109410Y125920
X109410Y119443
X123190Y107061
X109728Y107950
X127762Y121412
X111633Y113030
M30