G04 EAGLE Gerber RS-274X export*
G75*
%MOMM*%
%FSLAX34Y34*%
%LPD*%
%INSoldermask Top*%
%IPPOS*%
%AMOC8*
5,1,8,0,0,1.08239X$1,22.5*%
G01*
%ADD10R,1.079500X1.079500*%
%ADD11R,2.203200X1.403200*%
%ADD12R,1.553200X0.803200*%
%ADD13C,0.838200*%
%ADD14C,2.082800*%
%ADD15R,1.203200X1.303200*%
%ADD16R,1.303200X1.203200*%
%ADD17R,0.803200X1.403200*%
%ADD18C,0.505344*%
%ADD19C,3.505200*%
%ADD20R,1.473200X0.863600*%
%ADD21C,1.203200*%
%ADD22C,1.270000*%
%ADD23C,1.703200*%

G36*
X1076390Y1311287D02*
X1076390Y1311287D01*
X1076456Y1311289D01*
X1076499Y1311307D01*
X1076546Y1311315D01*
X1076603Y1311349D01*
X1076663Y1311374D01*
X1076698Y1311405D01*
X1076739Y1311430D01*
X1076781Y1311481D01*
X1076829Y1311525D01*
X1076851Y1311567D01*
X1076880Y1311604D01*
X1076901Y1311666D01*
X1076932Y1311725D01*
X1076940Y1311779D01*
X1076952Y1311816D01*
X1076951Y1311856D01*
X1076959Y1311910D01*
X1076959Y1315720D01*
X1076948Y1315785D01*
X1076946Y1315851D01*
X1076928Y1315894D01*
X1076920Y1315941D01*
X1076886Y1315998D01*
X1076861Y1316058D01*
X1076830Y1316093D01*
X1076805Y1316134D01*
X1076754Y1316176D01*
X1076710Y1316224D01*
X1076668Y1316246D01*
X1076631Y1316275D01*
X1076569Y1316296D01*
X1076510Y1316327D01*
X1076456Y1316335D01*
X1076419Y1316347D01*
X1076379Y1316346D01*
X1076325Y1316354D01*
X1073785Y1316354D01*
X1073720Y1316343D01*
X1073654Y1316341D01*
X1073611Y1316323D01*
X1073564Y1316315D01*
X1073507Y1316281D01*
X1073447Y1316256D01*
X1073412Y1316225D01*
X1073371Y1316200D01*
X1073330Y1316149D01*
X1073281Y1316105D01*
X1073259Y1316063D01*
X1073230Y1316026D01*
X1073209Y1315964D01*
X1073178Y1315905D01*
X1073170Y1315851D01*
X1073158Y1315814D01*
X1073158Y1315810D01*
X1073158Y1315809D01*
X1073159Y1315774D01*
X1073151Y1315720D01*
X1073151Y1311910D01*
X1073162Y1311845D01*
X1073164Y1311779D01*
X1073182Y1311736D01*
X1073190Y1311689D01*
X1073224Y1311632D01*
X1073249Y1311572D01*
X1073280Y1311537D01*
X1073305Y1311496D01*
X1073356Y1311455D01*
X1073400Y1311406D01*
X1073442Y1311384D01*
X1073479Y1311355D01*
X1073541Y1311334D01*
X1073600Y1311303D01*
X1073654Y1311295D01*
X1073691Y1311283D01*
X1073731Y1311284D01*
X1073785Y1311276D01*
X1076325Y1311276D01*
X1076390Y1311287D01*
G37*
G36*
X299150Y1311287D02*
X299150Y1311287D01*
X299216Y1311289D01*
X299259Y1311307D01*
X299306Y1311315D01*
X299363Y1311349D01*
X299423Y1311374D01*
X299458Y1311405D01*
X299499Y1311430D01*
X299541Y1311481D01*
X299589Y1311525D01*
X299611Y1311567D01*
X299640Y1311604D01*
X299661Y1311666D01*
X299692Y1311725D01*
X299700Y1311779D01*
X299712Y1311816D01*
X299711Y1311856D01*
X299719Y1311910D01*
X299719Y1315720D01*
X299708Y1315785D01*
X299706Y1315851D01*
X299688Y1315894D01*
X299680Y1315941D01*
X299646Y1315998D01*
X299621Y1316058D01*
X299590Y1316093D01*
X299565Y1316134D01*
X299514Y1316176D01*
X299470Y1316224D01*
X299428Y1316246D01*
X299391Y1316275D01*
X299329Y1316296D01*
X299270Y1316327D01*
X299216Y1316335D01*
X299179Y1316347D01*
X299139Y1316346D01*
X299085Y1316354D01*
X296545Y1316354D01*
X296480Y1316343D01*
X296414Y1316341D01*
X296371Y1316323D01*
X296324Y1316315D01*
X296267Y1316281D01*
X296207Y1316256D01*
X296172Y1316225D01*
X296131Y1316200D01*
X296090Y1316149D01*
X296041Y1316105D01*
X296019Y1316063D01*
X295990Y1316026D01*
X295969Y1315964D01*
X295938Y1315905D01*
X295930Y1315851D01*
X295918Y1315814D01*
X295918Y1315810D01*
X295918Y1315809D01*
X295919Y1315774D01*
X295911Y1315720D01*
X295911Y1311910D01*
X295922Y1311845D01*
X295924Y1311779D01*
X295942Y1311736D01*
X295950Y1311689D01*
X295984Y1311632D01*
X296009Y1311572D01*
X296040Y1311537D01*
X296065Y1311496D01*
X296116Y1311455D01*
X296160Y1311406D01*
X296202Y1311384D01*
X296239Y1311355D01*
X296301Y1311334D01*
X296360Y1311303D01*
X296414Y1311295D01*
X296451Y1311283D01*
X296491Y1311284D01*
X296545Y1311276D01*
X299085Y1311276D01*
X299150Y1311287D01*
G37*
G36*
X817310Y1311287D02*
X817310Y1311287D01*
X817376Y1311289D01*
X817419Y1311307D01*
X817466Y1311315D01*
X817523Y1311349D01*
X817583Y1311374D01*
X817618Y1311405D01*
X817659Y1311430D01*
X817701Y1311481D01*
X817749Y1311525D01*
X817771Y1311567D01*
X817800Y1311604D01*
X817821Y1311666D01*
X817852Y1311725D01*
X817860Y1311779D01*
X817872Y1311816D01*
X817871Y1311856D01*
X817879Y1311910D01*
X817879Y1315720D01*
X817868Y1315785D01*
X817866Y1315851D01*
X817848Y1315894D01*
X817840Y1315941D01*
X817806Y1315998D01*
X817781Y1316058D01*
X817750Y1316093D01*
X817725Y1316134D01*
X817674Y1316176D01*
X817630Y1316224D01*
X817588Y1316246D01*
X817551Y1316275D01*
X817489Y1316296D01*
X817430Y1316327D01*
X817376Y1316335D01*
X817339Y1316347D01*
X817299Y1316346D01*
X817245Y1316354D01*
X814705Y1316354D01*
X814640Y1316343D01*
X814574Y1316341D01*
X814531Y1316323D01*
X814484Y1316315D01*
X814427Y1316281D01*
X814367Y1316256D01*
X814332Y1316225D01*
X814291Y1316200D01*
X814250Y1316149D01*
X814201Y1316105D01*
X814179Y1316063D01*
X814150Y1316026D01*
X814129Y1315964D01*
X814098Y1315905D01*
X814090Y1315851D01*
X814078Y1315814D01*
X814078Y1315810D01*
X814078Y1315809D01*
X814079Y1315774D01*
X814071Y1315720D01*
X814071Y1311910D01*
X814082Y1311845D01*
X814084Y1311779D01*
X814102Y1311736D01*
X814110Y1311689D01*
X814144Y1311632D01*
X814169Y1311572D01*
X814200Y1311537D01*
X814225Y1311496D01*
X814276Y1311455D01*
X814320Y1311406D01*
X814362Y1311384D01*
X814399Y1311355D01*
X814461Y1311334D01*
X814520Y1311303D01*
X814574Y1311295D01*
X814611Y1311283D01*
X814651Y1311284D01*
X814705Y1311276D01*
X817245Y1311276D01*
X817310Y1311287D01*
G37*
G36*
X558230Y1311287D02*
X558230Y1311287D01*
X558296Y1311289D01*
X558339Y1311307D01*
X558386Y1311315D01*
X558443Y1311349D01*
X558503Y1311374D01*
X558538Y1311405D01*
X558579Y1311430D01*
X558621Y1311481D01*
X558669Y1311525D01*
X558691Y1311567D01*
X558720Y1311604D01*
X558741Y1311666D01*
X558772Y1311725D01*
X558780Y1311779D01*
X558792Y1311816D01*
X558791Y1311856D01*
X558799Y1311910D01*
X558799Y1315720D01*
X558788Y1315785D01*
X558786Y1315851D01*
X558768Y1315894D01*
X558760Y1315941D01*
X558726Y1315998D01*
X558701Y1316058D01*
X558670Y1316093D01*
X558645Y1316134D01*
X558594Y1316176D01*
X558550Y1316224D01*
X558508Y1316246D01*
X558471Y1316275D01*
X558409Y1316296D01*
X558350Y1316327D01*
X558296Y1316335D01*
X558259Y1316347D01*
X558219Y1316346D01*
X558165Y1316354D01*
X555625Y1316354D01*
X555560Y1316343D01*
X555494Y1316341D01*
X555451Y1316323D01*
X555404Y1316315D01*
X555347Y1316281D01*
X555287Y1316256D01*
X555252Y1316225D01*
X555211Y1316200D01*
X555170Y1316149D01*
X555121Y1316105D01*
X555099Y1316063D01*
X555070Y1316026D01*
X555049Y1315964D01*
X555018Y1315905D01*
X555010Y1315851D01*
X554998Y1315814D01*
X554998Y1315810D01*
X554998Y1315809D01*
X554999Y1315774D01*
X554991Y1315720D01*
X554991Y1311910D01*
X555002Y1311845D01*
X555004Y1311779D01*
X555022Y1311736D01*
X555030Y1311689D01*
X555064Y1311632D01*
X555089Y1311572D01*
X555120Y1311537D01*
X555145Y1311496D01*
X555196Y1311455D01*
X555240Y1311406D01*
X555282Y1311384D01*
X555319Y1311355D01*
X555381Y1311334D01*
X555440Y1311303D01*
X555494Y1311295D01*
X555531Y1311283D01*
X555571Y1311284D01*
X555625Y1311276D01*
X558165Y1311276D01*
X558230Y1311287D01*
G37*
G36*
X40070Y1311287D02*
X40070Y1311287D01*
X40136Y1311289D01*
X40179Y1311307D01*
X40226Y1311315D01*
X40283Y1311349D01*
X40343Y1311374D01*
X40378Y1311405D01*
X40419Y1311430D01*
X40461Y1311481D01*
X40509Y1311525D01*
X40531Y1311567D01*
X40560Y1311604D01*
X40581Y1311666D01*
X40612Y1311725D01*
X40620Y1311779D01*
X40632Y1311816D01*
X40631Y1311856D01*
X40639Y1311910D01*
X40639Y1315720D01*
X40628Y1315785D01*
X40626Y1315851D01*
X40608Y1315894D01*
X40600Y1315941D01*
X40566Y1315998D01*
X40541Y1316058D01*
X40510Y1316093D01*
X40485Y1316134D01*
X40434Y1316176D01*
X40390Y1316224D01*
X40348Y1316246D01*
X40311Y1316275D01*
X40249Y1316296D01*
X40190Y1316327D01*
X40136Y1316335D01*
X40099Y1316347D01*
X40059Y1316346D01*
X40005Y1316354D01*
X37465Y1316354D01*
X37400Y1316343D01*
X37334Y1316341D01*
X37291Y1316323D01*
X37244Y1316315D01*
X37187Y1316281D01*
X37127Y1316256D01*
X37092Y1316225D01*
X37051Y1316200D01*
X37010Y1316149D01*
X36961Y1316105D01*
X36939Y1316063D01*
X36910Y1316026D01*
X36889Y1315964D01*
X36858Y1315905D01*
X36850Y1315851D01*
X36838Y1315814D01*
X36838Y1315810D01*
X36838Y1315809D01*
X36839Y1315774D01*
X36831Y1315720D01*
X36831Y1311910D01*
X36842Y1311845D01*
X36844Y1311779D01*
X36862Y1311736D01*
X36870Y1311689D01*
X36904Y1311632D01*
X36929Y1311572D01*
X36960Y1311537D01*
X36985Y1311496D01*
X37036Y1311455D01*
X37080Y1311406D01*
X37122Y1311384D01*
X37159Y1311355D01*
X37221Y1311334D01*
X37280Y1311303D01*
X37334Y1311295D01*
X37371Y1311283D01*
X37411Y1311284D01*
X37465Y1311276D01*
X40005Y1311276D01*
X40070Y1311287D01*
G37*
G36*
X40070Y1570367D02*
X40070Y1570367D01*
X40136Y1570369D01*
X40179Y1570387D01*
X40226Y1570395D01*
X40283Y1570429D01*
X40343Y1570454D01*
X40378Y1570485D01*
X40419Y1570510D01*
X40461Y1570561D01*
X40509Y1570605D01*
X40531Y1570647D01*
X40560Y1570684D01*
X40581Y1570746D01*
X40612Y1570805D01*
X40620Y1570859D01*
X40632Y1570896D01*
X40631Y1570936D01*
X40639Y1570990D01*
X40639Y1574800D01*
X40628Y1574865D01*
X40626Y1574931D01*
X40608Y1574974D01*
X40600Y1575021D01*
X40566Y1575078D01*
X40541Y1575138D01*
X40510Y1575173D01*
X40485Y1575214D01*
X40434Y1575256D01*
X40390Y1575304D01*
X40348Y1575326D01*
X40311Y1575355D01*
X40249Y1575376D01*
X40190Y1575407D01*
X40136Y1575415D01*
X40099Y1575427D01*
X40059Y1575426D01*
X40005Y1575434D01*
X37465Y1575434D01*
X37400Y1575423D01*
X37334Y1575421D01*
X37291Y1575403D01*
X37244Y1575395D01*
X37187Y1575361D01*
X37127Y1575336D01*
X37092Y1575305D01*
X37051Y1575280D01*
X37010Y1575229D01*
X36961Y1575185D01*
X36939Y1575143D01*
X36910Y1575106D01*
X36889Y1575044D01*
X36858Y1574985D01*
X36850Y1574931D01*
X36838Y1574894D01*
X36838Y1574890D01*
X36838Y1574889D01*
X36839Y1574854D01*
X36831Y1574800D01*
X36831Y1570990D01*
X36842Y1570925D01*
X36844Y1570859D01*
X36862Y1570816D01*
X36870Y1570769D01*
X36904Y1570712D01*
X36929Y1570652D01*
X36960Y1570617D01*
X36985Y1570576D01*
X37036Y1570535D01*
X37080Y1570486D01*
X37122Y1570464D01*
X37159Y1570435D01*
X37221Y1570414D01*
X37280Y1570383D01*
X37334Y1570375D01*
X37371Y1570363D01*
X37411Y1570364D01*
X37465Y1570356D01*
X40005Y1570356D01*
X40070Y1570367D01*
G37*
G36*
X817310Y1570367D02*
X817310Y1570367D01*
X817376Y1570369D01*
X817419Y1570387D01*
X817466Y1570395D01*
X817523Y1570429D01*
X817583Y1570454D01*
X817618Y1570485D01*
X817659Y1570510D01*
X817701Y1570561D01*
X817749Y1570605D01*
X817771Y1570647D01*
X817800Y1570684D01*
X817821Y1570746D01*
X817852Y1570805D01*
X817860Y1570859D01*
X817872Y1570896D01*
X817871Y1570936D01*
X817879Y1570990D01*
X817879Y1574800D01*
X817868Y1574865D01*
X817866Y1574931D01*
X817848Y1574974D01*
X817840Y1575021D01*
X817806Y1575078D01*
X817781Y1575138D01*
X817750Y1575173D01*
X817725Y1575214D01*
X817674Y1575256D01*
X817630Y1575304D01*
X817588Y1575326D01*
X817551Y1575355D01*
X817489Y1575376D01*
X817430Y1575407D01*
X817376Y1575415D01*
X817339Y1575427D01*
X817299Y1575426D01*
X817245Y1575434D01*
X814705Y1575434D01*
X814640Y1575423D01*
X814574Y1575421D01*
X814531Y1575403D01*
X814484Y1575395D01*
X814427Y1575361D01*
X814367Y1575336D01*
X814332Y1575305D01*
X814291Y1575280D01*
X814250Y1575229D01*
X814201Y1575185D01*
X814179Y1575143D01*
X814150Y1575106D01*
X814129Y1575044D01*
X814098Y1574985D01*
X814090Y1574931D01*
X814078Y1574894D01*
X814078Y1574890D01*
X814078Y1574889D01*
X814079Y1574854D01*
X814071Y1574800D01*
X814071Y1570990D01*
X814082Y1570925D01*
X814084Y1570859D01*
X814102Y1570816D01*
X814110Y1570769D01*
X814144Y1570712D01*
X814169Y1570652D01*
X814200Y1570617D01*
X814225Y1570576D01*
X814276Y1570535D01*
X814320Y1570486D01*
X814362Y1570464D01*
X814399Y1570435D01*
X814461Y1570414D01*
X814520Y1570383D01*
X814574Y1570375D01*
X814611Y1570363D01*
X814651Y1570364D01*
X814705Y1570356D01*
X817245Y1570356D01*
X817310Y1570367D01*
G37*
G36*
X558230Y1570367D02*
X558230Y1570367D01*
X558296Y1570369D01*
X558339Y1570387D01*
X558386Y1570395D01*
X558443Y1570429D01*
X558503Y1570454D01*
X558538Y1570485D01*
X558579Y1570510D01*
X558621Y1570561D01*
X558669Y1570605D01*
X558691Y1570647D01*
X558720Y1570684D01*
X558741Y1570746D01*
X558772Y1570805D01*
X558780Y1570859D01*
X558792Y1570896D01*
X558791Y1570936D01*
X558799Y1570990D01*
X558799Y1574800D01*
X558788Y1574865D01*
X558786Y1574931D01*
X558768Y1574974D01*
X558760Y1575021D01*
X558726Y1575078D01*
X558701Y1575138D01*
X558670Y1575173D01*
X558645Y1575214D01*
X558594Y1575256D01*
X558550Y1575304D01*
X558508Y1575326D01*
X558471Y1575355D01*
X558409Y1575376D01*
X558350Y1575407D01*
X558296Y1575415D01*
X558259Y1575427D01*
X558219Y1575426D01*
X558165Y1575434D01*
X555625Y1575434D01*
X555560Y1575423D01*
X555494Y1575421D01*
X555451Y1575403D01*
X555404Y1575395D01*
X555347Y1575361D01*
X555287Y1575336D01*
X555252Y1575305D01*
X555211Y1575280D01*
X555170Y1575229D01*
X555121Y1575185D01*
X555099Y1575143D01*
X555070Y1575106D01*
X555049Y1575044D01*
X555018Y1574985D01*
X555010Y1574931D01*
X554998Y1574894D01*
X554998Y1574890D01*
X554998Y1574889D01*
X554999Y1574854D01*
X554991Y1574800D01*
X554991Y1570990D01*
X555002Y1570925D01*
X555004Y1570859D01*
X555022Y1570816D01*
X555030Y1570769D01*
X555064Y1570712D01*
X555089Y1570652D01*
X555120Y1570617D01*
X555145Y1570576D01*
X555196Y1570535D01*
X555240Y1570486D01*
X555282Y1570464D01*
X555319Y1570435D01*
X555381Y1570414D01*
X555440Y1570383D01*
X555494Y1570375D01*
X555531Y1570363D01*
X555571Y1570364D01*
X555625Y1570356D01*
X558165Y1570356D01*
X558230Y1570367D01*
G37*
G36*
X1076390Y1570367D02*
X1076390Y1570367D01*
X1076456Y1570369D01*
X1076499Y1570387D01*
X1076546Y1570395D01*
X1076603Y1570429D01*
X1076663Y1570454D01*
X1076698Y1570485D01*
X1076739Y1570510D01*
X1076781Y1570561D01*
X1076829Y1570605D01*
X1076851Y1570647D01*
X1076880Y1570684D01*
X1076901Y1570746D01*
X1076932Y1570805D01*
X1076940Y1570859D01*
X1076952Y1570896D01*
X1076951Y1570936D01*
X1076959Y1570990D01*
X1076959Y1574800D01*
X1076948Y1574865D01*
X1076946Y1574931D01*
X1076928Y1574974D01*
X1076920Y1575021D01*
X1076886Y1575078D01*
X1076861Y1575138D01*
X1076830Y1575173D01*
X1076805Y1575214D01*
X1076754Y1575256D01*
X1076710Y1575304D01*
X1076668Y1575326D01*
X1076631Y1575355D01*
X1076569Y1575376D01*
X1076510Y1575407D01*
X1076456Y1575415D01*
X1076419Y1575427D01*
X1076379Y1575426D01*
X1076325Y1575434D01*
X1073785Y1575434D01*
X1073720Y1575423D01*
X1073654Y1575421D01*
X1073611Y1575403D01*
X1073564Y1575395D01*
X1073507Y1575361D01*
X1073447Y1575336D01*
X1073412Y1575305D01*
X1073371Y1575280D01*
X1073330Y1575229D01*
X1073281Y1575185D01*
X1073259Y1575143D01*
X1073230Y1575106D01*
X1073209Y1575044D01*
X1073178Y1574985D01*
X1073170Y1574931D01*
X1073158Y1574894D01*
X1073158Y1574890D01*
X1073158Y1574889D01*
X1073159Y1574854D01*
X1073151Y1574800D01*
X1073151Y1570990D01*
X1073162Y1570925D01*
X1073164Y1570859D01*
X1073182Y1570816D01*
X1073190Y1570769D01*
X1073224Y1570712D01*
X1073249Y1570652D01*
X1073280Y1570617D01*
X1073305Y1570576D01*
X1073356Y1570535D01*
X1073400Y1570486D01*
X1073442Y1570464D01*
X1073479Y1570435D01*
X1073541Y1570414D01*
X1073600Y1570383D01*
X1073654Y1570375D01*
X1073691Y1570363D01*
X1073731Y1570364D01*
X1073785Y1570356D01*
X1076325Y1570356D01*
X1076390Y1570367D01*
G37*
G36*
X299150Y1570367D02*
X299150Y1570367D01*
X299216Y1570369D01*
X299259Y1570387D01*
X299306Y1570395D01*
X299363Y1570429D01*
X299423Y1570454D01*
X299458Y1570485D01*
X299499Y1570510D01*
X299541Y1570561D01*
X299589Y1570605D01*
X299611Y1570647D01*
X299640Y1570684D01*
X299661Y1570746D01*
X299692Y1570805D01*
X299700Y1570859D01*
X299712Y1570896D01*
X299711Y1570936D01*
X299719Y1570990D01*
X299719Y1574800D01*
X299708Y1574865D01*
X299706Y1574931D01*
X299688Y1574974D01*
X299680Y1575021D01*
X299646Y1575078D01*
X299621Y1575138D01*
X299590Y1575173D01*
X299565Y1575214D01*
X299514Y1575256D01*
X299470Y1575304D01*
X299428Y1575326D01*
X299391Y1575355D01*
X299329Y1575376D01*
X299270Y1575407D01*
X299216Y1575415D01*
X299179Y1575427D01*
X299139Y1575426D01*
X299085Y1575434D01*
X296545Y1575434D01*
X296480Y1575423D01*
X296414Y1575421D01*
X296371Y1575403D01*
X296324Y1575395D01*
X296267Y1575361D01*
X296207Y1575336D01*
X296172Y1575305D01*
X296131Y1575280D01*
X296090Y1575229D01*
X296041Y1575185D01*
X296019Y1575143D01*
X295990Y1575106D01*
X295969Y1575044D01*
X295938Y1574985D01*
X295930Y1574931D01*
X295918Y1574894D01*
X295918Y1574890D01*
X295918Y1574889D01*
X295919Y1574854D01*
X295911Y1574800D01*
X295911Y1570990D01*
X295922Y1570925D01*
X295924Y1570859D01*
X295942Y1570816D01*
X295950Y1570769D01*
X295984Y1570712D01*
X296009Y1570652D01*
X296040Y1570617D01*
X296065Y1570576D01*
X296116Y1570535D01*
X296160Y1570486D01*
X296202Y1570464D01*
X296239Y1570435D01*
X296301Y1570414D01*
X296360Y1570383D01*
X296414Y1570375D01*
X296451Y1570363D01*
X296491Y1570364D01*
X296545Y1570356D01*
X299085Y1570356D01*
X299150Y1570367D01*
G37*
G36*
X299150Y1052207D02*
X299150Y1052207D01*
X299216Y1052209D01*
X299259Y1052227D01*
X299306Y1052235D01*
X299363Y1052269D01*
X299423Y1052294D01*
X299458Y1052325D01*
X299499Y1052350D01*
X299541Y1052401D01*
X299589Y1052445D01*
X299611Y1052487D01*
X299640Y1052524D01*
X299661Y1052586D01*
X299692Y1052645D01*
X299700Y1052699D01*
X299712Y1052736D01*
X299711Y1052776D01*
X299719Y1052830D01*
X299719Y1056640D01*
X299708Y1056705D01*
X299706Y1056771D01*
X299688Y1056814D01*
X299680Y1056861D01*
X299646Y1056918D01*
X299621Y1056978D01*
X299590Y1057013D01*
X299565Y1057054D01*
X299514Y1057096D01*
X299470Y1057144D01*
X299428Y1057166D01*
X299391Y1057195D01*
X299329Y1057216D01*
X299270Y1057247D01*
X299216Y1057255D01*
X299179Y1057267D01*
X299139Y1057266D01*
X299085Y1057274D01*
X296545Y1057274D01*
X296480Y1057263D01*
X296414Y1057261D01*
X296371Y1057243D01*
X296324Y1057235D01*
X296267Y1057201D01*
X296207Y1057176D01*
X296172Y1057145D01*
X296131Y1057120D01*
X296090Y1057069D01*
X296041Y1057025D01*
X296019Y1056983D01*
X295990Y1056946D01*
X295969Y1056884D01*
X295938Y1056825D01*
X295930Y1056771D01*
X295918Y1056734D01*
X295918Y1056730D01*
X295918Y1056729D01*
X295919Y1056694D01*
X295911Y1056640D01*
X295911Y1052830D01*
X295922Y1052765D01*
X295924Y1052699D01*
X295942Y1052656D01*
X295950Y1052609D01*
X295984Y1052552D01*
X296009Y1052492D01*
X296040Y1052457D01*
X296065Y1052416D01*
X296116Y1052375D01*
X296160Y1052326D01*
X296202Y1052304D01*
X296239Y1052275D01*
X296301Y1052254D01*
X296360Y1052223D01*
X296414Y1052215D01*
X296451Y1052203D01*
X296491Y1052204D01*
X296545Y1052196D01*
X299085Y1052196D01*
X299150Y1052207D01*
G37*
G36*
X40070Y1052207D02*
X40070Y1052207D01*
X40136Y1052209D01*
X40179Y1052227D01*
X40226Y1052235D01*
X40283Y1052269D01*
X40343Y1052294D01*
X40378Y1052325D01*
X40419Y1052350D01*
X40461Y1052401D01*
X40509Y1052445D01*
X40531Y1052487D01*
X40560Y1052524D01*
X40581Y1052586D01*
X40612Y1052645D01*
X40620Y1052699D01*
X40632Y1052736D01*
X40631Y1052776D01*
X40639Y1052830D01*
X40639Y1056640D01*
X40628Y1056705D01*
X40626Y1056771D01*
X40608Y1056814D01*
X40600Y1056861D01*
X40566Y1056918D01*
X40541Y1056978D01*
X40510Y1057013D01*
X40485Y1057054D01*
X40434Y1057096D01*
X40390Y1057144D01*
X40348Y1057166D01*
X40311Y1057195D01*
X40249Y1057216D01*
X40190Y1057247D01*
X40136Y1057255D01*
X40099Y1057267D01*
X40059Y1057266D01*
X40005Y1057274D01*
X37465Y1057274D01*
X37400Y1057263D01*
X37334Y1057261D01*
X37291Y1057243D01*
X37244Y1057235D01*
X37187Y1057201D01*
X37127Y1057176D01*
X37092Y1057145D01*
X37051Y1057120D01*
X37010Y1057069D01*
X36961Y1057025D01*
X36939Y1056983D01*
X36910Y1056946D01*
X36889Y1056884D01*
X36858Y1056825D01*
X36850Y1056771D01*
X36838Y1056734D01*
X36838Y1056730D01*
X36838Y1056729D01*
X36839Y1056694D01*
X36831Y1056640D01*
X36831Y1052830D01*
X36842Y1052765D01*
X36844Y1052699D01*
X36862Y1052656D01*
X36870Y1052609D01*
X36904Y1052552D01*
X36929Y1052492D01*
X36960Y1052457D01*
X36985Y1052416D01*
X37036Y1052375D01*
X37080Y1052326D01*
X37122Y1052304D01*
X37159Y1052275D01*
X37221Y1052254D01*
X37280Y1052223D01*
X37334Y1052215D01*
X37371Y1052203D01*
X37411Y1052204D01*
X37465Y1052196D01*
X40005Y1052196D01*
X40070Y1052207D01*
G37*
G36*
X558230Y1052207D02*
X558230Y1052207D01*
X558296Y1052209D01*
X558339Y1052227D01*
X558386Y1052235D01*
X558443Y1052269D01*
X558503Y1052294D01*
X558538Y1052325D01*
X558579Y1052350D01*
X558621Y1052401D01*
X558669Y1052445D01*
X558691Y1052487D01*
X558720Y1052524D01*
X558741Y1052586D01*
X558772Y1052645D01*
X558780Y1052699D01*
X558792Y1052736D01*
X558791Y1052776D01*
X558799Y1052830D01*
X558799Y1056640D01*
X558788Y1056705D01*
X558786Y1056771D01*
X558768Y1056814D01*
X558760Y1056861D01*
X558726Y1056918D01*
X558701Y1056978D01*
X558670Y1057013D01*
X558645Y1057054D01*
X558594Y1057096D01*
X558550Y1057144D01*
X558508Y1057166D01*
X558471Y1057195D01*
X558409Y1057216D01*
X558350Y1057247D01*
X558296Y1057255D01*
X558259Y1057267D01*
X558219Y1057266D01*
X558165Y1057274D01*
X555625Y1057274D01*
X555560Y1057263D01*
X555494Y1057261D01*
X555451Y1057243D01*
X555404Y1057235D01*
X555347Y1057201D01*
X555287Y1057176D01*
X555252Y1057145D01*
X555211Y1057120D01*
X555170Y1057069D01*
X555121Y1057025D01*
X555099Y1056983D01*
X555070Y1056946D01*
X555049Y1056884D01*
X555018Y1056825D01*
X555010Y1056771D01*
X554998Y1056734D01*
X554998Y1056730D01*
X554998Y1056729D01*
X554999Y1056694D01*
X554991Y1056640D01*
X554991Y1052830D01*
X555002Y1052765D01*
X555004Y1052699D01*
X555022Y1052656D01*
X555030Y1052609D01*
X555064Y1052552D01*
X555089Y1052492D01*
X555120Y1052457D01*
X555145Y1052416D01*
X555196Y1052375D01*
X555240Y1052326D01*
X555282Y1052304D01*
X555319Y1052275D01*
X555381Y1052254D01*
X555440Y1052223D01*
X555494Y1052215D01*
X555531Y1052203D01*
X555571Y1052204D01*
X555625Y1052196D01*
X558165Y1052196D01*
X558230Y1052207D01*
G37*
G36*
X817310Y1052207D02*
X817310Y1052207D01*
X817376Y1052209D01*
X817419Y1052227D01*
X817466Y1052235D01*
X817523Y1052269D01*
X817583Y1052294D01*
X817618Y1052325D01*
X817659Y1052350D01*
X817701Y1052401D01*
X817749Y1052445D01*
X817771Y1052487D01*
X817800Y1052524D01*
X817821Y1052586D01*
X817852Y1052645D01*
X817860Y1052699D01*
X817872Y1052736D01*
X817871Y1052776D01*
X817879Y1052830D01*
X817879Y1056640D01*
X817868Y1056705D01*
X817866Y1056771D01*
X817848Y1056814D01*
X817840Y1056861D01*
X817806Y1056918D01*
X817781Y1056978D01*
X817750Y1057013D01*
X817725Y1057054D01*
X817674Y1057096D01*
X817630Y1057144D01*
X817588Y1057166D01*
X817551Y1057195D01*
X817489Y1057216D01*
X817430Y1057247D01*
X817376Y1057255D01*
X817339Y1057267D01*
X817299Y1057266D01*
X817245Y1057274D01*
X814705Y1057274D01*
X814640Y1057263D01*
X814574Y1057261D01*
X814531Y1057243D01*
X814484Y1057235D01*
X814427Y1057201D01*
X814367Y1057176D01*
X814332Y1057145D01*
X814291Y1057120D01*
X814250Y1057069D01*
X814201Y1057025D01*
X814179Y1056983D01*
X814150Y1056946D01*
X814129Y1056884D01*
X814098Y1056825D01*
X814090Y1056771D01*
X814078Y1056734D01*
X814078Y1056730D01*
X814078Y1056729D01*
X814079Y1056694D01*
X814071Y1056640D01*
X814071Y1052830D01*
X814082Y1052765D01*
X814084Y1052699D01*
X814102Y1052656D01*
X814110Y1052609D01*
X814144Y1052552D01*
X814169Y1052492D01*
X814200Y1052457D01*
X814225Y1052416D01*
X814276Y1052375D01*
X814320Y1052326D01*
X814362Y1052304D01*
X814399Y1052275D01*
X814461Y1052254D01*
X814520Y1052223D01*
X814574Y1052215D01*
X814611Y1052203D01*
X814651Y1052204D01*
X814705Y1052196D01*
X817245Y1052196D01*
X817310Y1052207D01*
G37*
G36*
X1076390Y1052207D02*
X1076390Y1052207D01*
X1076456Y1052209D01*
X1076499Y1052227D01*
X1076546Y1052235D01*
X1076603Y1052269D01*
X1076663Y1052294D01*
X1076698Y1052325D01*
X1076739Y1052350D01*
X1076781Y1052401D01*
X1076829Y1052445D01*
X1076851Y1052487D01*
X1076880Y1052524D01*
X1076901Y1052586D01*
X1076932Y1052645D01*
X1076940Y1052699D01*
X1076952Y1052736D01*
X1076951Y1052776D01*
X1076959Y1052830D01*
X1076959Y1056640D01*
X1076948Y1056705D01*
X1076946Y1056771D01*
X1076928Y1056814D01*
X1076920Y1056861D01*
X1076886Y1056918D01*
X1076861Y1056978D01*
X1076830Y1057013D01*
X1076805Y1057054D01*
X1076754Y1057096D01*
X1076710Y1057144D01*
X1076668Y1057166D01*
X1076631Y1057195D01*
X1076569Y1057216D01*
X1076510Y1057247D01*
X1076456Y1057255D01*
X1076419Y1057267D01*
X1076379Y1057266D01*
X1076325Y1057274D01*
X1073785Y1057274D01*
X1073720Y1057263D01*
X1073654Y1057261D01*
X1073611Y1057243D01*
X1073564Y1057235D01*
X1073507Y1057201D01*
X1073447Y1057176D01*
X1073412Y1057145D01*
X1073371Y1057120D01*
X1073330Y1057069D01*
X1073281Y1057025D01*
X1073259Y1056983D01*
X1073230Y1056946D01*
X1073209Y1056884D01*
X1073178Y1056825D01*
X1073170Y1056771D01*
X1073158Y1056734D01*
X1073158Y1056730D01*
X1073158Y1056729D01*
X1073159Y1056694D01*
X1073151Y1056640D01*
X1073151Y1052830D01*
X1073162Y1052765D01*
X1073164Y1052699D01*
X1073182Y1052656D01*
X1073190Y1052609D01*
X1073224Y1052552D01*
X1073249Y1052492D01*
X1073280Y1052457D01*
X1073305Y1052416D01*
X1073356Y1052375D01*
X1073400Y1052326D01*
X1073442Y1052304D01*
X1073479Y1052275D01*
X1073541Y1052254D01*
X1073600Y1052223D01*
X1073654Y1052215D01*
X1073691Y1052203D01*
X1073731Y1052204D01*
X1073785Y1052196D01*
X1076325Y1052196D01*
X1076390Y1052207D01*
G37*
G36*
X817310Y793127D02*
X817310Y793127D01*
X817376Y793129D01*
X817419Y793147D01*
X817466Y793155D01*
X817523Y793189D01*
X817583Y793214D01*
X817618Y793245D01*
X817659Y793270D01*
X817701Y793321D01*
X817749Y793365D01*
X817771Y793407D01*
X817800Y793444D01*
X817821Y793506D01*
X817852Y793565D01*
X817860Y793619D01*
X817872Y793656D01*
X817871Y793696D01*
X817879Y793750D01*
X817879Y797560D01*
X817868Y797625D01*
X817866Y797691D01*
X817848Y797734D01*
X817840Y797781D01*
X817806Y797838D01*
X817781Y797898D01*
X817750Y797933D01*
X817725Y797974D01*
X817674Y798016D01*
X817630Y798064D01*
X817588Y798086D01*
X817551Y798115D01*
X817489Y798136D01*
X817430Y798167D01*
X817376Y798175D01*
X817339Y798187D01*
X817299Y798186D01*
X817245Y798194D01*
X814705Y798194D01*
X814640Y798183D01*
X814574Y798181D01*
X814531Y798163D01*
X814484Y798155D01*
X814427Y798121D01*
X814367Y798096D01*
X814332Y798065D01*
X814291Y798040D01*
X814250Y797989D01*
X814201Y797945D01*
X814179Y797903D01*
X814150Y797866D01*
X814129Y797804D01*
X814098Y797745D01*
X814090Y797691D01*
X814078Y797654D01*
X814078Y797650D01*
X814078Y797649D01*
X814079Y797614D01*
X814071Y797560D01*
X814071Y793750D01*
X814082Y793685D01*
X814084Y793619D01*
X814102Y793576D01*
X814110Y793529D01*
X814144Y793472D01*
X814169Y793412D01*
X814200Y793377D01*
X814225Y793336D01*
X814276Y793295D01*
X814320Y793246D01*
X814362Y793224D01*
X814399Y793195D01*
X814461Y793174D01*
X814520Y793143D01*
X814574Y793135D01*
X814611Y793123D01*
X814651Y793124D01*
X814705Y793116D01*
X817245Y793116D01*
X817310Y793127D01*
G37*
G36*
X1076390Y793127D02*
X1076390Y793127D01*
X1076456Y793129D01*
X1076499Y793147D01*
X1076546Y793155D01*
X1076603Y793189D01*
X1076663Y793214D01*
X1076698Y793245D01*
X1076739Y793270D01*
X1076781Y793321D01*
X1076829Y793365D01*
X1076851Y793407D01*
X1076880Y793444D01*
X1076901Y793506D01*
X1076932Y793565D01*
X1076940Y793619D01*
X1076952Y793656D01*
X1076951Y793696D01*
X1076959Y793750D01*
X1076959Y797560D01*
X1076948Y797625D01*
X1076946Y797691D01*
X1076928Y797734D01*
X1076920Y797781D01*
X1076886Y797838D01*
X1076861Y797898D01*
X1076830Y797933D01*
X1076805Y797974D01*
X1076754Y798016D01*
X1076710Y798064D01*
X1076668Y798086D01*
X1076631Y798115D01*
X1076569Y798136D01*
X1076510Y798167D01*
X1076456Y798175D01*
X1076419Y798187D01*
X1076379Y798186D01*
X1076325Y798194D01*
X1073785Y798194D01*
X1073720Y798183D01*
X1073654Y798181D01*
X1073611Y798163D01*
X1073564Y798155D01*
X1073507Y798121D01*
X1073447Y798096D01*
X1073412Y798065D01*
X1073371Y798040D01*
X1073330Y797989D01*
X1073281Y797945D01*
X1073259Y797903D01*
X1073230Y797866D01*
X1073209Y797804D01*
X1073178Y797745D01*
X1073170Y797691D01*
X1073158Y797654D01*
X1073158Y797650D01*
X1073158Y797649D01*
X1073159Y797614D01*
X1073151Y797560D01*
X1073151Y793750D01*
X1073162Y793685D01*
X1073164Y793619D01*
X1073182Y793576D01*
X1073190Y793529D01*
X1073224Y793472D01*
X1073249Y793412D01*
X1073280Y793377D01*
X1073305Y793336D01*
X1073356Y793295D01*
X1073400Y793246D01*
X1073442Y793224D01*
X1073479Y793195D01*
X1073541Y793174D01*
X1073600Y793143D01*
X1073654Y793135D01*
X1073691Y793123D01*
X1073731Y793124D01*
X1073785Y793116D01*
X1076325Y793116D01*
X1076390Y793127D01*
G37*
G36*
X299150Y793127D02*
X299150Y793127D01*
X299216Y793129D01*
X299259Y793147D01*
X299306Y793155D01*
X299363Y793189D01*
X299423Y793214D01*
X299458Y793245D01*
X299499Y793270D01*
X299541Y793321D01*
X299589Y793365D01*
X299611Y793407D01*
X299640Y793444D01*
X299661Y793506D01*
X299692Y793565D01*
X299700Y793619D01*
X299712Y793656D01*
X299711Y793696D01*
X299719Y793750D01*
X299719Y797560D01*
X299708Y797625D01*
X299706Y797691D01*
X299688Y797734D01*
X299680Y797781D01*
X299646Y797838D01*
X299621Y797898D01*
X299590Y797933D01*
X299565Y797974D01*
X299514Y798016D01*
X299470Y798064D01*
X299428Y798086D01*
X299391Y798115D01*
X299329Y798136D01*
X299270Y798167D01*
X299216Y798175D01*
X299179Y798187D01*
X299139Y798186D01*
X299085Y798194D01*
X296545Y798194D01*
X296480Y798183D01*
X296414Y798181D01*
X296371Y798163D01*
X296324Y798155D01*
X296267Y798121D01*
X296207Y798096D01*
X296172Y798065D01*
X296131Y798040D01*
X296090Y797989D01*
X296041Y797945D01*
X296019Y797903D01*
X295990Y797866D01*
X295969Y797804D01*
X295938Y797745D01*
X295930Y797691D01*
X295918Y797654D01*
X295918Y797650D01*
X295918Y797649D01*
X295919Y797614D01*
X295911Y797560D01*
X295911Y793750D01*
X295922Y793685D01*
X295924Y793619D01*
X295942Y793576D01*
X295950Y793529D01*
X295984Y793472D01*
X296009Y793412D01*
X296040Y793377D01*
X296065Y793336D01*
X296116Y793295D01*
X296160Y793246D01*
X296202Y793224D01*
X296239Y793195D01*
X296301Y793174D01*
X296360Y793143D01*
X296414Y793135D01*
X296451Y793123D01*
X296491Y793124D01*
X296545Y793116D01*
X299085Y793116D01*
X299150Y793127D01*
G37*
G36*
X558230Y793127D02*
X558230Y793127D01*
X558296Y793129D01*
X558339Y793147D01*
X558386Y793155D01*
X558443Y793189D01*
X558503Y793214D01*
X558538Y793245D01*
X558579Y793270D01*
X558621Y793321D01*
X558669Y793365D01*
X558691Y793407D01*
X558720Y793444D01*
X558741Y793506D01*
X558772Y793565D01*
X558780Y793619D01*
X558792Y793656D01*
X558791Y793696D01*
X558799Y793750D01*
X558799Y797560D01*
X558788Y797625D01*
X558786Y797691D01*
X558768Y797734D01*
X558760Y797781D01*
X558726Y797838D01*
X558701Y797898D01*
X558670Y797933D01*
X558645Y797974D01*
X558594Y798016D01*
X558550Y798064D01*
X558508Y798086D01*
X558471Y798115D01*
X558409Y798136D01*
X558350Y798167D01*
X558296Y798175D01*
X558259Y798187D01*
X558219Y798186D01*
X558165Y798194D01*
X555625Y798194D01*
X555560Y798183D01*
X555494Y798181D01*
X555451Y798163D01*
X555404Y798155D01*
X555347Y798121D01*
X555287Y798096D01*
X555252Y798065D01*
X555211Y798040D01*
X555170Y797989D01*
X555121Y797945D01*
X555099Y797903D01*
X555070Y797866D01*
X555049Y797804D01*
X555018Y797745D01*
X555010Y797691D01*
X554998Y797654D01*
X554998Y797650D01*
X554998Y797649D01*
X554999Y797614D01*
X554991Y797560D01*
X554991Y793750D01*
X555002Y793685D01*
X555004Y793619D01*
X555022Y793576D01*
X555030Y793529D01*
X555064Y793472D01*
X555089Y793412D01*
X555120Y793377D01*
X555145Y793336D01*
X555196Y793295D01*
X555240Y793246D01*
X555282Y793224D01*
X555319Y793195D01*
X555381Y793174D01*
X555440Y793143D01*
X555494Y793135D01*
X555531Y793123D01*
X555571Y793124D01*
X555625Y793116D01*
X558165Y793116D01*
X558230Y793127D01*
G37*
G36*
X40070Y793127D02*
X40070Y793127D01*
X40136Y793129D01*
X40179Y793147D01*
X40226Y793155D01*
X40283Y793189D01*
X40343Y793214D01*
X40378Y793245D01*
X40419Y793270D01*
X40461Y793321D01*
X40509Y793365D01*
X40531Y793407D01*
X40560Y793444D01*
X40581Y793506D01*
X40612Y793565D01*
X40620Y793619D01*
X40632Y793656D01*
X40631Y793696D01*
X40639Y793750D01*
X40639Y797560D01*
X40628Y797625D01*
X40626Y797691D01*
X40608Y797734D01*
X40600Y797781D01*
X40566Y797838D01*
X40541Y797898D01*
X40510Y797933D01*
X40485Y797974D01*
X40434Y798016D01*
X40390Y798064D01*
X40348Y798086D01*
X40311Y798115D01*
X40249Y798136D01*
X40190Y798167D01*
X40136Y798175D01*
X40099Y798187D01*
X40059Y798186D01*
X40005Y798194D01*
X37465Y798194D01*
X37400Y798183D01*
X37334Y798181D01*
X37291Y798163D01*
X37244Y798155D01*
X37187Y798121D01*
X37127Y798096D01*
X37092Y798065D01*
X37051Y798040D01*
X37010Y797989D01*
X36961Y797945D01*
X36939Y797903D01*
X36910Y797866D01*
X36889Y797804D01*
X36858Y797745D01*
X36850Y797691D01*
X36838Y797654D01*
X36838Y797650D01*
X36838Y797649D01*
X36839Y797614D01*
X36831Y797560D01*
X36831Y793750D01*
X36842Y793685D01*
X36844Y793619D01*
X36862Y793576D01*
X36870Y793529D01*
X36904Y793472D01*
X36929Y793412D01*
X36960Y793377D01*
X36985Y793336D01*
X37036Y793295D01*
X37080Y793246D01*
X37122Y793224D01*
X37159Y793195D01*
X37221Y793174D01*
X37280Y793143D01*
X37334Y793135D01*
X37371Y793123D01*
X37411Y793124D01*
X37465Y793116D01*
X40005Y793116D01*
X40070Y793127D01*
G37*
G36*
X817310Y534047D02*
X817310Y534047D01*
X817376Y534049D01*
X817419Y534067D01*
X817466Y534075D01*
X817523Y534109D01*
X817583Y534134D01*
X817618Y534165D01*
X817659Y534190D01*
X817701Y534241D01*
X817749Y534285D01*
X817771Y534327D01*
X817800Y534364D01*
X817821Y534426D01*
X817852Y534485D01*
X817860Y534539D01*
X817872Y534576D01*
X817871Y534616D01*
X817879Y534670D01*
X817879Y538480D01*
X817868Y538545D01*
X817866Y538611D01*
X817848Y538654D01*
X817840Y538701D01*
X817806Y538758D01*
X817781Y538818D01*
X817750Y538853D01*
X817725Y538894D01*
X817674Y538936D01*
X817630Y538984D01*
X817588Y539006D01*
X817551Y539035D01*
X817489Y539056D01*
X817430Y539087D01*
X817376Y539095D01*
X817339Y539107D01*
X817299Y539106D01*
X817245Y539114D01*
X814705Y539114D01*
X814640Y539103D01*
X814574Y539101D01*
X814531Y539083D01*
X814484Y539075D01*
X814427Y539041D01*
X814367Y539016D01*
X814332Y538985D01*
X814291Y538960D01*
X814250Y538909D01*
X814201Y538865D01*
X814179Y538823D01*
X814150Y538786D01*
X814129Y538724D01*
X814098Y538665D01*
X814090Y538611D01*
X814078Y538574D01*
X814078Y538570D01*
X814078Y538569D01*
X814079Y538534D01*
X814071Y538480D01*
X814071Y534670D01*
X814082Y534605D01*
X814084Y534539D01*
X814102Y534496D01*
X814110Y534449D01*
X814144Y534392D01*
X814169Y534332D01*
X814200Y534297D01*
X814225Y534256D01*
X814276Y534215D01*
X814320Y534166D01*
X814362Y534144D01*
X814399Y534115D01*
X814461Y534094D01*
X814520Y534063D01*
X814574Y534055D01*
X814611Y534043D01*
X814651Y534044D01*
X814705Y534036D01*
X817245Y534036D01*
X817310Y534047D01*
G37*
G36*
X40070Y534047D02*
X40070Y534047D01*
X40136Y534049D01*
X40179Y534067D01*
X40226Y534075D01*
X40283Y534109D01*
X40343Y534134D01*
X40378Y534165D01*
X40419Y534190D01*
X40461Y534241D01*
X40509Y534285D01*
X40531Y534327D01*
X40560Y534364D01*
X40581Y534426D01*
X40612Y534485D01*
X40620Y534539D01*
X40632Y534576D01*
X40631Y534616D01*
X40639Y534670D01*
X40639Y538480D01*
X40628Y538545D01*
X40626Y538611D01*
X40608Y538654D01*
X40600Y538701D01*
X40566Y538758D01*
X40541Y538818D01*
X40510Y538853D01*
X40485Y538894D01*
X40434Y538936D01*
X40390Y538984D01*
X40348Y539006D01*
X40311Y539035D01*
X40249Y539056D01*
X40190Y539087D01*
X40136Y539095D01*
X40099Y539107D01*
X40059Y539106D01*
X40005Y539114D01*
X37465Y539114D01*
X37400Y539103D01*
X37334Y539101D01*
X37291Y539083D01*
X37244Y539075D01*
X37187Y539041D01*
X37127Y539016D01*
X37092Y538985D01*
X37051Y538960D01*
X37010Y538909D01*
X36961Y538865D01*
X36939Y538823D01*
X36910Y538786D01*
X36889Y538724D01*
X36858Y538665D01*
X36850Y538611D01*
X36838Y538574D01*
X36838Y538570D01*
X36838Y538569D01*
X36839Y538534D01*
X36831Y538480D01*
X36831Y534670D01*
X36842Y534605D01*
X36844Y534539D01*
X36862Y534496D01*
X36870Y534449D01*
X36904Y534392D01*
X36929Y534332D01*
X36960Y534297D01*
X36985Y534256D01*
X37036Y534215D01*
X37080Y534166D01*
X37122Y534144D01*
X37159Y534115D01*
X37221Y534094D01*
X37280Y534063D01*
X37334Y534055D01*
X37371Y534043D01*
X37411Y534044D01*
X37465Y534036D01*
X40005Y534036D01*
X40070Y534047D01*
G37*
G36*
X299150Y534047D02*
X299150Y534047D01*
X299216Y534049D01*
X299259Y534067D01*
X299306Y534075D01*
X299363Y534109D01*
X299423Y534134D01*
X299458Y534165D01*
X299499Y534190D01*
X299541Y534241D01*
X299589Y534285D01*
X299611Y534327D01*
X299640Y534364D01*
X299661Y534426D01*
X299692Y534485D01*
X299700Y534539D01*
X299712Y534576D01*
X299711Y534616D01*
X299719Y534670D01*
X299719Y538480D01*
X299708Y538545D01*
X299706Y538611D01*
X299688Y538654D01*
X299680Y538701D01*
X299646Y538758D01*
X299621Y538818D01*
X299590Y538853D01*
X299565Y538894D01*
X299514Y538936D01*
X299470Y538984D01*
X299428Y539006D01*
X299391Y539035D01*
X299329Y539056D01*
X299270Y539087D01*
X299216Y539095D01*
X299179Y539107D01*
X299139Y539106D01*
X299085Y539114D01*
X296545Y539114D01*
X296480Y539103D01*
X296414Y539101D01*
X296371Y539083D01*
X296324Y539075D01*
X296267Y539041D01*
X296207Y539016D01*
X296172Y538985D01*
X296131Y538960D01*
X296090Y538909D01*
X296041Y538865D01*
X296019Y538823D01*
X295990Y538786D01*
X295969Y538724D01*
X295938Y538665D01*
X295930Y538611D01*
X295918Y538574D01*
X295918Y538570D01*
X295918Y538569D01*
X295919Y538534D01*
X295911Y538480D01*
X295911Y534670D01*
X295922Y534605D01*
X295924Y534539D01*
X295942Y534496D01*
X295950Y534449D01*
X295984Y534392D01*
X296009Y534332D01*
X296040Y534297D01*
X296065Y534256D01*
X296116Y534215D01*
X296160Y534166D01*
X296202Y534144D01*
X296239Y534115D01*
X296301Y534094D01*
X296360Y534063D01*
X296414Y534055D01*
X296451Y534043D01*
X296491Y534044D01*
X296545Y534036D01*
X299085Y534036D01*
X299150Y534047D01*
G37*
G36*
X558230Y534047D02*
X558230Y534047D01*
X558296Y534049D01*
X558339Y534067D01*
X558386Y534075D01*
X558443Y534109D01*
X558503Y534134D01*
X558538Y534165D01*
X558579Y534190D01*
X558621Y534241D01*
X558669Y534285D01*
X558691Y534327D01*
X558720Y534364D01*
X558741Y534426D01*
X558772Y534485D01*
X558780Y534539D01*
X558792Y534576D01*
X558791Y534616D01*
X558799Y534670D01*
X558799Y538480D01*
X558788Y538545D01*
X558786Y538611D01*
X558768Y538654D01*
X558760Y538701D01*
X558726Y538758D01*
X558701Y538818D01*
X558670Y538853D01*
X558645Y538894D01*
X558594Y538936D01*
X558550Y538984D01*
X558508Y539006D01*
X558471Y539035D01*
X558409Y539056D01*
X558350Y539087D01*
X558296Y539095D01*
X558259Y539107D01*
X558219Y539106D01*
X558165Y539114D01*
X555625Y539114D01*
X555560Y539103D01*
X555494Y539101D01*
X555451Y539083D01*
X555404Y539075D01*
X555347Y539041D01*
X555287Y539016D01*
X555252Y538985D01*
X555211Y538960D01*
X555170Y538909D01*
X555121Y538865D01*
X555099Y538823D01*
X555070Y538786D01*
X555049Y538724D01*
X555018Y538665D01*
X555010Y538611D01*
X554998Y538574D01*
X554998Y538570D01*
X554998Y538569D01*
X554999Y538534D01*
X554991Y538480D01*
X554991Y534670D01*
X555002Y534605D01*
X555004Y534539D01*
X555022Y534496D01*
X555030Y534449D01*
X555064Y534392D01*
X555089Y534332D01*
X555120Y534297D01*
X555145Y534256D01*
X555196Y534215D01*
X555240Y534166D01*
X555282Y534144D01*
X555319Y534115D01*
X555381Y534094D01*
X555440Y534063D01*
X555494Y534055D01*
X555531Y534043D01*
X555571Y534044D01*
X555625Y534036D01*
X558165Y534036D01*
X558230Y534047D01*
G37*
G36*
X1076390Y534047D02*
X1076390Y534047D01*
X1076456Y534049D01*
X1076499Y534067D01*
X1076546Y534075D01*
X1076603Y534109D01*
X1076663Y534134D01*
X1076698Y534165D01*
X1076739Y534190D01*
X1076781Y534241D01*
X1076829Y534285D01*
X1076851Y534327D01*
X1076880Y534364D01*
X1076901Y534426D01*
X1076932Y534485D01*
X1076940Y534539D01*
X1076952Y534576D01*
X1076951Y534616D01*
X1076959Y534670D01*
X1076959Y538480D01*
X1076948Y538545D01*
X1076946Y538611D01*
X1076928Y538654D01*
X1076920Y538701D01*
X1076886Y538758D01*
X1076861Y538818D01*
X1076830Y538853D01*
X1076805Y538894D01*
X1076754Y538936D01*
X1076710Y538984D01*
X1076668Y539006D01*
X1076631Y539035D01*
X1076569Y539056D01*
X1076510Y539087D01*
X1076456Y539095D01*
X1076419Y539107D01*
X1076379Y539106D01*
X1076325Y539114D01*
X1073785Y539114D01*
X1073720Y539103D01*
X1073654Y539101D01*
X1073611Y539083D01*
X1073564Y539075D01*
X1073507Y539041D01*
X1073447Y539016D01*
X1073412Y538985D01*
X1073371Y538960D01*
X1073330Y538909D01*
X1073281Y538865D01*
X1073259Y538823D01*
X1073230Y538786D01*
X1073209Y538724D01*
X1073178Y538665D01*
X1073170Y538611D01*
X1073158Y538574D01*
X1073158Y538570D01*
X1073158Y538569D01*
X1073159Y538534D01*
X1073151Y538480D01*
X1073151Y534670D01*
X1073162Y534605D01*
X1073164Y534539D01*
X1073182Y534496D01*
X1073190Y534449D01*
X1073224Y534392D01*
X1073249Y534332D01*
X1073280Y534297D01*
X1073305Y534256D01*
X1073356Y534215D01*
X1073400Y534166D01*
X1073442Y534144D01*
X1073479Y534115D01*
X1073541Y534094D01*
X1073600Y534063D01*
X1073654Y534055D01*
X1073691Y534043D01*
X1073731Y534044D01*
X1073785Y534036D01*
X1076325Y534036D01*
X1076390Y534047D01*
G37*
G36*
X817310Y274967D02*
X817310Y274967D01*
X817376Y274969D01*
X817419Y274987D01*
X817466Y274995D01*
X817523Y275029D01*
X817583Y275054D01*
X817618Y275085D01*
X817659Y275110D01*
X817701Y275161D01*
X817749Y275205D01*
X817771Y275247D01*
X817800Y275284D01*
X817821Y275346D01*
X817852Y275405D01*
X817860Y275459D01*
X817872Y275496D01*
X817871Y275536D01*
X817879Y275590D01*
X817879Y279400D01*
X817868Y279465D01*
X817866Y279531D01*
X817848Y279574D01*
X817840Y279621D01*
X817806Y279678D01*
X817781Y279738D01*
X817750Y279773D01*
X817725Y279814D01*
X817674Y279856D01*
X817630Y279904D01*
X817588Y279926D01*
X817551Y279955D01*
X817489Y279976D01*
X817430Y280007D01*
X817376Y280015D01*
X817339Y280027D01*
X817299Y280026D01*
X817245Y280034D01*
X814705Y280034D01*
X814640Y280023D01*
X814574Y280021D01*
X814531Y280003D01*
X814484Y279995D01*
X814427Y279961D01*
X814367Y279936D01*
X814332Y279905D01*
X814291Y279880D01*
X814250Y279829D01*
X814201Y279785D01*
X814179Y279743D01*
X814150Y279706D01*
X814129Y279644D01*
X814098Y279585D01*
X814090Y279531D01*
X814078Y279494D01*
X814078Y279490D01*
X814078Y279489D01*
X814079Y279454D01*
X814071Y279400D01*
X814071Y275590D01*
X814082Y275525D01*
X814084Y275459D01*
X814102Y275416D01*
X814110Y275369D01*
X814144Y275312D01*
X814169Y275252D01*
X814200Y275217D01*
X814225Y275176D01*
X814276Y275135D01*
X814320Y275086D01*
X814362Y275064D01*
X814399Y275035D01*
X814461Y275014D01*
X814520Y274983D01*
X814574Y274975D01*
X814611Y274963D01*
X814651Y274964D01*
X814705Y274956D01*
X817245Y274956D01*
X817310Y274967D01*
G37*
G36*
X1076390Y274967D02*
X1076390Y274967D01*
X1076456Y274969D01*
X1076499Y274987D01*
X1076546Y274995D01*
X1076603Y275029D01*
X1076663Y275054D01*
X1076698Y275085D01*
X1076739Y275110D01*
X1076781Y275161D01*
X1076829Y275205D01*
X1076851Y275247D01*
X1076880Y275284D01*
X1076901Y275346D01*
X1076932Y275405D01*
X1076940Y275459D01*
X1076952Y275496D01*
X1076951Y275536D01*
X1076959Y275590D01*
X1076959Y279400D01*
X1076948Y279465D01*
X1076946Y279531D01*
X1076928Y279574D01*
X1076920Y279621D01*
X1076886Y279678D01*
X1076861Y279738D01*
X1076830Y279773D01*
X1076805Y279814D01*
X1076754Y279856D01*
X1076710Y279904D01*
X1076668Y279926D01*
X1076631Y279955D01*
X1076569Y279976D01*
X1076510Y280007D01*
X1076456Y280015D01*
X1076419Y280027D01*
X1076379Y280026D01*
X1076325Y280034D01*
X1073785Y280034D01*
X1073720Y280023D01*
X1073654Y280021D01*
X1073611Y280003D01*
X1073564Y279995D01*
X1073507Y279961D01*
X1073447Y279936D01*
X1073412Y279905D01*
X1073371Y279880D01*
X1073330Y279829D01*
X1073281Y279785D01*
X1073259Y279743D01*
X1073230Y279706D01*
X1073209Y279644D01*
X1073178Y279585D01*
X1073170Y279531D01*
X1073158Y279494D01*
X1073158Y279490D01*
X1073158Y279489D01*
X1073159Y279454D01*
X1073151Y279400D01*
X1073151Y275590D01*
X1073162Y275525D01*
X1073164Y275459D01*
X1073182Y275416D01*
X1073190Y275369D01*
X1073224Y275312D01*
X1073249Y275252D01*
X1073280Y275217D01*
X1073305Y275176D01*
X1073356Y275135D01*
X1073400Y275086D01*
X1073442Y275064D01*
X1073479Y275035D01*
X1073541Y275014D01*
X1073600Y274983D01*
X1073654Y274975D01*
X1073691Y274963D01*
X1073731Y274964D01*
X1073785Y274956D01*
X1076325Y274956D01*
X1076390Y274967D01*
G37*
G36*
X558230Y274967D02*
X558230Y274967D01*
X558296Y274969D01*
X558339Y274987D01*
X558386Y274995D01*
X558443Y275029D01*
X558503Y275054D01*
X558538Y275085D01*
X558579Y275110D01*
X558621Y275161D01*
X558669Y275205D01*
X558691Y275247D01*
X558720Y275284D01*
X558741Y275346D01*
X558772Y275405D01*
X558780Y275459D01*
X558792Y275496D01*
X558791Y275536D01*
X558799Y275590D01*
X558799Y279400D01*
X558788Y279465D01*
X558786Y279531D01*
X558768Y279574D01*
X558760Y279621D01*
X558726Y279678D01*
X558701Y279738D01*
X558670Y279773D01*
X558645Y279814D01*
X558594Y279856D01*
X558550Y279904D01*
X558508Y279926D01*
X558471Y279955D01*
X558409Y279976D01*
X558350Y280007D01*
X558296Y280015D01*
X558259Y280027D01*
X558219Y280026D01*
X558165Y280034D01*
X555625Y280034D01*
X555560Y280023D01*
X555494Y280021D01*
X555451Y280003D01*
X555404Y279995D01*
X555347Y279961D01*
X555287Y279936D01*
X555252Y279905D01*
X555211Y279880D01*
X555170Y279829D01*
X555121Y279785D01*
X555099Y279743D01*
X555070Y279706D01*
X555049Y279644D01*
X555018Y279585D01*
X555010Y279531D01*
X554998Y279494D01*
X554998Y279490D01*
X554998Y279489D01*
X554999Y279454D01*
X554991Y279400D01*
X554991Y275590D01*
X555002Y275525D01*
X555004Y275459D01*
X555022Y275416D01*
X555030Y275369D01*
X555064Y275312D01*
X555089Y275252D01*
X555120Y275217D01*
X555145Y275176D01*
X555196Y275135D01*
X555240Y275086D01*
X555282Y275064D01*
X555319Y275035D01*
X555381Y275014D01*
X555440Y274983D01*
X555494Y274975D01*
X555531Y274963D01*
X555571Y274964D01*
X555625Y274956D01*
X558165Y274956D01*
X558230Y274967D01*
G37*
G36*
X299150Y274967D02*
X299150Y274967D01*
X299216Y274969D01*
X299259Y274987D01*
X299306Y274995D01*
X299363Y275029D01*
X299423Y275054D01*
X299458Y275085D01*
X299499Y275110D01*
X299541Y275161D01*
X299589Y275205D01*
X299611Y275247D01*
X299640Y275284D01*
X299661Y275346D01*
X299692Y275405D01*
X299700Y275459D01*
X299712Y275496D01*
X299711Y275536D01*
X299719Y275590D01*
X299719Y279400D01*
X299708Y279465D01*
X299706Y279531D01*
X299688Y279574D01*
X299680Y279621D01*
X299646Y279678D01*
X299621Y279738D01*
X299590Y279773D01*
X299565Y279814D01*
X299514Y279856D01*
X299470Y279904D01*
X299428Y279926D01*
X299391Y279955D01*
X299329Y279976D01*
X299270Y280007D01*
X299216Y280015D01*
X299179Y280027D01*
X299139Y280026D01*
X299085Y280034D01*
X296545Y280034D01*
X296480Y280023D01*
X296414Y280021D01*
X296371Y280003D01*
X296324Y279995D01*
X296267Y279961D01*
X296207Y279936D01*
X296172Y279905D01*
X296131Y279880D01*
X296090Y279829D01*
X296041Y279785D01*
X296019Y279743D01*
X295990Y279706D01*
X295969Y279644D01*
X295938Y279585D01*
X295930Y279531D01*
X295918Y279494D01*
X295918Y279490D01*
X295918Y279489D01*
X295919Y279454D01*
X295911Y279400D01*
X295911Y275590D01*
X295922Y275525D01*
X295924Y275459D01*
X295942Y275416D01*
X295950Y275369D01*
X295984Y275312D01*
X296009Y275252D01*
X296040Y275217D01*
X296065Y275176D01*
X296116Y275135D01*
X296160Y275086D01*
X296202Y275064D01*
X296239Y275035D01*
X296301Y275014D01*
X296360Y274983D01*
X296414Y274975D01*
X296451Y274963D01*
X296491Y274964D01*
X296545Y274956D01*
X299085Y274956D01*
X299150Y274967D01*
G37*
G36*
X40070Y274967D02*
X40070Y274967D01*
X40136Y274969D01*
X40179Y274987D01*
X40226Y274995D01*
X40283Y275029D01*
X40343Y275054D01*
X40378Y275085D01*
X40419Y275110D01*
X40461Y275161D01*
X40509Y275205D01*
X40531Y275247D01*
X40560Y275284D01*
X40581Y275346D01*
X40612Y275405D01*
X40620Y275459D01*
X40632Y275496D01*
X40631Y275536D01*
X40639Y275590D01*
X40639Y279400D01*
X40628Y279465D01*
X40626Y279531D01*
X40608Y279574D01*
X40600Y279621D01*
X40566Y279678D01*
X40541Y279738D01*
X40510Y279773D01*
X40485Y279814D01*
X40434Y279856D01*
X40390Y279904D01*
X40348Y279926D01*
X40311Y279955D01*
X40249Y279976D01*
X40190Y280007D01*
X40136Y280015D01*
X40099Y280027D01*
X40059Y280026D01*
X40005Y280034D01*
X37465Y280034D01*
X37400Y280023D01*
X37334Y280021D01*
X37291Y280003D01*
X37244Y279995D01*
X37187Y279961D01*
X37127Y279936D01*
X37092Y279905D01*
X37051Y279880D01*
X37010Y279829D01*
X36961Y279785D01*
X36939Y279743D01*
X36910Y279706D01*
X36889Y279644D01*
X36858Y279585D01*
X36850Y279531D01*
X36838Y279494D01*
X36838Y279490D01*
X36838Y279489D01*
X36839Y279454D01*
X36831Y279400D01*
X36831Y275590D01*
X36842Y275525D01*
X36844Y275459D01*
X36862Y275416D01*
X36870Y275369D01*
X36904Y275312D01*
X36929Y275252D01*
X36960Y275217D01*
X36985Y275176D01*
X37036Y275135D01*
X37080Y275086D01*
X37122Y275064D01*
X37159Y275035D01*
X37221Y275014D01*
X37280Y274983D01*
X37334Y274975D01*
X37371Y274963D01*
X37411Y274964D01*
X37465Y274956D01*
X40005Y274956D01*
X40070Y274967D01*
G37*
G36*
X1076390Y15887D02*
X1076390Y15887D01*
X1076456Y15889D01*
X1076499Y15907D01*
X1076546Y15915D01*
X1076603Y15949D01*
X1076663Y15974D01*
X1076698Y16005D01*
X1076739Y16030D01*
X1076781Y16081D01*
X1076829Y16125D01*
X1076851Y16167D01*
X1076880Y16204D01*
X1076901Y16266D01*
X1076932Y16325D01*
X1076940Y16379D01*
X1076952Y16416D01*
X1076951Y16456D01*
X1076959Y16510D01*
X1076959Y20320D01*
X1076948Y20385D01*
X1076946Y20451D01*
X1076928Y20494D01*
X1076920Y20541D01*
X1076886Y20598D01*
X1076861Y20658D01*
X1076830Y20693D01*
X1076805Y20734D01*
X1076754Y20776D01*
X1076710Y20824D01*
X1076668Y20846D01*
X1076631Y20875D01*
X1076569Y20896D01*
X1076510Y20927D01*
X1076456Y20935D01*
X1076419Y20947D01*
X1076379Y20946D01*
X1076325Y20954D01*
X1073785Y20954D01*
X1073720Y20943D01*
X1073654Y20941D01*
X1073611Y20923D01*
X1073564Y20915D01*
X1073507Y20881D01*
X1073447Y20856D01*
X1073412Y20825D01*
X1073371Y20800D01*
X1073330Y20749D01*
X1073281Y20705D01*
X1073259Y20663D01*
X1073230Y20626D01*
X1073209Y20564D01*
X1073178Y20505D01*
X1073170Y20451D01*
X1073158Y20414D01*
X1073158Y20410D01*
X1073158Y20409D01*
X1073159Y20374D01*
X1073151Y20320D01*
X1073151Y16510D01*
X1073162Y16445D01*
X1073164Y16379D01*
X1073182Y16336D01*
X1073190Y16289D01*
X1073224Y16232D01*
X1073249Y16172D01*
X1073280Y16137D01*
X1073305Y16096D01*
X1073356Y16055D01*
X1073400Y16006D01*
X1073442Y15984D01*
X1073479Y15955D01*
X1073541Y15934D01*
X1073600Y15903D01*
X1073654Y15895D01*
X1073691Y15883D01*
X1073731Y15884D01*
X1073785Y15876D01*
X1076325Y15876D01*
X1076390Y15887D01*
G37*
G36*
X817310Y15887D02*
X817310Y15887D01*
X817376Y15889D01*
X817419Y15907D01*
X817466Y15915D01*
X817523Y15949D01*
X817583Y15974D01*
X817618Y16005D01*
X817659Y16030D01*
X817701Y16081D01*
X817749Y16125D01*
X817771Y16167D01*
X817800Y16204D01*
X817821Y16266D01*
X817852Y16325D01*
X817860Y16379D01*
X817872Y16416D01*
X817871Y16456D01*
X817879Y16510D01*
X817879Y20320D01*
X817868Y20385D01*
X817866Y20451D01*
X817848Y20494D01*
X817840Y20541D01*
X817806Y20598D01*
X817781Y20658D01*
X817750Y20693D01*
X817725Y20734D01*
X817674Y20776D01*
X817630Y20824D01*
X817588Y20846D01*
X817551Y20875D01*
X817489Y20896D01*
X817430Y20927D01*
X817376Y20935D01*
X817339Y20947D01*
X817299Y20946D01*
X817245Y20954D01*
X814705Y20954D01*
X814640Y20943D01*
X814574Y20941D01*
X814531Y20923D01*
X814484Y20915D01*
X814427Y20881D01*
X814367Y20856D01*
X814332Y20825D01*
X814291Y20800D01*
X814250Y20749D01*
X814201Y20705D01*
X814179Y20663D01*
X814150Y20626D01*
X814129Y20564D01*
X814098Y20505D01*
X814090Y20451D01*
X814078Y20414D01*
X814078Y20410D01*
X814078Y20409D01*
X814079Y20374D01*
X814071Y20320D01*
X814071Y16510D01*
X814082Y16445D01*
X814084Y16379D01*
X814102Y16336D01*
X814110Y16289D01*
X814144Y16232D01*
X814169Y16172D01*
X814200Y16137D01*
X814225Y16096D01*
X814276Y16055D01*
X814320Y16006D01*
X814362Y15984D01*
X814399Y15955D01*
X814461Y15934D01*
X814520Y15903D01*
X814574Y15895D01*
X814611Y15883D01*
X814651Y15884D01*
X814705Y15876D01*
X817245Y15876D01*
X817310Y15887D01*
G37*
G36*
X558230Y15887D02*
X558230Y15887D01*
X558296Y15889D01*
X558339Y15907D01*
X558386Y15915D01*
X558443Y15949D01*
X558503Y15974D01*
X558538Y16005D01*
X558579Y16030D01*
X558621Y16081D01*
X558669Y16125D01*
X558691Y16167D01*
X558720Y16204D01*
X558741Y16266D01*
X558772Y16325D01*
X558780Y16379D01*
X558792Y16416D01*
X558791Y16456D01*
X558799Y16510D01*
X558799Y20320D01*
X558788Y20385D01*
X558786Y20451D01*
X558768Y20494D01*
X558760Y20541D01*
X558726Y20598D01*
X558701Y20658D01*
X558670Y20693D01*
X558645Y20734D01*
X558594Y20776D01*
X558550Y20824D01*
X558508Y20846D01*
X558471Y20875D01*
X558409Y20896D01*
X558350Y20927D01*
X558296Y20935D01*
X558259Y20947D01*
X558219Y20946D01*
X558165Y20954D01*
X555625Y20954D01*
X555560Y20943D01*
X555494Y20941D01*
X555451Y20923D01*
X555404Y20915D01*
X555347Y20881D01*
X555287Y20856D01*
X555252Y20825D01*
X555211Y20800D01*
X555170Y20749D01*
X555121Y20705D01*
X555099Y20663D01*
X555070Y20626D01*
X555049Y20564D01*
X555018Y20505D01*
X555010Y20451D01*
X554998Y20414D01*
X554998Y20410D01*
X554998Y20409D01*
X554999Y20374D01*
X554991Y20320D01*
X554991Y16510D01*
X555002Y16445D01*
X555004Y16379D01*
X555022Y16336D01*
X555030Y16289D01*
X555064Y16232D01*
X555089Y16172D01*
X555120Y16137D01*
X555145Y16096D01*
X555196Y16055D01*
X555240Y16006D01*
X555282Y15984D01*
X555319Y15955D01*
X555381Y15934D01*
X555440Y15903D01*
X555494Y15895D01*
X555531Y15883D01*
X555571Y15884D01*
X555625Y15876D01*
X558165Y15876D01*
X558230Y15887D01*
G37*
G36*
X299150Y15887D02*
X299150Y15887D01*
X299216Y15889D01*
X299259Y15907D01*
X299306Y15915D01*
X299363Y15949D01*
X299423Y15974D01*
X299458Y16005D01*
X299499Y16030D01*
X299541Y16081D01*
X299589Y16125D01*
X299611Y16167D01*
X299640Y16204D01*
X299661Y16266D01*
X299692Y16325D01*
X299700Y16379D01*
X299712Y16416D01*
X299711Y16456D01*
X299719Y16510D01*
X299719Y20320D01*
X299708Y20385D01*
X299706Y20451D01*
X299688Y20494D01*
X299680Y20541D01*
X299646Y20598D01*
X299621Y20658D01*
X299590Y20693D01*
X299565Y20734D01*
X299514Y20776D01*
X299470Y20824D01*
X299428Y20846D01*
X299391Y20875D01*
X299329Y20896D01*
X299270Y20927D01*
X299216Y20935D01*
X299179Y20947D01*
X299139Y20946D01*
X299085Y20954D01*
X296545Y20954D01*
X296480Y20943D01*
X296414Y20941D01*
X296371Y20923D01*
X296324Y20915D01*
X296267Y20881D01*
X296207Y20856D01*
X296172Y20825D01*
X296131Y20800D01*
X296090Y20749D01*
X296041Y20705D01*
X296019Y20663D01*
X295990Y20626D01*
X295969Y20564D01*
X295938Y20505D01*
X295930Y20451D01*
X295918Y20414D01*
X295918Y20410D01*
X295918Y20409D01*
X295919Y20374D01*
X295911Y20320D01*
X295911Y16510D01*
X295922Y16445D01*
X295924Y16379D01*
X295942Y16336D01*
X295950Y16289D01*
X295984Y16232D01*
X296009Y16172D01*
X296040Y16137D01*
X296065Y16096D01*
X296116Y16055D01*
X296160Y16006D01*
X296202Y15984D01*
X296239Y15955D01*
X296301Y15934D01*
X296360Y15903D01*
X296414Y15895D01*
X296451Y15883D01*
X296491Y15884D01*
X296545Y15876D01*
X299085Y15876D01*
X299150Y15887D01*
G37*
G36*
X40070Y15887D02*
X40070Y15887D01*
X40136Y15889D01*
X40179Y15907D01*
X40226Y15915D01*
X40283Y15949D01*
X40343Y15974D01*
X40378Y16005D01*
X40419Y16030D01*
X40461Y16081D01*
X40509Y16125D01*
X40531Y16167D01*
X40560Y16204D01*
X40581Y16266D01*
X40612Y16325D01*
X40620Y16379D01*
X40632Y16416D01*
X40631Y16456D01*
X40639Y16510D01*
X40639Y20320D01*
X40628Y20385D01*
X40626Y20451D01*
X40608Y20494D01*
X40600Y20541D01*
X40566Y20598D01*
X40541Y20658D01*
X40510Y20693D01*
X40485Y20734D01*
X40434Y20776D01*
X40390Y20824D01*
X40348Y20846D01*
X40311Y20875D01*
X40249Y20896D01*
X40190Y20927D01*
X40136Y20935D01*
X40099Y20947D01*
X40059Y20946D01*
X40005Y20954D01*
X37465Y20954D01*
X37400Y20943D01*
X37334Y20941D01*
X37291Y20923D01*
X37244Y20915D01*
X37187Y20881D01*
X37127Y20856D01*
X37092Y20825D01*
X37051Y20800D01*
X37010Y20749D01*
X36961Y20705D01*
X36939Y20663D01*
X36910Y20626D01*
X36889Y20564D01*
X36858Y20505D01*
X36850Y20451D01*
X36838Y20414D01*
X36838Y20410D01*
X36838Y20409D01*
X36839Y20374D01*
X36831Y20320D01*
X36831Y16510D01*
X36842Y16445D01*
X36844Y16379D01*
X36862Y16336D01*
X36870Y16289D01*
X36904Y16232D01*
X36929Y16172D01*
X36960Y16137D01*
X36985Y16096D01*
X37036Y16055D01*
X37080Y16006D01*
X37122Y15984D01*
X37159Y15955D01*
X37221Y15934D01*
X37280Y15903D01*
X37334Y15895D01*
X37371Y15883D01*
X37411Y15884D01*
X37465Y15876D01*
X40005Y15876D01*
X40070Y15887D01*
G37*
D10*
X197803Y195898D03*
X197803Y177483D03*
X456883Y195898D03*
X456883Y177483D03*
X715963Y195898D03*
X715963Y177483D03*
X975043Y195898D03*
X975043Y177483D03*
X1234123Y195898D03*
X1234123Y177483D03*
X197803Y454978D03*
X197803Y436563D03*
X456883Y454978D03*
X456883Y436563D03*
X715963Y454978D03*
X715963Y436563D03*
X975043Y454978D03*
X975043Y436563D03*
X1234123Y454978D03*
X1234123Y436563D03*
X197803Y714058D03*
X197803Y695643D03*
X456883Y714058D03*
X456883Y695643D03*
X715963Y714058D03*
X715963Y695643D03*
X975043Y714058D03*
X975043Y695643D03*
X1234123Y714058D03*
X1234123Y695643D03*
X197803Y973138D03*
X197803Y954723D03*
X456883Y973138D03*
X456883Y954723D03*
X715963Y973138D03*
X715963Y954723D03*
X975043Y973138D03*
X975043Y954723D03*
X1234123Y973138D03*
X1234123Y954723D03*
X197803Y1232218D03*
X197803Y1213803D03*
X456883Y1232218D03*
X456883Y1213803D03*
X715963Y1232218D03*
X715963Y1213803D03*
X975043Y1232218D03*
X975043Y1213803D03*
X1234123Y1232218D03*
X1234123Y1213803D03*
X197803Y1491298D03*
X197803Y1472883D03*
X456883Y1491298D03*
X456883Y1472883D03*
X715963Y1491298D03*
X715963Y1472883D03*
X975043Y1491298D03*
X975043Y1472883D03*
X1234123Y1491298D03*
X1234123Y1472883D03*
X197803Y1750378D03*
X197803Y1731963D03*
X456883Y1750378D03*
X456883Y1731963D03*
X715963Y1750378D03*
X715963Y1731963D03*
X975043Y1750378D03*
X975043Y1731963D03*
X1234123Y1750378D03*
X1234123Y1731963D03*
D11*
X239950Y99000D03*
X239950Y155000D03*
D12*
X203200Y112000D03*
X203200Y122000D03*
X203200Y132000D03*
X203200Y142000D03*
D11*
X14050Y155000D03*
X14050Y99000D03*
D12*
X50800Y142000D03*
X50800Y132000D03*
X50800Y122000D03*
X50800Y112000D03*
D13*
X12700Y12700D03*
X246380Y246380D03*
D14*
X152400Y12700D03*
X127000Y12700D03*
X101600Y12700D03*
X76200Y12700D03*
D15*
X184785Y84700D03*
X184785Y67700D03*
D16*
X207400Y44450D03*
X224400Y44450D03*
X207400Y63500D03*
X224400Y63500D03*
D15*
X70485Y84700D03*
X70485Y67700D03*
D17*
X165100Y104200D03*
X152400Y104200D03*
X139700Y104200D03*
X127000Y104200D03*
X114300Y104200D03*
X101600Y104200D03*
X88900Y104200D03*
X88900Y48200D03*
X101600Y48200D03*
X114300Y48200D03*
X127000Y48200D03*
X139700Y48200D03*
X152400Y48200D03*
X165100Y48200D03*
D16*
X29600Y38100D03*
X46600Y38100D03*
D18*
X43380Y53660D02*
X43380Y60640D01*
X50360Y60640D01*
X50360Y53660D01*
X43380Y53660D01*
X43380Y58460D02*
X50360Y58460D01*
X25840Y60640D02*
X25840Y53660D01*
X25840Y60640D02*
X32820Y60640D01*
X32820Y53660D01*
X25840Y53660D01*
X25840Y58460D02*
X32820Y58460D01*
D14*
X177800Y12700D03*
D16*
X207400Y25400D03*
X224400Y25400D03*
D19*
X228600Y228600D03*
X25400Y228600D03*
D15*
X190500Y237100D03*
X190500Y220100D03*
D20*
X38735Y23622D03*
X38735Y13208D03*
D16*
X42300Y171450D03*
X59300Y171450D03*
D11*
X499030Y99000D03*
X499030Y155000D03*
D12*
X462280Y112000D03*
X462280Y122000D03*
X462280Y132000D03*
X462280Y142000D03*
D11*
X273130Y155000D03*
X273130Y99000D03*
D12*
X309880Y142000D03*
X309880Y132000D03*
X309880Y122000D03*
X309880Y112000D03*
D13*
X271780Y12700D03*
X505460Y246380D03*
D14*
X411480Y12700D03*
X386080Y12700D03*
X360680Y12700D03*
X335280Y12700D03*
D15*
X443865Y84700D03*
X443865Y67700D03*
D16*
X466480Y44450D03*
X483480Y44450D03*
X466480Y63500D03*
X483480Y63500D03*
D15*
X329565Y84700D03*
X329565Y67700D03*
D17*
X424180Y104200D03*
X411480Y104200D03*
X398780Y104200D03*
X386080Y104200D03*
X373380Y104200D03*
X360680Y104200D03*
X347980Y104200D03*
X347980Y48200D03*
X360680Y48200D03*
X373380Y48200D03*
X386080Y48200D03*
X398780Y48200D03*
X411480Y48200D03*
X424180Y48200D03*
D16*
X288680Y38100D03*
X305680Y38100D03*
D18*
X302460Y53660D02*
X302460Y60640D01*
X309440Y60640D01*
X309440Y53660D01*
X302460Y53660D01*
X302460Y58460D02*
X309440Y58460D01*
X284920Y60640D02*
X284920Y53660D01*
X284920Y60640D02*
X291900Y60640D01*
X291900Y53660D01*
X284920Y53660D01*
X284920Y58460D02*
X291900Y58460D01*
D14*
X436880Y12700D03*
D16*
X466480Y25400D03*
X483480Y25400D03*
D19*
X487680Y228600D03*
X284480Y228600D03*
D15*
X449580Y237100D03*
X449580Y220100D03*
D20*
X297815Y23622D03*
X297815Y13208D03*
D16*
X301380Y171450D03*
X318380Y171450D03*
D11*
X758110Y99000D03*
X758110Y155000D03*
D12*
X721360Y112000D03*
X721360Y122000D03*
X721360Y132000D03*
X721360Y142000D03*
D11*
X532210Y155000D03*
X532210Y99000D03*
D12*
X568960Y142000D03*
X568960Y132000D03*
X568960Y122000D03*
X568960Y112000D03*
D13*
X530860Y12700D03*
X764540Y246380D03*
D14*
X670560Y12700D03*
X645160Y12700D03*
X619760Y12700D03*
X594360Y12700D03*
D15*
X702945Y84700D03*
X702945Y67700D03*
D16*
X725560Y44450D03*
X742560Y44450D03*
X725560Y63500D03*
X742560Y63500D03*
D15*
X588645Y84700D03*
X588645Y67700D03*
D17*
X683260Y104200D03*
X670560Y104200D03*
X657860Y104200D03*
X645160Y104200D03*
X632460Y104200D03*
X619760Y104200D03*
X607060Y104200D03*
X607060Y48200D03*
X619760Y48200D03*
X632460Y48200D03*
X645160Y48200D03*
X657860Y48200D03*
X670560Y48200D03*
X683260Y48200D03*
D16*
X547760Y38100D03*
X564760Y38100D03*
D18*
X561540Y53660D02*
X561540Y60640D01*
X568520Y60640D01*
X568520Y53660D01*
X561540Y53660D01*
X561540Y58460D02*
X568520Y58460D01*
X544000Y60640D02*
X544000Y53660D01*
X544000Y60640D02*
X550980Y60640D01*
X550980Y53660D01*
X544000Y53660D01*
X544000Y58460D02*
X550980Y58460D01*
D14*
X695960Y12700D03*
D16*
X725560Y25400D03*
X742560Y25400D03*
D19*
X746760Y228600D03*
X543560Y228600D03*
D15*
X708660Y237100D03*
X708660Y220100D03*
D20*
X556895Y23622D03*
X556895Y13208D03*
D16*
X560460Y171450D03*
X577460Y171450D03*
D11*
X1017190Y99000D03*
X1017190Y155000D03*
D12*
X980440Y112000D03*
X980440Y122000D03*
X980440Y132000D03*
X980440Y142000D03*
D11*
X791290Y155000D03*
X791290Y99000D03*
D12*
X828040Y142000D03*
X828040Y132000D03*
X828040Y122000D03*
X828040Y112000D03*
D13*
X789940Y12700D03*
X1023620Y246380D03*
D14*
X929640Y12700D03*
X904240Y12700D03*
X878840Y12700D03*
X853440Y12700D03*
D15*
X962025Y84700D03*
X962025Y67700D03*
D16*
X984640Y44450D03*
X1001640Y44450D03*
X984640Y63500D03*
X1001640Y63500D03*
D15*
X847725Y84700D03*
X847725Y67700D03*
D17*
X942340Y104200D03*
X929640Y104200D03*
X916940Y104200D03*
X904240Y104200D03*
X891540Y104200D03*
X878840Y104200D03*
X866140Y104200D03*
X866140Y48200D03*
X878840Y48200D03*
X891540Y48200D03*
X904240Y48200D03*
X916940Y48200D03*
X929640Y48200D03*
X942340Y48200D03*
D16*
X806840Y38100D03*
X823840Y38100D03*
D18*
X820620Y53660D02*
X820620Y60640D01*
X827600Y60640D01*
X827600Y53660D01*
X820620Y53660D01*
X820620Y58460D02*
X827600Y58460D01*
X803080Y60640D02*
X803080Y53660D01*
X803080Y60640D02*
X810060Y60640D01*
X810060Y53660D01*
X803080Y53660D01*
X803080Y58460D02*
X810060Y58460D01*
D14*
X955040Y12700D03*
D16*
X984640Y25400D03*
X1001640Y25400D03*
D19*
X1005840Y228600D03*
X802640Y228600D03*
D15*
X967740Y237100D03*
X967740Y220100D03*
D20*
X815975Y23622D03*
X815975Y13208D03*
D16*
X819540Y171450D03*
X836540Y171450D03*
D11*
X1276270Y99000D03*
X1276270Y155000D03*
D12*
X1239520Y112000D03*
X1239520Y122000D03*
X1239520Y132000D03*
X1239520Y142000D03*
D11*
X1050370Y155000D03*
X1050370Y99000D03*
D12*
X1087120Y142000D03*
X1087120Y132000D03*
X1087120Y122000D03*
X1087120Y112000D03*
D13*
X1049020Y12700D03*
X1282700Y246380D03*
D14*
X1188720Y12700D03*
X1163320Y12700D03*
X1137920Y12700D03*
X1112520Y12700D03*
D15*
X1221105Y84700D03*
X1221105Y67700D03*
D16*
X1243720Y44450D03*
X1260720Y44450D03*
X1243720Y63500D03*
X1260720Y63500D03*
D15*
X1106805Y84700D03*
X1106805Y67700D03*
D17*
X1201420Y104200D03*
X1188720Y104200D03*
X1176020Y104200D03*
X1163320Y104200D03*
X1150620Y104200D03*
X1137920Y104200D03*
X1125220Y104200D03*
X1125220Y48200D03*
X1137920Y48200D03*
X1150620Y48200D03*
X1163320Y48200D03*
X1176020Y48200D03*
X1188720Y48200D03*
X1201420Y48200D03*
D16*
X1065920Y38100D03*
X1082920Y38100D03*
D18*
X1079700Y53660D02*
X1079700Y60640D01*
X1086680Y60640D01*
X1086680Y53660D01*
X1079700Y53660D01*
X1079700Y58460D02*
X1086680Y58460D01*
X1062160Y60640D02*
X1062160Y53660D01*
X1062160Y60640D02*
X1069140Y60640D01*
X1069140Y53660D01*
X1062160Y53660D01*
X1062160Y58460D02*
X1069140Y58460D01*
D14*
X1214120Y12700D03*
D16*
X1243720Y25400D03*
X1260720Y25400D03*
D19*
X1264920Y228600D03*
X1061720Y228600D03*
D15*
X1226820Y237100D03*
X1226820Y220100D03*
D20*
X1075055Y23622D03*
X1075055Y13208D03*
D16*
X1078620Y171450D03*
X1095620Y171450D03*
D11*
X239950Y358080D03*
X239950Y414080D03*
D12*
X203200Y371080D03*
X203200Y381080D03*
X203200Y391080D03*
X203200Y401080D03*
D11*
X14050Y414080D03*
X14050Y358080D03*
D12*
X50800Y401080D03*
X50800Y391080D03*
X50800Y381080D03*
X50800Y371080D03*
D13*
X12700Y271780D03*
X246380Y505460D03*
D14*
X152400Y271780D03*
X127000Y271780D03*
X101600Y271780D03*
X76200Y271780D03*
D15*
X184785Y343780D03*
X184785Y326780D03*
D16*
X207400Y303530D03*
X224400Y303530D03*
X207400Y322580D03*
X224400Y322580D03*
D15*
X70485Y343780D03*
X70485Y326780D03*
D17*
X165100Y363280D03*
X152400Y363280D03*
X139700Y363280D03*
X127000Y363280D03*
X114300Y363280D03*
X101600Y363280D03*
X88900Y363280D03*
X88900Y307280D03*
X101600Y307280D03*
X114300Y307280D03*
X127000Y307280D03*
X139700Y307280D03*
X152400Y307280D03*
X165100Y307280D03*
D16*
X29600Y297180D03*
X46600Y297180D03*
D18*
X43380Y312740D02*
X43380Y319720D01*
X50360Y319720D01*
X50360Y312740D01*
X43380Y312740D01*
X43380Y317540D02*
X50360Y317540D01*
X25840Y319720D02*
X25840Y312740D01*
X25840Y319720D02*
X32820Y319720D01*
X32820Y312740D01*
X25840Y312740D01*
X25840Y317540D02*
X32820Y317540D01*
D14*
X177800Y271780D03*
D16*
X207400Y284480D03*
X224400Y284480D03*
D19*
X228600Y487680D03*
X25400Y487680D03*
D15*
X190500Y496180D03*
X190500Y479180D03*
D20*
X38735Y282702D03*
X38735Y272288D03*
D16*
X42300Y430530D03*
X59300Y430530D03*
D11*
X499030Y358080D03*
X499030Y414080D03*
D12*
X462280Y371080D03*
X462280Y381080D03*
X462280Y391080D03*
X462280Y401080D03*
D11*
X273130Y414080D03*
X273130Y358080D03*
D12*
X309880Y401080D03*
X309880Y391080D03*
X309880Y381080D03*
X309880Y371080D03*
D13*
X271780Y271780D03*
X505460Y505460D03*
D14*
X411480Y271780D03*
X386080Y271780D03*
X360680Y271780D03*
X335280Y271780D03*
D15*
X443865Y343780D03*
X443865Y326780D03*
D16*
X466480Y303530D03*
X483480Y303530D03*
X466480Y322580D03*
X483480Y322580D03*
D15*
X329565Y343780D03*
X329565Y326780D03*
D17*
X424180Y363280D03*
X411480Y363280D03*
X398780Y363280D03*
X386080Y363280D03*
X373380Y363280D03*
X360680Y363280D03*
X347980Y363280D03*
X347980Y307280D03*
X360680Y307280D03*
X373380Y307280D03*
X386080Y307280D03*
X398780Y307280D03*
X411480Y307280D03*
X424180Y307280D03*
D16*
X288680Y297180D03*
X305680Y297180D03*
D18*
X302460Y312740D02*
X302460Y319720D01*
X309440Y319720D01*
X309440Y312740D01*
X302460Y312740D01*
X302460Y317540D02*
X309440Y317540D01*
X284920Y319720D02*
X284920Y312740D01*
X284920Y319720D02*
X291900Y319720D01*
X291900Y312740D01*
X284920Y312740D01*
X284920Y317540D02*
X291900Y317540D01*
D14*
X436880Y271780D03*
D16*
X466480Y284480D03*
X483480Y284480D03*
D19*
X487680Y487680D03*
X284480Y487680D03*
D15*
X449580Y496180D03*
X449580Y479180D03*
D20*
X297815Y282702D03*
X297815Y272288D03*
D16*
X301380Y430530D03*
X318380Y430530D03*
D11*
X758110Y358080D03*
X758110Y414080D03*
D12*
X721360Y371080D03*
X721360Y381080D03*
X721360Y391080D03*
X721360Y401080D03*
D11*
X532210Y414080D03*
X532210Y358080D03*
D12*
X568960Y401080D03*
X568960Y391080D03*
X568960Y381080D03*
X568960Y371080D03*
D13*
X530860Y271780D03*
X764540Y505460D03*
D14*
X670560Y271780D03*
X645160Y271780D03*
X619760Y271780D03*
X594360Y271780D03*
D15*
X702945Y343780D03*
X702945Y326780D03*
D16*
X725560Y303530D03*
X742560Y303530D03*
X725560Y322580D03*
X742560Y322580D03*
D15*
X588645Y343780D03*
X588645Y326780D03*
D17*
X683260Y363280D03*
X670560Y363280D03*
X657860Y363280D03*
X645160Y363280D03*
X632460Y363280D03*
X619760Y363280D03*
X607060Y363280D03*
X607060Y307280D03*
X619760Y307280D03*
X632460Y307280D03*
X645160Y307280D03*
X657860Y307280D03*
X670560Y307280D03*
X683260Y307280D03*
D16*
X547760Y297180D03*
X564760Y297180D03*
D18*
X561540Y312740D02*
X561540Y319720D01*
X568520Y319720D01*
X568520Y312740D01*
X561540Y312740D01*
X561540Y317540D02*
X568520Y317540D01*
X544000Y319720D02*
X544000Y312740D01*
X544000Y319720D02*
X550980Y319720D01*
X550980Y312740D01*
X544000Y312740D01*
X544000Y317540D02*
X550980Y317540D01*
D14*
X695960Y271780D03*
D16*
X725560Y284480D03*
X742560Y284480D03*
D19*
X746760Y487680D03*
X543560Y487680D03*
D15*
X708660Y496180D03*
X708660Y479180D03*
D20*
X556895Y282702D03*
X556895Y272288D03*
D16*
X560460Y430530D03*
X577460Y430530D03*
D11*
X1017190Y358080D03*
X1017190Y414080D03*
D12*
X980440Y371080D03*
X980440Y381080D03*
X980440Y391080D03*
X980440Y401080D03*
D11*
X791290Y414080D03*
X791290Y358080D03*
D12*
X828040Y401080D03*
X828040Y391080D03*
X828040Y381080D03*
X828040Y371080D03*
D13*
X789940Y271780D03*
X1023620Y505460D03*
D14*
X929640Y271780D03*
X904240Y271780D03*
X878840Y271780D03*
X853440Y271780D03*
D15*
X962025Y343780D03*
X962025Y326780D03*
D16*
X984640Y303530D03*
X1001640Y303530D03*
X984640Y322580D03*
X1001640Y322580D03*
D15*
X847725Y343780D03*
X847725Y326780D03*
D17*
X942340Y363280D03*
X929640Y363280D03*
X916940Y363280D03*
X904240Y363280D03*
X891540Y363280D03*
X878840Y363280D03*
X866140Y363280D03*
X866140Y307280D03*
X878840Y307280D03*
X891540Y307280D03*
X904240Y307280D03*
X916940Y307280D03*
X929640Y307280D03*
X942340Y307280D03*
D16*
X806840Y297180D03*
X823840Y297180D03*
D18*
X820620Y312740D02*
X820620Y319720D01*
X827600Y319720D01*
X827600Y312740D01*
X820620Y312740D01*
X820620Y317540D02*
X827600Y317540D01*
X803080Y319720D02*
X803080Y312740D01*
X803080Y319720D02*
X810060Y319720D01*
X810060Y312740D01*
X803080Y312740D01*
X803080Y317540D02*
X810060Y317540D01*
D14*
X955040Y271780D03*
D16*
X984640Y284480D03*
X1001640Y284480D03*
D19*
X1005840Y487680D03*
X802640Y487680D03*
D15*
X967740Y496180D03*
X967740Y479180D03*
D20*
X815975Y282702D03*
X815975Y272288D03*
D16*
X819540Y430530D03*
X836540Y430530D03*
D11*
X1276270Y358080D03*
X1276270Y414080D03*
D12*
X1239520Y371080D03*
X1239520Y381080D03*
X1239520Y391080D03*
X1239520Y401080D03*
D11*
X1050370Y414080D03*
X1050370Y358080D03*
D12*
X1087120Y401080D03*
X1087120Y391080D03*
X1087120Y381080D03*
X1087120Y371080D03*
D13*
X1049020Y271780D03*
X1282700Y505460D03*
D14*
X1188720Y271780D03*
X1163320Y271780D03*
X1137920Y271780D03*
X1112520Y271780D03*
D15*
X1221105Y343780D03*
X1221105Y326780D03*
D16*
X1243720Y303530D03*
X1260720Y303530D03*
X1243720Y322580D03*
X1260720Y322580D03*
D15*
X1106805Y343780D03*
X1106805Y326780D03*
D17*
X1201420Y363280D03*
X1188720Y363280D03*
X1176020Y363280D03*
X1163320Y363280D03*
X1150620Y363280D03*
X1137920Y363280D03*
X1125220Y363280D03*
X1125220Y307280D03*
X1137920Y307280D03*
X1150620Y307280D03*
X1163320Y307280D03*
X1176020Y307280D03*
X1188720Y307280D03*
X1201420Y307280D03*
D16*
X1065920Y297180D03*
X1082920Y297180D03*
D18*
X1079700Y312740D02*
X1079700Y319720D01*
X1086680Y319720D01*
X1086680Y312740D01*
X1079700Y312740D01*
X1079700Y317540D02*
X1086680Y317540D01*
X1062160Y319720D02*
X1062160Y312740D01*
X1062160Y319720D02*
X1069140Y319720D01*
X1069140Y312740D01*
X1062160Y312740D01*
X1062160Y317540D02*
X1069140Y317540D01*
D14*
X1214120Y271780D03*
D16*
X1243720Y284480D03*
X1260720Y284480D03*
D19*
X1264920Y487680D03*
X1061720Y487680D03*
D15*
X1226820Y496180D03*
X1226820Y479180D03*
D20*
X1075055Y282702D03*
X1075055Y272288D03*
D16*
X1078620Y430530D03*
X1095620Y430530D03*
D11*
X239950Y617160D03*
X239950Y673160D03*
D12*
X203200Y630160D03*
X203200Y640160D03*
X203200Y650160D03*
X203200Y660160D03*
D11*
X14050Y673160D03*
X14050Y617160D03*
D12*
X50800Y660160D03*
X50800Y650160D03*
X50800Y640160D03*
X50800Y630160D03*
D13*
X12700Y530860D03*
X246380Y764540D03*
D14*
X152400Y530860D03*
X127000Y530860D03*
X101600Y530860D03*
X76200Y530860D03*
D15*
X184785Y602860D03*
X184785Y585860D03*
D16*
X207400Y562610D03*
X224400Y562610D03*
X207400Y581660D03*
X224400Y581660D03*
D15*
X70485Y602860D03*
X70485Y585860D03*
D17*
X165100Y622360D03*
X152400Y622360D03*
X139700Y622360D03*
X127000Y622360D03*
X114300Y622360D03*
X101600Y622360D03*
X88900Y622360D03*
X88900Y566360D03*
X101600Y566360D03*
X114300Y566360D03*
X127000Y566360D03*
X139700Y566360D03*
X152400Y566360D03*
X165100Y566360D03*
D16*
X29600Y556260D03*
X46600Y556260D03*
D18*
X43380Y571820D02*
X43380Y578800D01*
X50360Y578800D01*
X50360Y571820D01*
X43380Y571820D01*
X43380Y576620D02*
X50360Y576620D01*
X25840Y578800D02*
X25840Y571820D01*
X25840Y578800D02*
X32820Y578800D01*
X32820Y571820D01*
X25840Y571820D01*
X25840Y576620D02*
X32820Y576620D01*
D14*
X177800Y530860D03*
D16*
X207400Y543560D03*
X224400Y543560D03*
D19*
X228600Y746760D03*
X25400Y746760D03*
D15*
X190500Y755260D03*
X190500Y738260D03*
D20*
X38735Y541782D03*
X38735Y531368D03*
D16*
X42300Y689610D03*
X59300Y689610D03*
D11*
X499030Y617160D03*
X499030Y673160D03*
D12*
X462280Y630160D03*
X462280Y640160D03*
X462280Y650160D03*
X462280Y660160D03*
D11*
X273130Y673160D03*
X273130Y617160D03*
D12*
X309880Y660160D03*
X309880Y650160D03*
X309880Y640160D03*
X309880Y630160D03*
D13*
X271780Y530860D03*
X505460Y764540D03*
D14*
X411480Y530860D03*
X386080Y530860D03*
X360680Y530860D03*
X335280Y530860D03*
D15*
X443865Y602860D03*
X443865Y585860D03*
D16*
X466480Y562610D03*
X483480Y562610D03*
X466480Y581660D03*
X483480Y581660D03*
D15*
X329565Y602860D03*
X329565Y585860D03*
D17*
X424180Y622360D03*
X411480Y622360D03*
X398780Y622360D03*
X386080Y622360D03*
X373380Y622360D03*
X360680Y622360D03*
X347980Y622360D03*
X347980Y566360D03*
X360680Y566360D03*
X373380Y566360D03*
X386080Y566360D03*
X398780Y566360D03*
X411480Y566360D03*
X424180Y566360D03*
D16*
X288680Y556260D03*
X305680Y556260D03*
D18*
X302460Y571820D02*
X302460Y578800D01*
X309440Y578800D01*
X309440Y571820D01*
X302460Y571820D01*
X302460Y576620D02*
X309440Y576620D01*
X284920Y578800D02*
X284920Y571820D01*
X284920Y578800D02*
X291900Y578800D01*
X291900Y571820D01*
X284920Y571820D01*
X284920Y576620D02*
X291900Y576620D01*
D14*
X436880Y530860D03*
D16*
X466480Y543560D03*
X483480Y543560D03*
D19*
X487680Y746760D03*
X284480Y746760D03*
D15*
X449580Y755260D03*
X449580Y738260D03*
D20*
X297815Y541782D03*
X297815Y531368D03*
D16*
X301380Y689610D03*
X318380Y689610D03*
D11*
X758110Y617160D03*
X758110Y673160D03*
D12*
X721360Y630160D03*
X721360Y640160D03*
X721360Y650160D03*
X721360Y660160D03*
D11*
X532210Y673160D03*
X532210Y617160D03*
D12*
X568960Y660160D03*
X568960Y650160D03*
X568960Y640160D03*
X568960Y630160D03*
D13*
X530860Y530860D03*
X764540Y764540D03*
D14*
X670560Y530860D03*
X645160Y530860D03*
X619760Y530860D03*
X594360Y530860D03*
D15*
X702945Y602860D03*
X702945Y585860D03*
D16*
X725560Y562610D03*
X742560Y562610D03*
X725560Y581660D03*
X742560Y581660D03*
D15*
X588645Y602860D03*
X588645Y585860D03*
D17*
X683260Y622360D03*
X670560Y622360D03*
X657860Y622360D03*
X645160Y622360D03*
X632460Y622360D03*
X619760Y622360D03*
X607060Y622360D03*
X607060Y566360D03*
X619760Y566360D03*
X632460Y566360D03*
X645160Y566360D03*
X657860Y566360D03*
X670560Y566360D03*
X683260Y566360D03*
D16*
X547760Y556260D03*
X564760Y556260D03*
D18*
X561540Y571820D02*
X561540Y578800D01*
X568520Y578800D01*
X568520Y571820D01*
X561540Y571820D01*
X561540Y576620D02*
X568520Y576620D01*
X544000Y578800D02*
X544000Y571820D01*
X544000Y578800D02*
X550980Y578800D01*
X550980Y571820D01*
X544000Y571820D01*
X544000Y576620D02*
X550980Y576620D01*
D14*
X695960Y530860D03*
D16*
X725560Y543560D03*
X742560Y543560D03*
D19*
X746760Y746760D03*
X543560Y746760D03*
D15*
X708660Y755260D03*
X708660Y738260D03*
D20*
X556895Y541782D03*
X556895Y531368D03*
D16*
X560460Y689610D03*
X577460Y689610D03*
D11*
X1017190Y617160D03*
X1017190Y673160D03*
D12*
X980440Y630160D03*
X980440Y640160D03*
X980440Y650160D03*
X980440Y660160D03*
D11*
X791290Y673160D03*
X791290Y617160D03*
D12*
X828040Y660160D03*
X828040Y650160D03*
X828040Y640160D03*
X828040Y630160D03*
D13*
X789940Y530860D03*
X1023620Y764540D03*
D14*
X929640Y530860D03*
X904240Y530860D03*
X878840Y530860D03*
X853440Y530860D03*
D15*
X962025Y602860D03*
X962025Y585860D03*
D16*
X984640Y562610D03*
X1001640Y562610D03*
X984640Y581660D03*
X1001640Y581660D03*
D15*
X847725Y602860D03*
X847725Y585860D03*
D17*
X942340Y622360D03*
X929640Y622360D03*
X916940Y622360D03*
X904240Y622360D03*
X891540Y622360D03*
X878840Y622360D03*
X866140Y622360D03*
X866140Y566360D03*
X878840Y566360D03*
X891540Y566360D03*
X904240Y566360D03*
X916940Y566360D03*
X929640Y566360D03*
X942340Y566360D03*
D16*
X806840Y556260D03*
X823840Y556260D03*
D18*
X820620Y571820D02*
X820620Y578800D01*
X827600Y578800D01*
X827600Y571820D01*
X820620Y571820D01*
X820620Y576620D02*
X827600Y576620D01*
X803080Y578800D02*
X803080Y571820D01*
X803080Y578800D02*
X810060Y578800D01*
X810060Y571820D01*
X803080Y571820D01*
X803080Y576620D02*
X810060Y576620D01*
D14*
X955040Y530860D03*
D16*
X984640Y543560D03*
X1001640Y543560D03*
D19*
X1005840Y746760D03*
X802640Y746760D03*
D15*
X967740Y755260D03*
X967740Y738260D03*
D20*
X815975Y541782D03*
X815975Y531368D03*
D16*
X819540Y689610D03*
X836540Y689610D03*
D11*
X1276270Y617160D03*
X1276270Y673160D03*
D12*
X1239520Y630160D03*
X1239520Y640160D03*
X1239520Y650160D03*
X1239520Y660160D03*
D11*
X1050370Y673160D03*
X1050370Y617160D03*
D12*
X1087120Y660160D03*
X1087120Y650160D03*
X1087120Y640160D03*
X1087120Y630160D03*
D13*
X1049020Y530860D03*
X1282700Y764540D03*
D14*
X1188720Y530860D03*
X1163320Y530860D03*
X1137920Y530860D03*
X1112520Y530860D03*
D15*
X1221105Y602860D03*
X1221105Y585860D03*
D16*
X1243720Y562610D03*
X1260720Y562610D03*
X1243720Y581660D03*
X1260720Y581660D03*
D15*
X1106805Y602860D03*
X1106805Y585860D03*
D17*
X1201420Y622360D03*
X1188720Y622360D03*
X1176020Y622360D03*
X1163320Y622360D03*
X1150620Y622360D03*
X1137920Y622360D03*
X1125220Y622360D03*
X1125220Y566360D03*
X1137920Y566360D03*
X1150620Y566360D03*
X1163320Y566360D03*
X1176020Y566360D03*
X1188720Y566360D03*
X1201420Y566360D03*
D16*
X1065920Y556260D03*
X1082920Y556260D03*
D18*
X1079700Y571820D02*
X1079700Y578800D01*
X1086680Y578800D01*
X1086680Y571820D01*
X1079700Y571820D01*
X1079700Y576620D02*
X1086680Y576620D01*
X1062160Y578800D02*
X1062160Y571820D01*
X1062160Y578800D02*
X1069140Y578800D01*
X1069140Y571820D01*
X1062160Y571820D01*
X1062160Y576620D02*
X1069140Y576620D01*
D14*
X1214120Y530860D03*
D16*
X1243720Y543560D03*
X1260720Y543560D03*
D19*
X1264920Y746760D03*
X1061720Y746760D03*
D15*
X1226820Y755260D03*
X1226820Y738260D03*
D20*
X1075055Y541782D03*
X1075055Y531368D03*
D16*
X1078620Y689610D03*
X1095620Y689610D03*
D11*
X239950Y876240D03*
X239950Y932240D03*
D12*
X203200Y889240D03*
X203200Y899240D03*
X203200Y909240D03*
X203200Y919240D03*
D11*
X14050Y932240D03*
X14050Y876240D03*
D12*
X50800Y919240D03*
X50800Y909240D03*
X50800Y899240D03*
X50800Y889240D03*
D13*
X12700Y789940D03*
X246380Y1023620D03*
D14*
X152400Y789940D03*
X127000Y789940D03*
X101600Y789940D03*
X76200Y789940D03*
D15*
X184785Y861940D03*
X184785Y844940D03*
D16*
X207400Y821690D03*
X224400Y821690D03*
X207400Y840740D03*
X224400Y840740D03*
D15*
X70485Y861940D03*
X70485Y844940D03*
D17*
X165100Y881440D03*
X152400Y881440D03*
X139700Y881440D03*
X127000Y881440D03*
X114300Y881440D03*
X101600Y881440D03*
X88900Y881440D03*
X88900Y825440D03*
X101600Y825440D03*
X114300Y825440D03*
X127000Y825440D03*
X139700Y825440D03*
X152400Y825440D03*
X165100Y825440D03*
D16*
X29600Y815340D03*
X46600Y815340D03*
D18*
X43380Y830900D02*
X43380Y837880D01*
X50360Y837880D01*
X50360Y830900D01*
X43380Y830900D01*
X43380Y835700D02*
X50360Y835700D01*
X25840Y837880D02*
X25840Y830900D01*
X25840Y837880D02*
X32820Y837880D01*
X32820Y830900D01*
X25840Y830900D01*
X25840Y835700D02*
X32820Y835700D01*
D14*
X177800Y789940D03*
D16*
X207400Y802640D03*
X224400Y802640D03*
D19*
X228600Y1005840D03*
X25400Y1005840D03*
D15*
X190500Y1014340D03*
X190500Y997340D03*
D20*
X38735Y800862D03*
X38735Y790448D03*
D16*
X42300Y948690D03*
X59300Y948690D03*
D11*
X499030Y876240D03*
X499030Y932240D03*
D12*
X462280Y889240D03*
X462280Y899240D03*
X462280Y909240D03*
X462280Y919240D03*
D11*
X273130Y932240D03*
X273130Y876240D03*
D12*
X309880Y919240D03*
X309880Y909240D03*
X309880Y899240D03*
X309880Y889240D03*
D13*
X271780Y789940D03*
X505460Y1023620D03*
D14*
X411480Y789940D03*
X386080Y789940D03*
X360680Y789940D03*
X335280Y789940D03*
D15*
X443865Y861940D03*
X443865Y844940D03*
D16*
X466480Y821690D03*
X483480Y821690D03*
X466480Y840740D03*
X483480Y840740D03*
D15*
X329565Y861940D03*
X329565Y844940D03*
D17*
X424180Y881440D03*
X411480Y881440D03*
X398780Y881440D03*
X386080Y881440D03*
X373380Y881440D03*
X360680Y881440D03*
X347980Y881440D03*
X347980Y825440D03*
X360680Y825440D03*
X373380Y825440D03*
X386080Y825440D03*
X398780Y825440D03*
X411480Y825440D03*
X424180Y825440D03*
D16*
X288680Y815340D03*
X305680Y815340D03*
D18*
X302460Y830900D02*
X302460Y837880D01*
X309440Y837880D01*
X309440Y830900D01*
X302460Y830900D01*
X302460Y835700D02*
X309440Y835700D01*
X284920Y837880D02*
X284920Y830900D01*
X284920Y837880D02*
X291900Y837880D01*
X291900Y830900D01*
X284920Y830900D01*
X284920Y835700D02*
X291900Y835700D01*
D14*
X436880Y789940D03*
D16*
X466480Y802640D03*
X483480Y802640D03*
D19*
X487680Y1005840D03*
X284480Y1005840D03*
D15*
X449580Y1014340D03*
X449580Y997340D03*
D20*
X297815Y800862D03*
X297815Y790448D03*
D16*
X301380Y948690D03*
X318380Y948690D03*
D11*
X758110Y876240D03*
X758110Y932240D03*
D12*
X721360Y889240D03*
X721360Y899240D03*
X721360Y909240D03*
X721360Y919240D03*
D11*
X532210Y932240D03*
X532210Y876240D03*
D12*
X568960Y919240D03*
X568960Y909240D03*
X568960Y899240D03*
X568960Y889240D03*
D13*
X530860Y789940D03*
X764540Y1023620D03*
D14*
X670560Y789940D03*
X645160Y789940D03*
X619760Y789940D03*
X594360Y789940D03*
D15*
X702945Y861940D03*
X702945Y844940D03*
D16*
X725560Y821690D03*
X742560Y821690D03*
X725560Y840740D03*
X742560Y840740D03*
D15*
X588645Y861940D03*
X588645Y844940D03*
D17*
X683260Y881440D03*
X670560Y881440D03*
X657860Y881440D03*
X645160Y881440D03*
X632460Y881440D03*
X619760Y881440D03*
X607060Y881440D03*
X607060Y825440D03*
X619760Y825440D03*
X632460Y825440D03*
X645160Y825440D03*
X657860Y825440D03*
X670560Y825440D03*
X683260Y825440D03*
D16*
X547760Y815340D03*
X564760Y815340D03*
D18*
X561540Y830900D02*
X561540Y837880D01*
X568520Y837880D01*
X568520Y830900D01*
X561540Y830900D01*
X561540Y835700D02*
X568520Y835700D01*
X544000Y837880D02*
X544000Y830900D01*
X544000Y837880D02*
X550980Y837880D01*
X550980Y830900D01*
X544000Y830900D01*
X544000Y835700D02*
X550980Y835700D01*
D14*
X695960Y789940D03*
D16*
X725560Y802640D03*
X742560Y802640D03*
D19*
X746760Y1005840D03*
X543560Y1005840D03*
D15*
X708660Y1014340D03*
X708660Y997340D03*
D20*
X556895Y800862D03*
X556895Y790448D03*
D16*
X560460Y948690D03*
X577460Y948690D03*
D11*
X1017190Y876240D03*
X1017190Y932240D03*
D12*
X980440Y889240D03*
X980440Y899240D03*
X980440Y909240D03*
X980440Y919240D03*
D11*
X791290Y932240D03*
X791290Y876240D03*
D12*
X828040Y919240D03*
X828040Y909240D03*
X828040Y899240D03*
X828040Y889240D03*
D13*
X789940Y789940D03*
X1023620Y1023620D03*
D14*
X929640Y789940D03*
X904240Y789940D03*
X878840Y789940D03*
X853440Y789940D03*
D15*
X962025Y861940D03*
X962025Y844940D03*
D16*
X984640Y821690D03*
X1001640Y821690D03*
X984640Y840740D03*
X1001640Y840740D03*
D15*
X847725Y861940D03*
X847725Y844940D03*
D17*
X942340Y881440D03*
X929640Y881440D03*
X916940Y881440D03*
X904240Y881440D03*
X891540Y881440D03*
X878840Y881440D03*
X866140Y881440D03*
X866140Y825440D03*
X878840Y825440D03*
X891540Y825440D03*
X904240Y825440D03*
X916940Y825440D03*
X929640Y825440D03*
X942340Y825440D03*
D16*
X806840Y815340D03*
X823840Y815340D03*
D18*
X820620Y830900D02*
X820620Y837880D01*
X827600Y837880D01*
X827600Y830900D01*
X820620Y830900D01*
X820620Y835700D02*
X827600Y835700D01*
X803080Y837880D02*
X803080Y830900D01*
X803080Y837880D02*
X810060Y837880D01*
X810060Y830900D01*
X803080Y830900D01*
X803080Y835700D02*
X810060Y835700D01*
D14*
X955040Y789940D03*
D16*
X984640Y802640D03*
X1001640Y802640D03*
D19*
X1005840Y1005840D03*
X802640Y1005840D03*
D15*
X967740Y1014340D03*
X967740Y997340D03*
D20*
X815975Y800862D03*
X815975Y790448D03*
D16*
X819540Y948690D03*
X836540Y948690D03*
D11*
X1276270Y876240D03*
X1276270Y932240D03*
D12*
X1239520Y889240D03*
X1239520Y899240D03*
X1239520Y909240D03*
X1239520Y919240D03*
D11*
X1050370Y932240D03*
X1050370Y876240D03*
D12*
X1087120Y919240D03*
X1087120Y909240D03*
X1087120Y899240D03*
X1087120Y889240D03*
D13*
X1049020Y789940D03*
X1282700Y1023620D03*
D14*
X1188720Y789940D03*
X1163320Y789940D03*
X1137920Y789940D03*
X1112520Y789940D03*
D15*
X1221105Y861940D03*
X1221105Y844940D03*
D16*
X1243720Y821690D03*
X1260720Y821690D03*
X1243720Y840740D03*
X1260720Y840740D03*
D15*
X1106805Y861940D03*
X1106805Y844940D03*
D17*
X1201420Y881440D03*
X1188720Y881440D03*
X1176020Y881440D03*
X1163320Y881440D03*
X1150620Y881440D03*
X1137920Y881440D03*
X1125220Y881440D03*
X1125220Y825440D03*
X1137920Y825440D03*
X1150620Y825440D03*
X1163320Y825440D03*
X1176020Y825440D03*
X1188720Y825440D03*
X1201420Y825440D03*
D16*
X1065920Y815340D03*
X1082920Y815340D03*
D18*
X1079700Y830900D02*
X1079700Y837880D01*
X1086680Y837880D01*
X1086680Y830900D01*
X1079700Y830900D01*
X1079700Y835700D02*
X1086680Y835700D01*
X1062160Y837880D02*
X1062160Y830900D01*
X1062160Y837880D02*
X1069140Y837880D01*
X1069140Y830900D01*
X1062160Y830900D01*
X1062160Y835700D02*
X1069140Y835700D01*
D14*
X1214120Y789940D03*
D16*
X1243720Y802640D03*
X1260720Y802640D03*
D19*
X1264920Y1005840D03*
X1061720Y1005840D03*
D15*
X1226820Y1014340D03*
X1226820Y997340D03*
D20*
X1075055Y800862D03*
X1075055Y790448D03*
D16*
X1078620Y948690D03*
X1095620Y948690D03*
D11*
X239950Y1135320D03*
X239950Y1191320D03*
D12*
X203200Y1148320D03*
X203200Y1158320D03*
X203200Y1168320D03*
X203200Y1178320D03*
D11*
X14050Y1191320D03*
X14050Y1135320D03*
D12*
X50800Y1178320D03*
X50800Y1168320D03*
X50800Y1158320D03*
X50800Y1148320D03*
D13*
X12700Y1049020D03*
X246380Y1282700D03*
D14*
X152400Y1049020D03*
X127000Y1049020D03*
X101600Y1049020D03*
X76200Y1049020D03*
D15*
X184785Y1121020D03*
X184785Y1104020D03*
D16*
X207400Y1080770D03*
X224400Y1080770D03*
X207400Y1099820D03*
X224400Y1099820D03*
D15*
X70485Y1121020D03*
X70485Y1104020D03*
D17*
X165100Y1140520D03*
X152400Y1140520D03*
X139700Y1140520D03*
X127000Y1140520D03*
X114300Y1140520D03*
X101600Y1140520D03*
X88900Y1140520D03*
X88900Y1084520D03*
X101600Y1084520D03*
X114300Y1084520D03*
X127000Y1084520D03*
X139700Y1084520D03*
X152400Y1084520D03*
X165100Y1084520D03*
D16*
X29600Y1074420D03*
X46600Y1074420D03*
D18*
X43380Y1089980D02*
X43380Y1096960D01*
X50360Y1096960D01*
X50360Y1089980D01*
X43380Y1089980D01*
X43380Y1094780D02*
X50360Y1094780D01*
X25840Y1096960D02*
X25840Y1089980D01*
X25840Y1096960D02*
X32820Y1096960D01*
X32820Y1089980D01*
X25840Y1089980D01*
X25840Y1094780D02*
X32820Y1094780D01*
D14*
X177800Y1049020D03*
D16*
X207400Y1061720D03*
X224400Y1061720D03*
D19*
X228600Y1264920D03*
X25400Y1264920D03*
D15*
X190500Y1273420D03*
X190500Y1256420D03*
D20*
X38735Y1059942D03*
X38735Y1049528D03*
D16*
X42300Y1207770D03*
X59300Y1207770D03*
D11*
X499030Y1135320D03*
X499030Y1191320D03*
D12*
X462280Y1148320D03*
X462280Y1158320D03*
X462280Y1168320D03*
X462280Y1178320D03*
D11*
X273130Y1191320D03*
X273130Y1135320D03*
D12*
X309880Y1178320D03*
X309880Y1168320D03*
X309880Y1158320D03*
X309880Y1148320D03*
D13*
X271780Y1049020D03*
X505460Y1282700D03*
D14*
X411480Y1049020D03*
X386080Y1049020D03*
X360680Y1049020D03*
X335280Y1049020D03*
D15*
X443865Y1121020D03*
X443865Y1104020D03*
D16*
X466480Y1080770D03*
X483480Y1080770D03*
X466480Y1099820D03*
X483480Y1099820D03*
D15*
X329565Y1121020D03*
X329565Y1104020D03*
D17*
X424180Y1140520D03*
X411480Y1140520D03*
X398780Y1140520D03*
X386080Y1140520D03*
X373380Y1140520D03*
X360680Y1140520D03*
X347980Y1140520D03*
X347980Y1084520D03*
X360680Y1084520D03*
X373380Y1084520D03*
X386080Y1084520D03*
X398780Y1084520D03*
X411480Y1084520D03*
X424180Y1084520D03*
D16*
X288680Y1074420D03*
X305680Y1074420D03*
D18*
X302460Y1089980D02*
X302460Y1096960D01*
X309440Y1096960D01*
X309440Y1089980D01*
X302460Y1089980D01*
X302460Y1094780D02*
X309440Y1094780D01*
X284920Y1096960D02*
X284920Y1089980D01*
X284920Y1096960D02*
X291900Y1096960D01*
X291900Y1089980D01*
X284920Y1089980D01*
X284920Y1094780D02*
X291900Y1094780D01*
D14*
X436880Y1049020D03*
D16*
X466480Y1061720D03*
X483480Y1061720D03*
D19*
X487680Y1264920D03*
X284480Y1264920D03*
D15*
X449580Y1273420D03*
X449580Y1256420D03*
D20*
X297815Y1059942D03*
X297815Y1049528D03*
D16*
X301380Y1207770D03*
X318380Y1207770D03*
D11*
X758110Y1135320D03*
X758110Y1191320D03*
D12*
X721360Y1148320D03*
X721360Y1158320D03*
X721360Y1168320D03*
X721360Y1178320D03*
D11*
X532210Y1191320D03*
X532210Y1135320D03*
D12*
X568960Y1178320D03*
X568960Y1168320D03*
X568960Y1158320D03*
X568960Y1148320D03*
D13*
X530860Y1049020D03*
X764540Y1282700D03*
D14*
X670560Y1049020D03*
X645160Y1049020D03*
X619760Y1049020D03*
X594360Y1049020D03*
D15*
X702945Y1121020D03*
X702945Y1104020D03*
D16*
X725560Y1080770D03*
X742560Y1080770D03*
X725560Y1099820D03*
X742560Y1099820D03*
D15*
X588645Y1121020D03*
X588645Y1104020D03*
D17*
X683260Y1140520D03*
X670560Y1140520D03*
X657860Y1140520D03*
X645160Y1140520D03*
X632460Y1140520D03*
X619760Y1140520D03*
X607060Y1140520D03*
X607060Y1084520D03*
X619760Y1084520D03*
X632460Y1084520D03*
X645160Y1084520D03*
X657860Y1084520D03*
X670560Y1084520D03*
X683260Y1084520D03*
D16*
X547760Y1074420D03*
X564760Y1074420D03*
D18*
X561540Y1089980D02*
X561540Y1096960D01*
X568520Y1096960D01*
X568520Y1089980D01*
X561540Y1089980D01*
X561540Y1094780D02*
X568520Y1094780D01*
X544000Y1096960D02*
X544000Y1089980D01*
X544000Y1096960D02*
X550980Y1096960D01*
X550980Y1089980D01*
X544000Y1089980D01*
X544000Y1094780D02*
X550980Y1094780D01*
D14*
X695960Y1049020D03*
D16*
X725560Y1061720D03*
X742560Y1061720D03*
D19*
X746760Y1264920D03*
X543560Y1264920D03*
D15*
X708660Y1273420D03*
X708660Y1256420D03*
D20*
X556895Y1059942D03*
X556895Y1049528D03*
D16*
X560460Y1207770D03*
X577460Y1207770D03*
D11*
X1017190Y1135320D03*
X1017190Y1191320D03*
D12*
X980440Y1148320D03*
X980440Y1158320D03*
X980440Y1168320D03*
X980440Y1178320D03*
D11*
X791290Y1191320D03*
X791290Y1135320D03*
D12*
X828040Y1178320D03*
X828040Y1168320D03*
X828040Y1158320D03*
X828040Y1148320D03*
D13*
X789940Y1049020D03*
X1023620Y1282700D03*
D14*
X929640Y1049020D03*
X904240Y1049020D03*
X878840Y1049020D03*
X853440Y1049020D03*
D15*
X962025Y1121020D03*
X962025Y1104020D03*
D16*
X984640Y1080770D03*
X1001640Y1080770D03*
X984640Y1099820D03*
X1001640Y1099820D03*
D15*
X847725Y1121020D03*
X847725Y1104020D03*
D17*
X942340Y1140520D03*
X929640Y1140520D03*
X916940Y1140520D03*
X904240Y1140520D03*
X891540Y1140520D03*
X878840Y1140520D03*
X866140Y1140520D03*
X866140Y1084520D03*
X878840Y1084520D03*
X891540Y1084520D03*
X904240Y1084520D03*
X916940Y1084520D03*
X929640Y1084520D03*
X942340Y1084520D03*
D16*
X806840Y1074420D03*
X823840Y1074420D03*
D18*
X820620Y1089980D02*
X820620Y1096960D01*
X827600Y1096960D01*
X827600Y1089980D01*
X820620Y1089980D01*
X820620Y1094780D02*
X827600Y1094780D01*
X803080Y1096960D02*
X803080Y1089980D01*
X803080Y1096960D02*
X810060Y1096960D01*
X810060Y1089980D01*
X803080Y1089980D01*
X803080Y1094780D02*
X810060Y1094780D01*
D14*
X955040Y1049020D03*
D16*
X984640Y1061720D03*
X1001640Y1061720D03*
D19*
X1005840Y1264920D03*
X802640Y1264920D03*
D15*
X967740Y1273420D03*
X967740Y1256420D03*
D20*
X815975Y1059942D03*
X815975Y1049528D03*
D16*
X819540Y1207770D03*
X836540Y1207770D03*
D11*
X1276270Y1135320D03*
X1276270Y1191320D03*
D12*
X1239520Y1148320D03*
X1239520Y1158320D03*
X1239520Y1168320D03*
X1239520Y1178320D03*
D11*
X1050370Y1191320D03*
X1050370Y1135320D03*
D12*
X1087120Y1178320D03*
X1087120Y1168320D03*
X1087120Y1158320D03*
X1087120Y1148320D03*
D13*
X1049020Y1049020D03*
X1282700Y1282700D03*
D14*
X1188720Y1049020D03*
X1163320Y1049020D03*
X1137920Y1049020D03*
X1112520Y1049020D03*
D15*
X1221105Y1121020D03*
X1221105Y1104020D03*
D16*
X1243720Y1080770D03*
X1260720Y1080770D03*
X1243720Y1099820D03*
X1260720Y1099820D03*
D15*
X1106805Y1121020D03*
X1106805Y1104020D03*
D17*
X1201420Y1140520D03*
X1188720Y1140520D03*
X1176020Y1140520D03*
X1163320Y1140520D03*
X1150620Y1140520D03*
X1137920Y1140520D03*
X1125220Y1140520D03*
X1125220Y1084520D03*
X1137920Y1084520D03*
X1150620Y1084520D03*
X1163320Y1084520D03*
X1176020Y1084520D03*
X1188720Y1084520D03*
X1201420Y1084520D03*
D16*
X1065920Y1074420D03*
X1082920Y1074420D03*
D18*
X1079700Y1089980D02*
X1079700Y1096960D01*
X1086680Y1096960D01*
X1086680Y1089980D01*
X1079700Y1089980D01*
X1079700Y1094780D02*
X1086680Y1094780D01*
X1062160Y1096960D02*
X1062160Y1089980D01*
X1062160Y1096960D02*
X1069140Y1096960D01*
X1069140Y1089980D01*
X1062160Y1089980D01*
X1062160Y1094780D02*
X1069140Y1094780D01*
D14*
X1214120Y1049020D03*
D16*
X1243720Y1061720D03*
X1260720Y1061720D03*
D19*
X1264920Y1264920D03*
X1061720Y1264920D03*
D15*
X1226820Y1273420D03*
X1226820Y1256420D03*
D20*
X1075055Y1059942D03*
X1075055Y1049528D03*
D16*
X1078620Y1207770D03*
X1095620Y1207770D03*
D11*
X239950Y1394400D03*
X239950Y1450400D03*
D12*
X203200Y1407400D03*
X203200Y1417400D03*
X203200Y1427400D03*
X203200Y1437400D03*
D11*
X14050Y1450400D03*
X14050Y1394400D03*
D12*
X50800Y1437400D03*
X50800Y1427400D03*
X50800Y1417400D03*
X50800Y1407400D03*
D13*
X12700Y1308100D03*
X246380Y1541780D03*
D14*
X152400Y1308100D03*
X127000Y1308100D03*
X101600Y1308100D03*
X76200Y1308100D03*
D15*
X184785Y1380100D03*
X184785Y1363100D03*
D16*
X207400Y1339850D03*
X224400Y1339850D03*
X207400Y1358900D03*
X224400Y1358900D03*
D15*
X70485Y1380100D03*
X70485Y1363100D03*
D17*
X165100Y1399600D03*
X152400Y1399600D03*
X139700Y1399600D03*
X127000Y1399600D03*
X114300Y1399600D03*
X101600Y1399600D03*
X88900Y1399600D03*
X88900Y1343600D03*
X101600Y1343600D03*
X114300Y1343600D03*
X127000Y1343600D03*
X139700Y1343600D03*
X152400Y1343600D03*
X165100Y1343600D03*
D16*
X29600Y1333500D03*
X46600Y1333500D03*
D18*
X43380Y1349060D02*
X43380Y1356040D01*
X50360Y1356040D01*
X50360Y1349060D01*
X43380Y1349060D01*
X43380Y1353860D02*
X50360Y1353860D01*
X25840Y1356040D02*
X25840Y1349060D01*
X25840Y1356040D02*
X32820Y1356040D01*
X32820Y1349060D01*
X25840Y1349060D01*
X25840Y1353860D02*
X32820Y1353860D01*
D14*
X177800Y1308100D03*
D16*
X207400Y1320800D03*
X224400Y1320800D03*
D19*
X228600Y1524000D03*
X25400Y1524000D03*
D15*
X190500Y1532500D03*
X190500Y1515500D03*
D20*
X38735Y1319022D03*
X38735Y1308608D03*
D16*
X42300Y1466850D03*
X59300Y1466850D03*
D11*
X499030Y1394400D03*
X499030Y1450400D03*
D12*
X462280Y1407400D03*
X462280Y1417400D03*
X462280Y1427400D03*
X462280Y1437400D03*
D11*
X273130Y1450400D03*
X273130Y1394400D03*
D12*
X309880Y1437400D03*
X309880Y1427400D03*
X309880Y1417400D03*
X309880Y1407400D03*
D13*
X271780Y1308100D03*
X505460Y1541780D03*
D14*
X411480Y1308100D03*
X386080Y1308100D03*
X360680Y1308100D03*
X335280Y1308100D03*
D15*
X443865Y1380100D03*
X443865Y1363100D03*
D16*
X466480Y1339850D03*
X483480Y1339850D03*
X466480Y1358900D03*
X483480Y1358900D03*
D15*
X329565Y1380100D03*
X329565Y1363100D03*
D17*
X424180Y1399600D03*
X411480Y1399600D03*
X398780Y1399600D03*
X386080Y1399600D03*
X373380Y1399600D03*
X360680Y1399600D03*
X347980Y1399600D03*
X347980Y1343600D03*
X360680Y1343600D03*
X373380Y1343600D03*
X386080Y1343600D03*
X398780Y1343600D03*
X411480Y1343600D03*
X424180Y1343600D03*
D16*
X288680Y1333500D03*
X305680Y1333500D03*
D18*
X302460Y1349060D02*
X302460Y1356040D01*
X309440Y1356040D01*
X309440Y1349060D01*
X302460Y1349060D01*
X302460Y1353860D02*
X309440Y1353860D01*
X284920Y1356040D02*
X284920Y1349060D01*
X284920Y1356040D02*
X291900Y1356040D01*
X291900Y1349060D01*
X284920Y1349060D01*
X284920Y1353860D02*
X291900Y1353860D01*
D14*
X436880Y1308100D03*
D16*
X466480Y1320800D03*
X483480Y1320800D03*
D19*
X487680Y1524000D03*
X284480Y1524000D03*
D15*
X449580Y1532500D03*
X449580Y1515500D03*
D20*
X297815Y1319022D03*
X297815Y1308608D03*
D16*
X301380Y1466850D03*
X318380Y1466850D03*
D11*
X758110Y1394400D03*
X758110Y1450400D03*
D12*
X721360Y1407400D03*
X721360Y1417400D03*
X721360Y1427400D03*
X721360Y1437400D03*
D11*
X532210Y1450400D03*
X532210Y1394400D03*
D12*
X568960Y1437400D03*
X568960Y1427400D03*
X568960Y1417400D03*
X568960Y1407400D03*
D13*
X530860Y1308100D03*
X764540Y1541780D03*
D14*
X670560Y1308100D03*
X645160Y1308100D03*
X619760Y1308100D03*
X594360Y1308100D03*
D15*
X702945Y1380100D03*
X702945Y1363100D03*
D16*
X725560Y1339850D03*
X742560Y1339850D03*
X725560Y1358900D03*
X742560Y1358900D03*
D15*
X588645Y1380100D03*
X588645Y1363100D03*
D17*
X683260Y1399600D03*
X670560Y1399600D03*
X657860Y1399600D03*
X645160Y1399600D03*
X632460Y1399600D03*
X619760Y1399600D03*
X607060Y1399600D03*
X607060Y1343600D03*
X619760Y1343600D03*
X632460Y1343600D03*
X645160Y1343600D03*
X657860Y1343600D03*
X670560Y1343600D03*
X683260Y1343600D03*
D16*
X547760Y1333500D03*
X564760Y1333500D03*
D18*
X561540Y1349060D02*
X561540Y1356040D01*
X568520Y1356040D01*
X568520Y1349060D01*
X561540Y1349060D01*
X561540Y1353860D02*
X568520Y1353860D01*
X544000Y1356040D02*
X544000Y1349060D01*
X544000Y1356040D02*
X550980Y1356040D01*
X550980Y1349060D01*
X544000Y1349060D01*
X544000Y1353860D02*
X550980Y1353860D01*
D14*
X695960Y1308100D03*
D16*
X725560Y1320800D03*
X742560Y1320800D03*
D19*
X746760Y1524000D03*
X543560Y1524000D03*
D15*
X708660Y1532500D03*
X708660Y1515500D03*
D20*
X556895Y1319022D03*
X556895Y1308608D03*
D16*
X560460Y1466850D03*
X577460Y1466850D03*
D11*
X1017190Y1394400D03*
X1017190Y1450400D03*
D12*
X980440Y1407400D03*
X980440Y1417400D03*
X980440Y1427400D03*
X980440Y1437400D03*
D11*
X791290Y1450400D03*
X791290Y1394400D03*
D12*
X828040Y1437400D03*
X828040Y1427400D03*
X828040Y1417400D03*
X828040Y1407400D03*
D13*
X789940Y1308100D03*
X1023620Y1541780D03*
D14*
X929640Y1308100D03*
X904240Y1308100D03*
X878840Y1308100D03*
X853440Y1308100D03*
D15*
X962025Y1380100D03*
X962025Y1363100D03*
D16*
X984640Y1339850D03*
X1001640Y1339850D03*
X984640Y1358900D03*
X1001640Y1358900D03*
D15*
X847725Y1380100D03*
X847725Y1363100D03*
D17*
X942340Y1399600D03*
X929640Y1399600D03*
X916940Y1399600D03*
X904240Y1399600D03*
X891540Y1399600D03*
X878840Y1399600D03*
X866140Y1399600D03*
X866140Y1343600D03*
X878840Y1343600D03*
X891540Y1343600D03*
X904240Y1343600D03*
X916940Y1343600D03*
X929640Y1343600D03*
X942340Y1343600D03*
D16*
X806840Y1333500D03*
X823840Y1333500D03*
D18*
X820620Y1349060D02*
X820620Y1356040D01*
X827600Y1356040D01*
X827600Y1349060D01*
X820620Y1349060D01*
X820620Y1353860D02*
X827600Y1353860D01*
X803080Y1356040D02*
X803080Y1349060D01*
X803080Y1356040D02*
X810060Y1356040D01*
X810060Y1349060D01*
X803080Y1349060D01*
X803080Y1353860D02*
X810060Y1353860D01*
D14*
X955040Y1308100D03*
D16*
X984640Y1320800D03*
X1001640Y1320800D03*
D19*
X1005840Y1524000D03*
X802640Y1524000D03*
D15*
X967740Y1532500D03*
X967740Y1515500D03*
D20*
X815975Y1319022D03*
X815975Y1308608D03*
D16*
X819540Y1466850D03*
X836540Y1466850D03*
D11*
X1276270Y1394400D03*
X1276270Y1450400D03*
D12*
X1239520Y1407400D03*
X1239520Y1417400D03*
X1239520Y1427400D03*
X1239520Y1437400D03*
D11*
X1050370Y1450400D03*
X1050370Y1394400D03*
D12*
X1087120Y1437400D03*
X1087120Y1427400D03*
X1087120Y1417400D03*
X1087120Y1407400D03*
D13*
X1049020Y1308100D03*
X1282700Y1541780D03*
D14*
X1188720Y1308100D03*
X1163320Y1308100D03*
X1137920Y1308100D03*
X1112520Y1308100D03*
D15*
X1221105Y1380100D03*
X1221105Y1363100D03*
D16*
X1243720Y1339850D03*
X1260720Y1339850D03*
X1243720Y1358900D03*
X1260720Y1358900D03*
D15*
X1106805Y1380100D03*
X1106805Y1363100D03*
D17*
X1201420Y1399600D03*
X1188720Y1399600D03*
X1176020Y1399600D03*
X1163320Y1399600D03*
X1150620Y1399600D03*
X1137920Y1399600D03*
X1125220Y1399600D03*
X1125220Y1343600D03*
X1137920Y1343600D03*
X1150620Y1343600D03*
X1163320Y1343600D03*
X1176020Y1343600D03*
X1188720Y1343600D03*
X1201420Y1343600D03*
D16*
X1065920Y1333500D03*
X1082920Y1333500D03*
D18*
X1079700Y1349060D02*
X1079700Y1356040D01*
X1086680Y1356040D01*
X1086680Y1349060D01*
X1079700Y1349060D01*
X1079700Y1353860D02*
X1086680Y1353860D01*
X1062160Y1356040D02*
X1062160Y1349060D01*
X1062160Y1356040D02*
X1069140Y1356040D01*
X1069140Y1349060D01*
X1062160Y1349060D01*
X1062160Y1353860D02*
X1069140Y1353860D01*
D14*
X1214120Y1308100D03*
D16*
X1243720Y1320800D03*
X1260720Y1320800D03*
D19*
X1264920Y1524000D03*
X1061720Y1524000D03*
D15*
X1226820Y1532500D03*
X1226820Y1515500D03*
D20*
X1075055Y1319022D03*
X1075055Y1308608D03*
D16*
X1078620Y1466850D03*
X1095620Y1466850D03*
D11*
X239950Y1653480D03*
X239950Y1709480D03*
D12*
X203200Y1666480D03*
X203200Y1676480D03*
X203200Y1686480D03*
X203200Y1696480D03*
D11*
X14050Y1709480D03*
X14050Y1653480D03*
D12*
X50800Y1696480D03*
X50800Y1686480D03*
X50800Y1676480D03*
X50800Y1666480D03*
D13*
X12700Y1567180D03*
X246380Y1800860D03*
D14*
X152400Y1567180D03*
X127000Y1567180D03*
X101600Y1567180D03*
X76200Y1567180D03*
D15*
X184785Y1639180D03*
X184785Y1622180D03*
D16*
X207400Y1598930D03*
X224400Y1598930D03*
X207400Y1617980D03*
X224400Y1617980D03*
D15*
X70485Y1639180D03*
X70485Y1622180D03*
D17*
X165100Y1658680D03*
X152400Y1658680D03*
X139700Y1658680D03*
X127000Y1658680D03*
X114300Y1658680D03*
X101600Y1658680D03*
X88900Y1658680D03*
X88900Y1602680D03*
X101600Y1602680D03*
X114300Y1602680D03*
X127000Y1602680D03*
X139700Y1602680D03*
X152400Y1602680D03*
X165100Y1602680D03*
D16*
X29600Y1592580D03*
X46600Y1592580D03*
D18*
X43380Y1608140D02*
X43380Y1615120D01*
X50360Y1615120D01*
X50360Y1608140D01*
X43380Y1608140D01*
X43380Y1612940D02*
X50360Y1612940D01*
X25840Y1615120D02*
X25840Y1608140D01*
X25840Y1615120D02*
X32820Y1615120D01*
X32820Y1608140D01*
X25840Y1608140D01*
X25840Y1612940D02*
X32820Y1612940D01*
D14*
X177800Y1567180D03*
D16*
X207400Y1579880D03*
X224400Y1579880D03*
D19*
X228600Y1783080D03*
X25400Y1783080D03*
D15*
X190500Y1791580D03*
X190500Y1774580D03*
D20*
X38735Y1578102D03*
X38735Y1567688D03*
D16*
X42300Y1725930D03*
X59300Y1725930D03*
D11*
X499030Y1653480D03*
X499030Y1709480D03*
D12*
X462280Y1666480D03*
X462280Y1676480D03*
X462280Y1686480D03*
X462280Y1696480D03*
D11*
X273130Y1709480D03*
X273130Y1653480D03*
D12*
X309880Y1696480D03*
X309880Y1686480D03*
X309880Y1676480D03*
X309880Y1666480D03*
D13*
X271780Y1567180D03*
X505460Y1800860D03*
D14*
X411480Y1567180D03*
X386080Y1567180D03*
X360680Y1567180D03*
X335280Y1567180D03*
D15*
X443865Y1639180D03*
X443865Y1622180D03*
D16*
X466480Y1598930D03*
X483480Y1598930D03*
X466480Y1617980D03*
X483480Y1617980D03*
D15*
X329565Y1639180D03*
X329565Y1622180D03*
D17*
X424180Y1658680D03*
X411480Y1658680D03*
X398780Y1658680D03*
X386080Y1658680D03*
X373380Y1658680D03*
X360680Y1658680D03*
X347980Y1658680D03*
X347980Y1602680D03*
X360680Y1602680D03*
X373380Y1602680D03*
X386080Y1602680D03*
X398780Y1602680D03*
X411480Y1602680D03*
X424180Y1602680D03*
D16*
X288680Y1592580D03*
X305680Y1592580D03*
D18*
X302460Y1608140D02*
X302460Y1615120D01*
X309440Y1615120D01*
X309440Y1608140D01*
X302460Y1608140D01*
X302460Y1612940D02*
X309440Y1612940D01*
X284920Y1615120D02*
X284920Y1608140D01*
X284920Y1615120D02*
X291900Y1615120D01*
X291900Y1608140D01*
X284920Y1608140D01*
X284920Y1612940D02*
X291900Y1612940D01*
D14*
X436880Y1567180D03*
D16*
X466480Y1579880D03*
X483480Y1579880D03*
D19*
X487680Y1783080D03*
X284480Y1783080D03*
D15*
X449580Y1791580D03*
X449580Y1774580D03*
D20*
X297815Y1578102D03*
X297815Y1567688D03*
D16*
X301380Y1725930D03*
X318380Y1725930D03*
D11*
X758110Y1653480D03*
X758110Y1709480D03*
D12*
X721360Y1666480D03*
X721360Y1676480D03*
X721360Y1686480D03*
X721360Y1696480D03*
D11*
X532210Y1709480D03*
X532210Y1653480D03*
D12*
X568960Y1696480D03*
X568960Y1686480D03*
X568960Y1676480D03*
X568960Y1666480D03*
D13*
X530860Y1567180D03*
X764540Y1800860D03*
D14*
X670560Y1567180D03*
X645160Y1567180D03*
X619760Y1567180D03*
X594360Y1567180D03*
D15*
X702945Y1639180D03*
X702945Y1622180D03*
D16*
X725560Y1598930D03*
X742560Y1598930D03*
X725560Y1617980D03*
X742560Y1617980D03*
D15*
X588645Y1639180D03*
X588645Y1622180D03*
D17*
X683260Y1658680D03*
X670560Y1658680D03*
X657860Y1658680D03*
X645160Y1658680D03*
X632460Y1658680D03*
X619760Y1658680D03*
X607060Y1658680D03*
X607060Y1602680D03*
X619760Y1602680D03*
X632460Y1602680D03*
X645160Y1602680D03*
X657860Y1602680D03*
X670560Y1602680D03*
X683260Y1602680D03*
D16*
X547760Y1592580D03*
X564760Y1592580D03*
D18*
X561540Y1608140D02*
X561540Y1615120D01*
X568520Y1615120D01*
X568520Y1608140D01*
X561540Y1608140D01*
X561540Y1612940D02*
X568520Y1612940D01*
X544000Y1615120D02*
X544000Y1608140D01*
X544000Y1615120D02*
X550980Y1615120D01*
X550980Y1608140D01*
X544000Y1608140D01*
X544000Y1612940D02*
X550980Y1612940D01*
D14*
X695960Y1567180D03*
D16*
X725560Y1579880D03*
X742560Y1579880D03*
D19*
X746760Y1783080D03*
X543560Y1783080D03*
D15*
X708660Y1791580D03*
X708660Y1774580D03*
D20*
X556895Y1578102D03*
X556895Y1567688D03*
D16*
X560460Y1725930D03*
X577460Y1725930D03*
D11*
X1017190Y1653480D03*
X1017190Y1709480D03*
D12*
X980440Y1666480D03*
X980440Y1676480D03*
X980440Y1686480D03*
X980440Y1696480D03*
D11*
X791290Y1709480D03*
X791290Y1653480D03*
D12*
X828040Y1696480D03*
X828040Y1686480D03*
X828040Y1676480D03*
X828040Y1666480D03*
D13*
X789940Y1567180D03*
X1023620Y1800860D03*
D14*
X929640Y1567180D03*
X904240Y1567180D03*
X878840Y1567180D03*
X853440Y1567180D03*
D15*
X962025Y1639180D03*
X962025Y1622180D03*
D16*
X984640Y1598930D03*
X1001640Y1598930D03*
X984640Y1617980D03*
X1001640Y1617980D03*
D15*
X847725Y1639180D03*
X847725Y1622180D03*
D17*
X942340Y1658680D03*
X929640Y1658680D03*
X916940Y1658680D03*
X904240Y1658680D03*
X891540Y1658680D03*
X878840Y1658680D03*
X866140Y1658680D03*
X866140Y1602680D03*
X878840Y1602680D03*
X891540Y1602680D03*
X904240Y1602680D03*
X916940Y1602680D03*
X929640Y1602680D03*
X942340Y1602680D03*
D16*
X806840Y1592580D03*
X823840Y1592580D03*
D18*
X820620Y1608140D02*
X820620Y1615120D01*
X827600Y1615120D01*
X827600Y1608140D01*
X820620Y1608140D01*
X820620Y1612940D02*
X827600Y1612940D01*
X803080Y1615120D02*
X803080Y1608140D01*
X803080Y1615120D02*
X810060Y1615120D01*
X810060Y1608140D01*
X803080Y1608140D01*
X803080Y1612940D02*
X810060Y1612940D01*
D14*
X955040Y1567180D03*
D16*
X984640Y1579880D03*
X1001640Y1579880D03*
D19*
X1005840Y1783080D03*
X802640Y1783080D03*
D15*
X967740Y1791580D03*
X967740Y1774580D03*
D20*
X815975Y1578102D03*
X815975Y1567688D03*
D16*
X819540Y1725930D03*
X836540Y1725930D03*
D11*
X1276270Y1653480D03*
X1276270Y1709480D03*
D12*
X1239520Y1666480D03*
X1239520Y1676480D03*
X1239520Y1686480D03*
X1239520Y1696480D03*
D11*
X1050370Y1709480D03*
X1050370Y1653480D03*
D12*
X1087120Y1696480D03*
X1087120Y1686480D03*
X1087120Y1676480D03*
X1087120Y1666480D03*
D13*
X1049020Y1567180D03*
X1282700Y1800860D03*
D14*
X1188720Y1567180D03*
X1163320Y1567180D03*
X1137920Y1567180D03*
X1112520Y1567180D03*
D15*
X1221105Y1639180D03*
X1221105Y1622180D03*
D16*
X1243720Y1598930D03*
X1260720Y1598930D03*
X1243720Y1617980D03*
X1260720Y1617980D03*
D15*
X1106805Y1639180D03*
X1106805Y1622180D03*
D17*
X1201420Y1658680D03*
X1188720Y1658680D03*
X1176020Y1658680D03*
X1163320Y1658680D03*
X1150620Y1658680D03*
X1137920Y1658680D03*
X1125220Y1658680D03*
X1125220Y1602680D03*
X1137920Y1602680D03*
X1150620Y1602680D03*
X1163320Y1602680D03*
X1176020Y1602680D03*
X1188720Y1602680D03*
X1201420Y1602680D03*
D16*
X1065920Y1592580D03*
X1082920Y1592580D03*
D18*
X1079700Y1608140D02*
X1079700Y1615120D01*
X1086680Y1615120D01*
X1086680Y1608140D01*
X1079700Y1608140D01*
X1079700Y1612940D02*
X1086680Y1612940D01*
X1062160Y1615120D02*
X1062160Y1608140D01*
X1062160Y1615120D02*
X1069140Y1615120D01*
X1069140Y1608140D01*
X1062160Y1608140D01*
X1062160Y1612940D02*
X1069140Y1612940D01*
D14*
X1214120Y1567180D03*
D16*
X1243720Y1579880D03*
X1260720Y1579880D03*
D19*
X1264920Y1783080D03*
X1061720Y1783080D03*
D15*
X1226820Y1791580D03*
X1226820Y1774580D03*
D20*
X1075055Y1578102D03*
X1075055Y1567688D03*
D16*
X1078620Y1725930D03*
X1095620Y1725930D03*
D21*
X68580Y1829435D03*
X1221105Y1829435D03*
D22*
X59525Y-20955D02*
X59528Y-20733D01*
X59536Y-20511D01*
X59550Y-20289D01*
X59569Y-20067D01*
X59593Y-19847D01*
X59623Y-19626D01*
X59658Y-19407D01*
X59699Y-19188D01*
X59745Y-18971D01*
X59796Y-18755D01*
X59853Y-18540D01*
X59915Y-18326D01*
X59982Y-18115D01*
X60054Y-17904D01*
X60132Y-17696D01*
X60214Y-17490D01*
X60302Y-17286D01*
X60394Y-17083D01*
X60492Y-16884D01*
X60594Y-16687D01*
X60701Y-16492D01*
X60813Y-16300D01*
X60930Y-16111D01*
X61051Y-15924D01*
X61177Y-15741D01*
X61307Y-15561D01*
X61442Y-15384D01*
X61580Y-15211D01*
X61723Y-15041D01*
X61871Y-14874D01*
X62022Y-14711D01*
X62177Y-14552D01*
X62336Y-14397D01*
X62499Y-14246D01*
X62666Y-14098D01*
X62836Y-13955D01*
X63009Y-13817D01*
X63186Y-13682D01*
X63366Y-13552D01*
X63549Y-13426D01*
X63736Y-13305D01*
X63925Y-13188D01*
X64117Y-13076D01*
X64312Y-12969D01*
X64509Y-12867D01*
X64708Y-12769D01*
X64911Y-12677D01*
X65115Y-12589D01*
X65321Y-12507D01*
X65529Y-12429D01*
X65740Y-12357D01*
X65951Y-12290D01*
X66165Y-12228D01*
X66380Y-12171D01*
X66596Y-12120D01*
X66813Y-12074D01*
X67032Y-12033D01*
X67251Y-11998D01*
X67472Y-11968D01*
X67692Y-11944D01*
X67914Y-11925D01*
X68136Y-11911D01*
X68358Y-11903D01*
X68580Y-11900D01*
X68802Y-11903D01*
X69024Y-11911D01*
X69246Y-11925D01*
X69468Y-11944D01*
X69688Y-11968D01*
X69909Y-11998D01*
X70128Y-12033D01*
X70347Y-12074D01*
X70564Y-12120D01*
X70780Y-12171D01*
X70995Y-12228D01*
X71209Y-12290D01*
X71420Y-12357D01*
X71631Y-12429D01*
X71839Y-12507D01*
X72045Y-12589D01*
X72249Y-12677D01*
X72452Y-12769D01*
X72651Y-12867D01*
X72848Y-12969D01*
X73043Y-13076D01*
X73235Y-13188D01*
X73424Y-13305D01*
X73611Y-13426D01*
X73794Y-13552D01*
X73974Y-13682D01*
X74151Y-13817D01*
X74324Y-13955D01*
X74494Y-14098D01*
X74661Y-14246D01*
X74824Y-14397D01*
X74983Y-14552D01*
X75138Y-14711D01*
X75289Y-14874D01*
X75437Y-15041D01*
X75580Y-15211D01*
X75718Y-15384D01*
X75853Y-15561D01*
X75983Y-15741D01*
X76109Y-15924D01*
X76230Y-16111D01*
X76347Y-16300D01*
X76459Y-16492D01*
X76566Y-16687D01*
X76668Y-16884D01*
X76766Y-17083D01*
X76858Y-17286D01*
X76946Y-17490D01*
X77028Y-17696D01*
X77106Y-17904D01*
X77178Y-18115D01*
X77245Y-18326D01*
X77307Y-18540D01*
X77364Y-18755D01*
X77415Y-18971D01*
X77461Y-19188D01*
X77502Y-19407D01*
X77537Y-19626D01*
X77567Y-19847D01*
X77591Y-20067D01*
X77610Y-20289D01*
X77624Y-20511D01*
X77632Y-20733D01*
X77635Y-20955D01*
X77632Y-21177D01*
X77624Y-21399D01*
X77610Y-21621D01*
X77591Y-21843D01*
X77567Y-22063D01*
X77537Y-22284D01*
X77502Y-22503D01*
X77461Y-22722D01*
X77415Y-22939D01*
X77364Y-23155D01*
X77307Y-23370D01*
X77245Y-23584D01*
X77178Y-23795D01*
X77106Y-24006D01*
X77028Y-24214D01*
X76946Y-24420D01*
X76858Y-24624D01*
X76766Y-24827D01*
X76668Y-25026D01*
X76566Y-25223D01*
X76459Y-25418D01*
X76347Y-25610D01*
X76230Y-25799D01*
X76109Y-25986D01*
X75983Y-26169D01*
X75853Y-26349D01*
X75718Y-26526D01*
X75580Y-26699D01*
X75437Y-26869D01*
X75289Y-27036D01*
X75138Y-27199D01*
X74983Y-27358D01*
X74824Y-27513D01*
X74661Y-27664D01*
X74494Y-27812D01*
X74324Y-27955D01*
X74151Y-28093D01*
X73974Y-28228D01*
X73794Y-28358D01*
X73611Y-28484D01*
X73424Y-28605D01*
X73235Y-28722D01*
X73043Y-28834D01*
X72848Y-28941D01*
X72651Y-29043D01*
X72452Y-29141D01*
X72249Y-29233D01*
X72045Y-29321D01*
X71839Y-29403D01*
X71631Y-29481D01*
X71420Y-29553D01*
X71209Y-29620D01*
X70995Y-29682D01*
X70780Y-29739D01*
X70564Y-29790D01*
X70347Y-29836D01*
X70128Y-29877D01*
X69909Y-29912D01*
X69688Y-29942D01*
X69468Y-29966D01*
X69246Y-29985D01*
X69024Y-29999D01*
X68802Y-30007D01*
X68580Y-30010D01*
X68358Y-30007D01*
X68136Y-29999D01*
X67914Y-29985D01*
X67692Y-29966D01*
X67472Y-29942D01*
X67251Y-29912D01*
X67032Y-29877D01*
X66813Y-29836D01*
X66596Y-29790D01*
X66380Y-29739D01*
X66165Y-29682D01*
X65951Y-29620D01*
X65740Y-29553D01*
X65529Y-29481D01*
X65321Y-29403D01*
X65115Y-29321D01*
X64911Y-29233D01*
X64708Y-29141D01*
X64509Y-29043D01*
X64312Y-28941D01*
X64117Y-28834D01*
X63925Y-28722D01*
X63736Y-28605D01*
X63549Y-28484D01*
X63366Y-28358D01*
X63186Y-28228D01*
X63009Y-28093D01*
X62836Y-27955D01*
X62666Y-27812D01*
X62499Y-27664D01*
X62336Y-27513D01*
X62177Y-27358D01*
X62022Y-27199D01*
X61871Y-27036D01*
X61723Y-26869D01*
X61580Y-26699D01*
X61442Y-26526D01*
X61307Y-26349D01*
X61177Y-26169D01*
X61051Y-25986D01*
X60930Y-25799D01*
X60813Y-25610D01*
X60701Y-25418D01*
X60594Y-25223D01*
X60492Y-25026D01*
X60394Y-24827D01*
X60302Y-24624D01*
X60214Y-24420D01*
X60132Y-24214D01*
X60054Y-24006D01*
X59982Y-23795D01*
X59915Y-23584D01*
X59853Y-23370D01*
X59796Y-23155D01*
X59745Y-22939D01*
X59699Y-22722D01*
X59658Y-22503D01*
X59623Y-22284D01*
X59593Y-22063D01*
X59569Y-21843D01*
X59550Y-21621D01*
X59536Y-21399D01*
X59528Y-21177D01*
X59525Y-20955D01*
D23*
X68580Y-20955D03*
D21*
X1244600Y-25400D03*
M02*
