M48
;GenerationSoftware,Autodesk,EAGLE,9.6.0*%
;CreationDate,2020-10-12T23:03:56Z*%
FMAT,2
ICI,OFF
METRIC,TZ,000.000
T5C0.381
T4C0.508
T3C0.800
T2C1.016
T1C3.302
%
G90
M71
T1
X157988Y126492
X54356Y100584
X22860Y22860
X2540Y22860
X48768Y22860
X28448Y22860
X74676Y22860
X54356Y22860
X100584Y22860
X80264Y22860
X126492Y22860
X106172Y22860
X152400Y22860
X132080Y22860
X178308Y22860
X157988Y22860
X22860Y48768
X2540Y48768
X48768Y48768
X28448Y48768
X74676Y48768
X54356Y48768
X100584Y48768
X80264Y48768
X126492Y48768
X106172Y48768
X152400Y48768
X132080Y48768
X178308Y48768
X157988Y48768
X22860Y74676
X2540Y74676
X48768Y74676
X28448Y74676
X74676Y74676
X54356Y74676
X100584Y74676
X80264Y74676
X126492Y74676
X106172Y74676
X152400Y74676
X132080Y74676
X178308Y74676
X157988Y74676
X22860Y100584
X2540Y100584
X48768Y100584
X28448Y100584
X74676Y100584
X100584Y100584
X80264Y100584
X126492Y100584
X106172Y100584
X152400Y100584
X132080Y100584
X178308Y100584
X157988Y100584
X22860Y126492
X2540Y126492
X48768Y126492
X28448Y126492
X74676Y126492
X54356Y126492
X100584Y126492
X80264Y126492
X126492Y126492
X106172Y126492
X152400Y126492
X132080Y126492
X178308Y126492
T2
X111252Y53086
X15240Y1270
X12700Y1270
X10160Y1270
X7620Y1270
X111252Y104902
X113792Y104902
X116332Y104902
X118872Y104902
X95504Y104902
X85344Y104902
X17780Y1270
X121412Y27178
X10160Y53086
X7620Y53086
X41148Y1270
X38608Y1270
X36068Y1270
X33528Y1270
X87884Y104902
X90424Y104902
X92964Y104902
X69596Y104902
X59436Y104902
X61976Y104902
X43688Y1270
X67056Y53086
X144780Y27178
X142240Y27178
X67056Y1270
X64516Y1270
X61976Y1270
X59436Y1270
X64516Y104902
X67056Y104902
X43688Y104902
X33528Y104902
X36068Y104902
X38608Y104902
X69596Y1270
X139700Y27178
X137160Y27178
X113792Y53086
X92964Y1270
X90424Y1270
X87884Y1270
X85344Y1270
X41148Y104902
X17780Y104902
X7620Y104902
X10160Y104902
X12700Y104902
X15240Y104902
X95504Y1270
X116332Y53086
X118872Y53086
X95504Y53086
X118872Y1270
X116332Y1270
X113792Y1270
X111252Y1270
X173228Y78994
X163068Y78994
X165608Y78994
X168148Y78994
X170688Y78994
X147320Y78994
X121412Y1270
X85344Y53086
X87884Y53086
X147320Y27178
X144780Y1270
X142240Y1270
X139700Y1270
X137160Y1270
X137160Y78994
X139700Y78994
X142240Y78994
X144780Y78994
X121412Y78994
X111252Y78994
X147320Y1270
X43688Y53086
X33528Y53086
X36068Y53086
X170688Y1270
X168148Y1270
X165608Y1270
X163068Y1270
X113792Y78994
X116332Y78994
X118872Y78994
X95504Y78994
X85344Y78994
X87884Y78994
X173228Y1270
X170688Y27178
X168148Y27178
X165608Y27178
X15240Y27178
X12700Y27178
X10160Y27178
X7620Y27178
X90424Y78994
X92964Y78994
X69596Y78994
X59436Y78994
X61976Y78994
X64516Y78994
X17780Y27178
X163068Y27178
X90424Y53086
X92964Y53086
X41148Y27178
X38608Y27178
X36068Y27178
X33528Y27178
X67056Y78994
X43688Y78994
X33528Y78994
X36068Y78994
X38608Y78994
X41148Y78994
X43688Y27178
X69596Y53086
X59436Y53086
X61976Y53086
X67056Y27178
X64516Y27178
X61976Y27178
X59436Y27178
X17780Y78994
X7620Y78994
X10160Y78994
X12700Y78994
X15240Y78994
X173228Y53086
X69596Y27178
X64516Y53086
X173228Y27178
X38608Y53086
X92964Y27178
X90424Y27178
X87884Y27178
X85344Y27178
X163068Y53086
X165608Y53086
X168148Y53086
X170688Y53086
X147320Y53086
X41148Y53086
X95504Y27178
X17780Y53086
X15240Y53086
X12700Y53086
X118872Y27178
X116332Y27178
X113792Y27178
X111252Y27178
X137160Y53086
X139700Y53086
X142240Y53086
X144780Y53086
X121412Y53086
X121412Y104902
X144780Y104902
X142240Y104902
X139700Y104902
X137160Y104902
X147320Y104902
X170688Y104902
X168148Y104902
X165608Y104902
X163068Y104902
X173228Y104902
T3
X92220Y20846
X88628Y20846
X118128Y17254
X118128Y20846
X114536Y20846
X144036Y17254
X144036Y20846
X140444Y20846
X169944Y17254
X169944Y20846
X166352Y20846
X14496Y43162
X14496Y46754
X10904Y46754
X40404Y43162
X40404Y46754
X36812Y46754
X66312Y43162
X66312Y46754
X62720Y46754
X40404Y94978
X92220Y43162
X92220Y46754
X88628Y46754
X118128Y43162
X118128Y46754
X114536Y46754
X144036Y43162
X144036Y46754
X140444Y46754
X169944Y43162
X169944Y46754
X166352Y46754
X14496Y69070
X14496Y72662
X10904Y72662
X40404Y69070
X40404Y72662
X36812Y72662
X66312Y69070
X66312Y72662
X62720Y72662
X92220Y69070
X92220Y72662
X88628Y72662
X118128Y69070
X118128Y72662
X114536Y72662
X144036Y69070
X144036Y72662
X140444Y72662
X169944Y69070
X169944Y72662
X166352Y72662
X14496Y94978
X14496Y98570
X10904Y98570
X40404Y98570
X36812Y98570
X66312Y94978
X66312Y98570
X62720Y98570
X92220Y94978
X92220Y98570
X88628Y98570
X118128Y94978
X118128Y98570
X114536Y98570
X144036Y94978
X144036Y98570
X140444Y98570
X169944Y94978
X169944Y98570
X166352Y98570
X14496Y120886
X14496Y124478
X10904Y124478
X40404Y120886
X40404Y124478
X36812Y124478
X66312Y120886
X66312Y124478
X62720Y124478
X92220Y120886
X92220Y124478
X88628Y124478
X166352Y124478
X118128Y120886
X118128Y124478
X114536Y124478
X14496Y17254
X14496Y20846
X10904Y20846
X40404Y17254
X40404Y20846
X144036Y120886
X144036Y124478
X140444Y124478
X36812Y20846
X66312Y17254
X66312Y20846
X62720Y20846
X92220Y17254
X169944Y120886
X169944Y124478
T4
X15240Y58166
X90424Y34798
X90424Y32258
X92964Y34798
X92964Y32258
X170688Y58166
X170688Y60706
X168148Y58166
X168148Y60706
X165608Y58166
X165608Y60706
X61976Y34798
X165608Y34798
X165608Y32258
X168148Y34798
X61976Y32258
X64516Y34798
X64516Y32258
X67056Y34798
X15240Y84074
X15240Y86614
X12700Y84074
X12700Y86614
X10160Y84074
X10160Y86614
X67056Y32258
X67056Y58166
X67056Y60706
X64516Y58166
X36068Y34798
X36068Y32258
X38608Y34798
X38608Y32258
X41148Y84074
X41148Y86614
X38608Y84074
X38608Y86614
X36068Y84074
X36068Y86614
X41148Y34798
X64516Y60706
X61976Y58166
X41148Y32258
X10160Y34798
X10160Y32258
X12700Y34798
X67056Y84074
X67056Y86614
X64516Y84074
X64516Y86614
X61976Y84074
X61976Y86614
X12700Y32258
X61976Y60706
X168148Y32258
X12700Y58166
X15240Y34798
X15240Y32258
X165608Y8890
X165608Y6350
X92964Y84074
X92964Y86614
X90424Y84074
X90424Y86614
X87884Y84074
X87884Y86614
X168148Y8890
X41148Y58166
X41148Y60706
X170688Y34798
X168148Y6350
X170688Y8890
X170688Y6350
X139700Y8890
X118872Y84074
X118872Y86614
X116332Y84074
X116332Y86614
X113792Y84074
X113792Y86614
X139700Y6350
X170688Y32258
X139700Y34798
X139700Y32258
X142240Y8890
X142240Y6350
X144780Y8890
X144780Y6350
X144780Y84074
X144780Y86614
X142240Y84074
X142240Y86614
X139700Y84074
X139700Y86614
X113792Y8890
X92964Y58166
X92964Y60706
X90424Y58166
X113792Y6350
X116332Y8890
X116332Y6350
X118872Y8890
X170688Y84074
X170688Y86614
X168148Y84074
X168148Y86614
X165608Y84074
X165608Y86614
X118872Y6350
X90424Y60706
X87884Y58166
X87884Y60706
X87884Y8890
X87884Y6350
X90424Y8890
X90424Y6350
X15240Y109982
X15240Y112522
X12700Y109982
X12700Y112522
X10160Y109982
X10160Y112522
X92964Y8890
X142240Y34798
X38608Y58166
X38608Y60706
X92964Y6350
X61976Y8890
X61976Y6350
X64516Y8890
X41148Y109982
X41148Y112522
X38608Y109982
X38608Y112522
X36068Y109982
X36068Y112522
X64516Y6350
X36068Y58166
X142240Y32258
X144780Y34798
X67056Y8890
X67056Y6350
X36068Y8890
X36068Y6350
X67056Y109982
X67056Y112522
X64516Y109982
X64516Y112522
X61976Y109982
X61976Y112522
X38608Y8890
X144780Y32258
X113792Y34798
X118872Y58166
X38608Y6350
X41148Y8890
X41148Y6350
X10160Y8890
X92964Y109982
X92964Y112522
X90424Y109982
X90424Y112522
X87884Y109982
X87884Y112522
X10160Y6350
X118872Y60706
X116332Y58166
X116332Y60706
X12700Y8890
X12700Y6350
X15240Y8890
X15240Y6350
X118872Y109982
X118872Y112522
X116332Y109982
X116332Y112522
X113792Y109982
X113792Y112522
X113792Y58166
X113792Y60706
X113792Y32258
X36068Y60706
X15240Y60706
X10160Y60706
X116332Y34798
X116332Y32258
X144780Y109982
X144780Y112522
X142240Y109982
X142240Y112522
X139700Y109982
X139700Y112522
X118872Y34798
X118872Y32258
X144780Y58166
X144780Y60706
X142240Y58166
X142240Y60706
X139700Y58166
X139700Y60706
X170688Y109982
X170688Y112522
X168148Y109982
X168148Y112522
X165608Y109982
X165608Y112522
X87884Y32258
X10160Y58166
X12700Y60706
X87884Y34798
T5
X96139Y89027
X96266Y90868
X96266Y91924
X85725Y88900
X96368Y81482
X94742Y86170
X101536Y82106
X101473Y84138
X92329Y89217
X83693Y87249
X89154Y86805
X101790Y80201
X91670Y84188
X91948Y86614
X90811Y89759
X124777Y87947
X121348Y83312
X109410Y100012
X109410Y93535
X123190Y81153
X109728Y82042
X127762Y95504
X111633Y87122
X122047Y89027
X122174Y90868
X122174Y91924
X111633Y88900
X122276Y81482
X120650Y86170
X127444Y82106
X127381Y84138
X118237Y89217
X109601Y87249
X115062Y86805
X127698Y80201
X117578Y84188
X117856Y86614
X116719Y89759
X150686Y87947
X147257Y83312
X135319Y100012
X135319Y93535
X149098Y81153
X135636Y82042
X153670Y95504
X137541Y87122
X147955Y89027
X148082Y90868
X148082Y91924
X137541Y88900
X148184Y81482
X146558Y86170
X153353Y82106
X153289Y84138
X144145Y89217
X135509Y87249
X140970Y86805
X153607Y80201
X143486Y84188
X143764Y86614
X142627Y89759
X176593Y87947
X173165Y83312
X161227Y100012
X161227Y93535
X175006Y81153
X161544Y82042
X179578Y95504
X163449Y87122
X173863Y89027
X173990Y90868
X173990Y91924
X163449Y88900
X174092Y81482
X172466Y86170
X179260Y82106
X179197Y84138
X170053Y89217
X161417Y87249
X166878Y86805
X179514Y80201
X169394Y84188
X169672Y86614
X168535Y89759
X21146Y113855
X17717Y109220
X5778Y125920
X5778Y119443
X19558Y107061
X6096Y107950
X24130Y121412
X8001Y113030
X18415Y114935
X18542Y116776
X18542Y117832
X8001Y114808
X18644Y107390
X17018Y112077
X23812Y108013
X23749Y110045
X14605Y115125
X5969Y113157
X11430Y112712
X24066Y106108
X13946Y110096
X14224Y112522
X13087Y115667
X47053Y113855
X43625Y109220
X31686Y125920
X31686Y119443
X45466Y107061
X32004Y107950
X50038Y121412
X33909Y113030
X44323Y114935
X44450Y116776
X44450Y117832
X33909Y114808
X44552Y107390
X42926Y112077
X49720Y108013
X18542Y39053
X40513Y115125
X31877Y113157
X37338Y112712
X49974Y106108
X39854Y110096
X40132Y112522
X38995Y115667
X72962Y113855
X69533Y109220
X57594Y125920
X57594Y119443
X71374Y107061
X57912Y107950
X75946Y121412
X59817Y113030
X70231Y114935
X70358Y116776
X70358Y117832
X59817Y114808
X70460Y107390
X68834Y112077
X75629Y108013
X75565Y110045
X66421Y115125
X57785Y113157
X63246Y112712
X75883Y106108
X65762Y110096
X66040Y112522
X64903Y115667
X98869Y113855
X95440Y109220
X83503Y125920
X83503Y119443
X97282Y107061
X83820Y107950
X101854Y121412
X85725Y113030
X96139Y114935
X96266Y116776
X96266Y117832
X85725Y114808
X96368Y107390
X94742Y112077
X101536Y108013
X101473Y110045
X92329Y115125
X83693Y113157
X89154Y112712
X101790Y106108
X91670Y110096
X91948Y112522
X90811Y115667
X124777Y113855
X121348Y109220
X109410Y125920
X109410Y119443
X123190Y107061
X109728Y107950
X127762Y121412
X111633Y113030
X122047Y114935
X122174Y116776
X122174Y117832
X111633Y114808
X122276Y107390
X120650Y112077
X127444Y108013
X127381Y110045
X118237Y115125
X109601Y113157
X115062Y112712
X127698Y106108
X117578Y110096
X117856Y112522
X116719Y115667
X150686Y113855
X147257Y109220
X135319Y125920
X135319Y119443
X149098Y107061
X135636Y107950
X153670Y121412
X137541Y113030
X147955Y114935
X148082Y116776
X148082Y117832
X137541Y114808
X148184Y107390
X146558Y112077
X153353Y108013
X153289Y110045
X144145Y115125
X135509Y113157
X140970Y112712
X153607Y106108
X143486Y110096
X143764Y112522
X142627Y115667
X176593Y113855
X173165Y109220
X161227Y125920
X161227Y119443
X175006Y107061
X161544Y107950
X179578Y121412
X163449Y113030
X173863Y114935
X173990Y116776
X173990Y117832
X163449Y114808
X174092Y107390
X172466Y112077
X179260Y108013
X179197Y110045
X170053Y115125
X161417Y113157
X166878Y112712
X179514Y106108
X169394Y110096
X169672Y112522
X168535Y115667
X21146Y10224
X17717Y5588
X5778Y22288
X5778Y15811
X19558Y3429
X6096Y4318
X24130Y17780
X8001Y9398
X18415Y11303
X18542Y13144
X18542Y14200
X8001Y11176
X18644Y3758
X17018Y8446
X23812Y4382
X23749Y6413
X14605Y11493
X5969Y9525
X11430Y9081
X24066Y2477
X13946Y6464
X14224Y8890
X13087Y12035
X47053Y10224
X43625Y5588
X31686Y22288
X31686Y15811
X45466Y3429
X32004Y4318
X50038Y17780
X33909Y9398
X44323Y11303
X44450Y13144
X44450Y14200
X33909Y11176
X44552Y3758
X42926Y8446
X49720Y4382
X49657Y6413
X40513Y11493
X31877Y9525
X37338Y9081
X49974Y2477
X39854Y6464
X40132Y8890
X38995Y12035
X72962Y10224
X49657Y110045
X69533Y5588
X57594Y22288
X57594Y15811
X71374Y3429
X57912Y4318
X75946Y17780
X59817Y9398
X70231Y11303
X70358Y13144
X70358Y14200
X59817Y11176
X70460Y3758
X68834Y8446
X75629Y4382
X75565Y6413
X66421Y11493
X57785Y9525
X63246Y9081
X75883Y2477
X65762Y6464
X66040Y8890
X64903Y12035
X98869Y10224
X95440Y5588
X83503Y22288
X83503Y15811
X97282Y3429
X83820Y4318
X101854Y17780
X85725Y9398
X96139Y11303
X96266Y13144
X96266Y14200
X85725Y11176
X96368Y3758
X94742Y8446
X101536Y4382
X101473Y6413
X92329Y11493
X83693Y9525
X89154Y9081
X101790Y2477
X91670Y6464
X91948Y8890
X90811Y12035
X124777Y10224
X121348Y5588
X109410Y22288
X109410Y15811
X123190Y3429
X109728Y4318
X127762Y17780
X111633Y9398
X122047Y11303
X122174Y13144
X122174Y14200
X111633Y11176
X122276Y3758
X120650Y8446
X127444Y4382
X127381Y6413
X118237Y11493
X109601Y9525
X115062Y9081
X127698Y2477
X117578Y6464
X117856Y8890
X116719Y12035
X150686Y10224
X147257Y5588
X135319Y22288
X135319Y15811
X149098Y3429
X135636Y4318
X153670Y17780
X137541Y9398
X147955Y11303
X148082Y13144
X148082Y14200
X137541Y11176
X148184Y3758
X146558Y8446
X153353Y4382
X153289Y6413
X144145Y11493
X135509Y9525
X140970Y9081
X153607Y2477
X143486Y6464
X143764Y8890
X142627Y12035
X176593Y10224
X173165Y5588
X161227Y22288
X161227Y15811
X175006Y3429
X161544Y4318
X179578Y17780
X163449Y9398
X173863Y11303
X173990Y13144
X173990Y14200
X163449Y11176
X174092Y3758
X172466Y8446
X179260Y4382
X179197Y6413
X170053Y11493
X161417Y9525
X166878Y9081
X179514Y2477
X169394Y6464
X169672Y8890
X168535Y12035
X21146Y36132
X17717Y31496
X5778Y48196
X5778Y41720
X19558Y29337
X6096Y30226
X24130Y43688
X8001Y35306
X18415Y37211
X18542Y40108
X8001Y37084
X18644Y29666
X17018Y34354
X23812Y30289
X23749Y32321
X14605Y37402
X5969Y35433
X11430Y34989
X24066Y28384
X13946Y32372
X14224Y34798
X13087Y37943
X47053Y36132
X43625Y31496
X31686Y48196
X31686Y41720
X45466Y29337
X32004Y30226
X50038Y43688
X33909Y35306
X44323Y37211
X44450Y39053
X44450Y40108
X33909Y37084
X44552Y29666
X42926Y34354
X49720Y30289
X49657Y32321
X40513Y37402
X31877Y35433
X37338Y34989
X49974Y28384
X39854Y32372
X40132Y34798
X38995Y37943
X72962Y36132
X69533Y31496
X57594Y48196
X57594Y41720
X71374Y29337
X57912Y30226
X75946Y43688
X59817Y35306
X70231Y37211
X70358Y39053
X70358Y40108
X59817Y37084
X70460Y29666
X68834Y34354
X75629Y30289
X75565Y32321
X66421Y37402
X57785Y35433
X63246Y34989
X75883Y28384
X65762Y32372
X66040Y34798
X64903Y37943
X98869Y36132
X95440Y31496
X83503Y48196
X83503Y41720
X97282Y29337
X83820Y30226
X101854Y43688
X85725Y35306
X96139Y37211
X96266Y39053
X96266Y40108
X85725Y37084
X96368Y29666
X94742Y34354
X101536Y30289
X101473Y32321
X92329Y37402
X83693Y35433
X89154Y34989
X101790Y28384
X91670Y32372
X91948Y34798
X90811Y37943
X124777Y36132
X121348Y31496
X109410Y48196
X109410Y41720
X123190Y29337
X109728Y30226
X127762Y43688
X111633Y35306
X122047Y37211
X122174Y39053
X122174Y40108
X111633Y37084
X122276Y29666
X120650Y34354
X127444Y30289
X127381Y32321
X118237Y37402
X109601Y35433
X115062Y34989
X127698Y28384
X117578Y32372
X117856Y34798
X116719Y37943
X150686Y36132
X147257Y31496
X135319Y48196
X135319Y41720
X149098Y29337
X135636Y30226
X153670Y43688
X137541Y35306
X147955Y37211
X148082Y39053
X148082Y40108
X137541Y37084
X148184Y29666
X146558Y34354
X153353Y30289
X153289Y32321
X144145Y37402
X135509Y35433
X140970Y34989
X153607Y28384
X143486Y32372
X143764Y34798
X142627Y37943
X176593Y36132
X173165Y31496
X161227Y48196
X161227Y41720
X175006Y29337
X161544Y30226
X179578Y43688
X163449Y35306
X173863Y37211
X173990Y39053
X173990Y40108
X163449Y37084
X174092Y29666
X172466Y34354
X179260Y30289
X179197Y32321
X170053Y37402
X161417Y35433
X166878Y34989
X179514Y28384
X169394Y32372
X169672Y34798
X168535Y37943
X21146Y62039
X17717Y57404
X5778Y74105
X5778Y67628
X19558Y55245
X6096Y56134
X24130Y69596
X8001Y61214
X18415Y63119
X18542Y64960
X18542Y66016
X8001Y62992
X18644Y55574
X17018Y60261
X23812Y56197
X23749Y58229
X14605Y63309
X5969Y61341
X11430Y60896
X24066Y54292
X13946Y58280
X14224Y60706
X13087Y63851
X47053Y62039
X43625Y57404
X31686Y74105
X31686Y67628
X45466Y55245
X32004Y56134
X50038Y69596
X33909Y61214
X44323Y63119
X44450Y64960
X44450Y66016
X33909Y62992
X44552Y55574
X42926Y60261
X49720Y56197
X49657Y58229
X40513Y63309
X31877Y61341
X37338Y60896
X49974Y54292
X39854Y58280
X40132Y60706
X38995Y63851
X72962Y62039
X69533Y57404
X57594Y74105
X57594Y67628
X71374Y55245
X57912Y56134
X75946Y69596
X59817Y61214
X70231Y63119
X70358Y64960
X70358Y66016
X59817Y62992
X70460Y55574
X68834Y60261
X75629Y56197
X75565Y58229
X66421Y63309
X57785Y61341
X63246Y60896
X75883Y54292
X65762Y58280
X50038Y95504
X66040Y60706
X64903Y63851
X98869Y62039
X95440Y57404
X83503Y74105
X83503Y67628
X97282Y55245
X83820Y56134
X101854Y69596
X85725Y61214
X96139Y63119
X96266Y64960
X96266Y66016
X85725Y62992
X96368Y55574
X94742Y60261
X101536Y56197
X101473Y58229
X92329Y63309
X83693Y61341
X89154Y60896
X101790Y54292
X91670Y58280
X91948Y60706
X90811Y63851
X124777Y62039
X121348Y57404
X109410Y74105
X109410Y67628
X123190Y55245
X109728Y56134
X127762Y69596
X111633Y61214
X122047Y63119
X122174Y64960
X122174Y66016
X111633Y62992
X122276Y55574
X120650Y60261
X127444Y56197
X127381Y58229
X118237Y63309
X109601Y61341
X115062Y60896
X127698Y54292
X117578Y58280
X117856Y60706
X116719Y63851
X150686Y62039
X147257Y57404
X135319Y74105
X135319Y67628
X149098Y55245
X135636Y56134
X153670Y69596
X137541Y61214
X147955Y63119
X148082Y64960
X148082Y66016
X137541Y62992
X148184Y55574
X146558Y60261
X153353Y56197
X153289Y58229
X144145Y63309
X135509Y61341
X140970Y60896
X153607Y54292
X143486Y58280
X143764Y60706
X142627Y63851
X176593Y62039
X173165Y57404
X161227Y74105
X161227Y67628
X175006Y55245
X161544Y56134
X179578Y69596
X163449Y61214
X173863Y63119
X173990Y64960
X173990Y66016
X163449Y62992
X174092Y55574
X172466Y60261
X179260Y56197
X179197Y58229
X170053Y63309
X161417Y61341
X166878Y60896
X179514Y54292
X169394Y58280
X169672Y60706
X168535Y63851
X21146Y87947
X17717Y83312
X5778Y100012
X5778Y93535
X19558Y81153
X6096Y82042
X24130Y95504
X8001Y87122
X18415Y89027
X18542Y90868
X18542Y91924
X8001Y88900
X18644Y81482
X17018Y86170
X23812Y82106
X23749Y84138
X14605Y89217
X5969Y87249
X11430Y86805
X24066Y80201
X13946Y84188
X14224Y86614
X13087Y89759
X47053Y87947
X43625Y83312
X31686Y100012
X31686Y93535
X45466Y81153
X32004Y82042
X33909Y87122
X44323Y89027
X44450Y90868
X44450Y91924
X33909Y88900
X44552Y81482
X42926Y86170
X49720Y82106
X49657Y84138
X40513Y89217
X31877Y87249
X37338Y86805
X49974Y80201
X39854Y84188
X40132Y86614
X38995Y89759
X72962Y87947
X69533Y83312
X57594Y100012
X57594Y93535
X71374Y81153
X57912Y82042
X75946Y95504
X59817Y87122
X70231Y89027
X70358Y90868
X70358Y91924
X59817Y88900
X70460Y81482
X68834Y86170
X75629Y82106
X75565Y84138
X66421Y89217
X57785Y87249
X63246Y86805
X75883Y80201
X65762Y84188
X66040Y86614
X64903Y89759
X98869Y87947
X95440Y83312
X83503Y100012
X83503Y93535
X97282Y81153
X83820Y82042
X101854Y95504
X85725Y87122
M30